<svg width="24" height="33" viewBox="0 0 24 33" fill="none" xmlns="http://www.w3.org/2000/svg">
<path d="M11.7709 32.5C12.7645 32.5 13.6914 32.4934 14.5549 32.4831C14.6474 32.4831 14.724 32.4069 14.724 32.3119V31.453C14.724 31.374 14.786 31.3119 14.8644 31.3119H15.7688C15.8436 31.3119 15.9051 31.2508 15.9051 31.1765V30.2697C15.9051 30.185 15.9756 30.1144 16.062 30.1144H16.973C17.0533 30.1144 17.1195 30.0486 17.1195 29.9677V22.0096C17.1195 21.9334 17.1815 21.8713 17.2557 21.8713H18.1357C18.2221 21.8713 18.2926 21.8007 18.2926 21.7142V20.7914C18.2926 20.7274 18.3462 20.6729 18.41 20.6729H19.3435C19.4177 20.6729 19.4779 20.6117 19.4779 20.5374V18.4406C19.4779 18.3663 19.5399 18.3052 19.616 18.3052H20.527C20.6031 18.3052 20.665 18.2431 20.665 18.1659V17.2657C20.665 17.1792 20.7355 17.1086 20.822 17.1086H21.7268C21.8029 17.1086 21.8649 17.0475 21.8649 16.9703V14.8689C21.8649 14.7946 21.927 14.7325 22.0012 14.7325H22.8914C22.976 14.7325 23.0441 14.6638 23.0441 14.5791V7.77144C23.0441 7.70277 22.9906 7.64916 22.9243 7.64916H21.9993C21.9185 7.64916 21.8527 7.58331 21.8527 7.50241V5.40282C21.8527 5.33227 21.7949 5.27394 21.7244 5.27394H20.7933C20.7252 5.27394 20.6693 5.22032 20.6693 5.15259V4.19875C20.6693 4.13008 20.6134 4.07458 20.5452 4.07458H19.6184C19.5502 4.07458 19.4963 4.02096 19.4963 3.95229V3.08969C19.4963 2.98621 19.414 2.90343 19.3107 2.90343H18.3917C18.3316 2.90343 18.2822 2.8564 18.2822 2.79619V1.80754C18.2822 1.74358 18.2306 1.69184 18.1667 1.69184H16.054C15.9798 1.69184 15.9197 1.63163 15.9197 1.5592V0.657094C15.9197 0.576196 15.8576 0.512231 15.7773 0.508469C15.6223 0.501884 14.2862 0.499999 11.7733 0.499999C9.258 0.499999 7.92374 0.501884 7.76919 0.508469C7.68838 0.512231 7.62639 0.576196 7.62639 0.657094V1.5592C7.62639 1.63163 7.56478 1.69184 7.49009 1.69184H5.37789C5.3159 1.69184 5.26191 1.74358 5.26191 1.80754V2.79619C5.26191 2.85451 5.2144 2.90343 5.15288 2.90343H4.23346C4.13253 2.90343 4.04796 2.98621 4.04796 3.08969V3.95229C4.04796 4.01908 3.99434 4.07458 3.92623 4.07458H2.99891C2.93071 4.07458 2.87484 4.13008 2.87484 4.19875V5.15259C2.87484 5.21844 2.82131 5.27394 2.75085 5.27394H1.81968C1.74969 5.27394 1.69147 5.33039 1.69147 5.40282V7.50241C1.69147 7.58331 1.62571 7.64916 1.54491 7.64916H0.61984C0.553616 7.64916 0.5 7.70277 0.5 7.77144V14.5791C0.5 14.6619 0.568199 14.7325 0.652672 14.7325H1.54302C1.61724 14.7325 1.67923 14.7917 1.67923 14.8689V16.9703C1.67923 17.0475 1.74122 17.1086 1.8178 17.1086H2.72216C2.80908 17.1086 2.87907 17.1792 2.87907 17.2657V18.1659C2.87907 18.2431 2.94106 18.3052 3.01716 18.3052H3.92812C4.00469 18.3052 4.06621 18.3644 4.06621 18.4406V20.5374C4.06621 20.6117 4.12641 20.6729 4.20063 20.6729H5.13406C5.19794 20.6729 5.25156 20.7246 5.25156 20.7914V21.7142C5.25156 21.8007 5.32201 21.8713 5.40893 21.8713H6.28837C6.36259 21.8713 6.42458 21.9334 6.42458 22.0096L6.42279 29.9677C6.42279 30.0486 6.48855 30.1144 6.56935 30.1144H7.47984C7.56666 30.1144 7.63665 30.1831 7.63665 30.2697V31.1765C7.63665 31.2508 7.69873 31.3119 7.77342 31.3119H8.67779C8.75624 31.3119 8.81823 31.374 8.81823 31.453V32.3119C8.81823 32.405 8.89433 32.4831 8.98972 32.4831C9.85081 32.4934 10.7801 32.5 11.7709 32.5Z" stroke="#808080" stroke-miterlimit="10"/>
<path d="M8.82422 23.0542L10.0011 23.0502" stroke="#4E422C" stroke-miterlimit="10"/>
<path d="M10.001 23.0503H13.53" stroke="#7F765D" stroke-miterlimit="10"/>
<path d="M13.5303 23.0505L14.7405 23.0625" stroke="#4E422C" stroke-miterlimit="10"/>
<path d="M14.7402 23.063L15.7954 23.0279C15.8616 23.026 15.9133 22.9743 15.9133 22.9078V20.8143C15.9133 20.7358 15.9753 20.6739 16.0538 20.6739H16.9605C17.0305 20.6739 17.0864 20.6175 17.0864 20.5473V18.4326C17.0864 18.3624 17.1418 18.3069 17.2123 18.3069H18.1354C18.2096 18.3069 18.2717 18.245 18.2717 18.1711V17.25C18.2717 17.1632 18.3416 17.093 18.4286 17.093H19.3287C19.4071 17.093 19.4715 17.0283 19.4715 16.9507V14.9431C19.4715 14.8443 19.5518 14.763 19.6509 14.763H20.4956C20.599 14.763 20.6812 14.6789 20.6812 14.5755V7.81276C20.6812 7.72776 20.6132 7.65754 20.5285 7.65754H19.6632C19.55 7.65754 19.4569 7.56516 19.4569 7.45152V5.36729C19.4569 5.31001 19.4095 5.26473 19.3517 5.26473H18.4469C18.3666 5.26473 18.3003 5.19822 18.3003 5.11785V4.22355C18.3003 4.14317 18.2364 4.07942 18.1561 4.07942H16.0518C15.9814 4.07942 15.9236 4.02306 15.9195 3.95285L15.8842 3.24055" stroke="#7F6951" stroke-miterlimit="10"/>
<path d="M15.8845 3.23996C15.8991 3.14921 15.9033 3.08346 15.893 3.03994C15.8766 2.96401 15.8104 2.90752 15.73 2.90567L7.76319 2.89549C7.69504 2.89549 7.64105 2.9492 7.64105 3.01494V3.92796C7.64105 4.00204 7.58142 4.06408 7.50716 4.06408H5.37573C5.31368 4.06408 5.26202 4.11408 5.26202 4.17612V5.1586C5.26202 5.22064 5.21081 5.27249 5.14877 5.27249H4.18621C4.12843 5.27249 4.08333 5.31786 4.08333 5.37527V7.55226C4.08333 7.60967 4.03777 7.65504 3.9799 7.65504H2.9741C2.91206 7.65504 2.86279 7.70504 2.86279 7.76708V14.5999C2.86279 14.6805 2.92854 14.7444 3.00938 14.7444H3.95082C4.02129 14.7444 4.07907 14.8027 4.07907 14.8731V16.9621C4.07907 17.0343 4.13685 17.0927 4.20686 17.0927H5.15303C5.23146 17.0927 5.29535 17.1547 5.29535 17.2334V18.1353C5.29535 18.214 5.35739 18.2779 5.43582 18.2779H6.32375C6.38764 18.2779 6.43931 18.3298 6.43931 18.3937V20.541C6.43931 20.6095 6.49283 20.6633 6.56098 20.6633H7.52364C7.58753 20.6633 7.64105 20.7142 7.64105 20.779V22.9653C7.64105 23.0217 7.68661 23.0671 7.74254 23.0643L8.82446 23.0541" stroke="#7F765D" stroke-miterlimit="10"/>
<path d="M15.8844 3.24056C15.6989 3.90759 15.6678 4.76216 16.2194 5.14002C17.2928 5.88004 18.1192 6.83162 18.6994 7.99846C19.1805 8.96667 19.397 9.93766 19.3519 10.9123C19.2918 12.2011 19.0729 13.2248 18.6971 13.9833C18.4927 14.3898 18.2592 15.3728 18.2367 15.7026C18.2306 15.7756 18.1808 15.8375 18.1107 15.8578C17.8754 15.9261 17.6668 15.9733 17.485 16C17.2619 16.0333 17.0927 16.2218 17.0805 16.4481C17.0575 16.8944 16.8282 17.1068 16.397 17.0847C16.1367 17.0717 15.9117 17.2085 15.8642 17.4089C15.8102 17.6316 15.649 17.9623 15.5255 18.2765C15.4344 18.5074 15.2591 18.6248 15.0007 18.6294C14.8378 18.6312 14.7489 18.5093 14.7344 18.2681" stroke="#FCDEAC" stroke-miterlimit="10"/>
<path d="M10.001 23.0498L10.018 16.1449C10.018 16.0066 9.90419 15.8929 9.76563 15.8929H8.95427C8.86972 15.8929 8.80163 15.8246 8.80163 15.7397V12.5249C8.80163 12.3761 8.92941 12.2623 9.07602 12.2772L9.76379 12.3455C9.91224 12.3595 10.0259 12.4837 10.0259 12.6343V13.3695C10.0259 13.4868 10.1208 13.5822 10.2363 13.5822H10.9612C11.0689 13.5822 11.1558 13.6688 11.1558 13.7765V14.594C11.1558 14.7051 11.2464 14.7962 11.3578 14.7962H12.1532C12.2809 14.7962 12.3843 14.6911 12.3843 14.5625V13.8194C12.3843 13.7039 12.4792 13.6084 12.5947 13.6084H13.3093C13.423 13.6084 13.516 13.5157 13.516 13.4028V12.5599C13.516 12.4872 13.4662 12.426 13.3962 12.4093C13.0862 12.3411 12.7973 12.3262 12.5266 12.37C12.4566 12.3822 12.4026 12.44 12.3946 12.51L12.3139 13.3135C12.3016 13.4456 12.1921 13.5472 12.0601 13.5472H11.4052C11.2713 13.5472 11.1638 13.4395 11.1638 13.3056V12.6422C11.1638 12.5161 11.0628 12.4155 10.9368 12.4155H10.1725C10.1024 12.4155 10.0424 12.3656 10.0301 12.2956L9.89815 11.5253C9.88117 11.4343 9.80695 11.3643 9.71399 11.3538L7.94423 11.1779C7.79771 11.1639 7.66992 11.2794 7.66992 11.4264V15.7003C7.66992 15.8167 7.7648 15.9112 7.88033 15.9112H8.64233C8.71471 15.9112 8.77248 15.969 8.77441 16.0434L8.82421 23.0542M14.7342 18.2674L14.7487 16.0723C14.7507 15.9961 14.6868 15.9322 14.6102 15.9322H13.6851C13.6128 15.9322 13.555 15.99 13.555 16.0618L13.5301 23.0498" stroke="#CBB788" stroke-miterlimit="10"/>
<path d="M14.74 23.0625L14.7339 18.2679" stroke="#CBAA7C" stroke-miterlimit="10"/>
<path d="M12.3677 25.4211L15.7582 25.4585C15.8676 25.4608 15.9564 25.3694 15.9564 25.2604V24.3806C15.9564 24.2629 15.8616 24.1698 15.746 24.1722L12.3799 24.2135" stroke="#465352" stroke-miterlimit="10"/>
<path d="M12.3799 24.2133L7.77925 24.1966C7.67586 24.1966 7.59131 24.2809 7.59131 24.3843V25.2273C7.59131 25.3299 7.67586 25.415 7.77925 25.415L12.3676 25.4214" stroke="#585758" stroke-miterlimit="10"/>
<path d="M12.3803 24.2125C12.5063 24.6729 12.5021 25.0761 12.3682 25.4204" stroke="#9DA9A8" stroke-miterlimit="10"/>
<path d="M15.9134 26.7331C15.9134 26.6418 15.8391 26.5676 15.748 26.5676H7.77327C7.68208 26.5676 7.60791 26.6418 7.60791 26.7331V27.6458C7.60791 27.7364 7.68208 27.8105 7.77327 27.8105H15.748C15.8391 27.8105 15.9134 27.7364 15.9134 27.6458V26.7331Z" stroke="#585758" stroke-miterlimit="10"/>
<path d="M12.411 30.1376L14.4451 30.1621C14.6185 30.1644 14.759 30.0257 14.759 29.8525V29.2102C14.759 29.0431 14.6203 28.9067 14.4531 28.9105L12.4067 28.942" stroke="#465352" stroke-miterlimit="10"/>
<path d="M12.4069 28.9412L8.89658 28.9313C8.81574 28.9313 8.75 28.9972 8.75 29.0776V29.9887C8.75 30.0715 8.81812 30.1396 8.9008 30.1396L12.4111 30.1374" stroke="#585758" stroke-miterlimit="10"/>
<path d="M12.4067 28.9422L12.411 30.1382" stroke="#9DA9A8" stroke-miterlimit="10"/>
<path d="M9.68957 5.35331H7.02773C6.94502 5.35331 6.86422 5.38246 6.79846 5.43347C6.46589 5.69854 6.433 6.28061 5.95195 6.36077C5.47455 6.44184 5.24345 6.74062 5.25375 7.26348C5.27634 8.22995 5.31159 9.00421 5.35714 9.58446C5.36934 9.73749 5.47455 9.86775 5.62348 9.91056C6.25537 10.0964 7.1579 10.0636 7.67793 9.4542C7.83716 9.26838 8.09513 9.04976 8.45448 8.79562C8.48545 8.77285 8.5146 8.74825 8.53719 8.7191L9.67928 7.30447C9.71635 7.25892 9.74505 7.20791 9.76381 7.15417C9.94563 6.62767 10.001 6.09661 9.93105 5.56555C9.91456 5.4444 9.81127 5.35331 9.68957 5.35331Z" stroke="#FEF5DC" stroke-miterlimit="10"/>
<path d="M15.8825 11.4803C15.8825 11.3544 15.7815 11.2529 15.6556 11.2529H13.7637C13.6421 11.2529 13.5406 11.35 13.5368 11.4698L13.5101 12.1119C13.5035 12.2422 13.6068 12.3498 13.737 12.3498H14.505C14.631 12.3498 14.7325 12.4504 14.7325 12.5763V15.7008C14.7325 15.8268 14.8335 15.9282 14.9594 15.9282H15.6556C15.7815 15.9282 15.8825 15.8268 15.8825 15.7008V11.4803Z" stroke="#CBB788" stroke-miterlimit="10"/>
<path d="M12.4112 30.137L14.4455 30.1624C14.6187 30.1643 14.7593 30.026 14.7593 29.852V29.2104C14.7593 29.043 14.6207 28.9066 14.4535 28.9104L12.407 28.9414L8.89669 28.9311C8.81588 28.9311 8.75013 28.9979 8.75013 29.0778V29.9884C8.75013 30.0712 8.81823 30.1398 8.90092 30.1398L12.4112 30.137ZM15.9136 26.7318C15.9136 26.6415 15.8393 26.5671 15.7482 26.5671H7.77342C7.68227 26.5671 7.60805 26.6415 7.60805 26.7318V27.6452C7.60805 27.7355 7.68227 27.8098 7.77342 27.8098H15.7482C15.8393 27.8098 15.9136 27.7355 15.9136 27.6452V26.7318ZM12.368 25.4205L15.7586 25.4581C15.868 25.46 15.9568 25.3687 15.9568 25.2596V24.3801C15.9568 24.2625 15.8618 24.1694 15.7463 24.1712L12.3802 24.2126L7.77953 24.1966C7.67615 24.1966 7.59159 24.2813 7.59159 24.3838V25.2267C7.59159 25.3301 7.67615 25.4148 7.77953 25.4148L12.368 25.4205ZM8.82435 23.0547L10.0011 23.0499H13.5303L14.7405 23.0622L15.7956 23.0274C15.8618 23.0255 15.9136 22.9737 15.9136 22.9079V20.814C15.9136 20.7349 15.9756 20.6729 16.054 20.6729H16.9607C17.0307 20.6729 17.0866 20.6174 17.0866 20.5477V18.4331C17.0866 18.3625 17.142 18.307 17.2126 18.307H18.1357C18.2099 18.307 18.272 18.245 18.272 18.1706V17.2497C18.272 17.1632 18.3419 17.0926 18.4289 17.0926H19.329C19.4075 17.0926 19.4718 17.0287 19.4718 16.9496V14.9432C19.4718 14.8435 19.5521 14.7635 19.6513 14.7635H20.4959C20.5993 14.7635 20.6815 14.6788 20.6815 14.5754V7.81189C20.6815 7.72723 20.6134 7.65763 20.5288 7.65763H19.6634C19.5502 7.65763 19.4572 7.5645 19.4572 7.45068V5.36707C19.4572 5.30969 19.4098 5.2636 19.3519 5.2636H18.4471C18.3668 5.2636 18.3006 5.19775 18.3006 5.11779V4.2232C18.3006 4.1423 18.2367 4.07834 18.1563 4.07834H16.0521C15.9817 4.07834 15.9238 4.02284 15.9197 3.95229L15.8844 3.24019C15.899 3.14989 15.9032 3.0831 15.8929 3.03983C15.8764 2.96364 15.8102 2.90814 15.7299 2.90532L7.76307 2.89591C7.69497 2.89591 7.64088 2.94953 7.64088 3.01538V3.92784C7.64088 4.00215 7.58124 4.06423 7.50702 4.06423H5.37554C5.31354 4.06423 5.26191 4.11408 5.26191 4.17617V5.15824C5.26191 5.22033 5.21064 5.27206 5.14865 5.27206H4.18605C4.12829 5.27206 4.08314 5.31815 4.08314 5.37553V7.55227C4.08314 7.60965 4.03761 7.65574 3.97985 7.65574H2.97398C2.91199 7.65574 2.86261 7.70466 2.86261 7.76674V14.5998C2.86261 14.6807 2.92845 14.7447 3.00916 14.7447H3.95069C4.02115 14.7447 4.07891 14.8021 4.07891 14.8726V16.9628C4.07891 17.0343 4.13676 17.0926 4.20674 17.0926H5.15288C5.23133 17.0926 5.2952 17.1547 5.2952 17.2328V18.1358C5.2952 18.2139 5.35729 18.2779 5.43574 18.2779H6.32365C6.38752 18.2779 6.43916 18.3296 6.43916 18.3936V20.5412C6.43916 20.6089 6.49278 20.6634 6.56089 20.6634H7.52348C7.58736 20.6634 7.64088 20.7142 7.64088 20.7782V22.9653C7.64088 23.0208 7.6865 23.0669 7.74238 23.065L8.82435 23.0547ZM11.7733 0.499999C14.2862 0.499999 15.6223 0.501884 15.7773 0.508469C15.8576 0.512231 15.9197 0.576196 15.9197 0.657094V1.5592C15.9197 1.63163 15.9798 1.69184 16.054 1.69184H18.1667C18.2306 1.69184 18.2822 1.74358 18.2822 1.80754V2.79619C18.2822 2.8564 18.3316 2.90343 18.3917 2.90343H19.3107C19.414 2.90343 19.4963 2.98621 19.4963 3.08969V3.95229C19.4963 4.02096 19.5502 4.07458 19.6184 4.07458H20.5452C20.6134 4.07458 20.6693 4.13008 20.6693 4.19875V5.15259C20.6693 5.22032 20.7252 5.27394 20.7933 5.27394H21.7244C21.7949 5.27394 21.8527 5.33227 21.8527 5.40282V7.50241C21.8527 7.58331 21.9185 7.64916 21.9993 7.64916H22.9243C22.9906 7.64916 23.0441 7.70277 23.0441 7.77144V14.5791C23.0441 14.6638 22.976 14.7325 22.8914 14.7325H22.0012C21.927 14.7325 21.8649 14.7946 21.8649 14.8689V16.9703C21.8649 17.0475 21.8029 17.1086 21.7268 17.1086H20.822C20.7355 17.1086 20.665 17.1792 20.665 17.2657V18.1659C20.665 18.2431 20.6031 18.3052 20.527 18.3052H19.616C19.5399 18.3052 19.4779 18.3663 19.4779 18.4406V20.5374C19.4779 20.6117 19.4177 20.6729 19.3435 20.6729H18.41C18.3462 20.6729 18.2926 20.7274 18.2926 20.7914V21.7142C18.2926 21.8007 18.2221 21.8713 18.1357 21.8713H17.2557C17.1815 21.8713 17.1195 21.9334 17.1195 22.0096V29.9677C17.1195 30.0486 17.0533 30.1144 16.973 30.1144H16.062C15.9756 30.1144 15.9051 30.185 15.9051 30.2697V31.1765C15.9051 31.2508 15.8436 31.3119 15.7688 31.3119H14.8644C14.786 31.3119 14.724 31.374 14.724 31.453V32.3119C14.724 32.4069 14.6474 32.4831 14.5549 32.4831C13.6914 32.4934 12.7645 32.5 11.7709 32.5C10.7801 32.5 9.85081 32.4934 8.98972 32.4831C8.89433 32.4831 8.81823 32.405 8.81823 32.3119V31.453C8.81823 31.374 8.75624 31.3119 8.67779 31.3119H7.77342C7.69873 31.3119 7.63665 31.2508 7.63665 31.1765V30.2697C7.63665 30.1831 7.56666 30.1144 7.47984 30.1144H6.56935C6.48855 30.1144 6.42279 30.0486 6.42279 29.9677L6.42458 22.0096C6.42458 21.9334 6.36259 21.8713 6.28837 21.8713H5.40893C5.32201 21.8713 5.25156 21.8007 5.25156 21.7142V20.7914C5.25156 20.7246 5.19794 20.6729 5.13406 20.6729H4.20063C4.12641 20.6729 4.06621 20.6117 4.06621 20.5374V18.4406C4.06621 18.3644 4.00469 18.3052 3.92812 18.3052H3.01716C2.94106 18.3052 2.87907 18.2431 2.87907 18.1659V17.2657C2.87907 17.1792 2.80908 17.1086 2.72216 17.1086H1.8178C1.74122 17.1086 1.67923 17.0475 1.67923 16.9703V14.8689C1.67923 14.7917 1.61724 14.7325 1.54302 14.7325H0.652672C0.568199 14.7325 0.5 14.6619 0.5 14.5791V7.77144C0.5 7.70277 0.553616 7.64916 0.61984 7.64916H1.54491C1.62571 7.64916 1.69147 7.58331 1.69147 7.50241V5.40282C1.69147 5.33039 1.74969 5.27394 1.81968 5.27394H2.75085C2.82131 5.27394 2.87484 5.21844 2.87484 5.15259V4.19875C2.87484 4.13008 2.93071 4.07458 2.99891 4.07458H3.92623C3.99434 4.07458 4.04796 4.01908 4.04796 3.95229V3.08969C4.04796 2.98621 4.13253 2.90343 4.23346 2.90343H5.15288C5.2144 2.90343 5.26191 2.85451 5.26191 2.79619V1.80754C5.26191 1.74358 5.3159 1.69184 5.37789 1.69184H7.49009C7.56478 1.69184 7.62639 1.63163 7.62639 1.5592V0.657094C7.62639 0.576196 7.68838 0.512231 7.76919 0.508469C7.92374 0.501884 9.258 0.499999 11.7733 0.499999Z" fill="#010101"/>
<path d="M15.8827 11.4803C15.8827 11.3534 15.7817 11.2525 15.6558 11.2525H13.7639C13.6423 11.2525 13.5408 11.3497 13.537 11.4692L13.5102 12.1118C13.5036 12.2414 13.607 12.3489 13.7371 12.3489H14.5053C14.6311 12.3489 14.7326 12.4507 14.7326 12.5766V15.7009C14.7326 15.8269 14.8336 15.9278 14.9596 15.9278H15.6558C15.7817 15.9278 15.8827 15.8269 15.8827 15.7009V11.4803ZM9.68979 5.35305H7.02796C6.94527 5.35305 6.86453 5.38175 6.79869 5.43361C6.46607 5.69751 6.4332 6.27996 5.95215 6.36052C5.47481 6.44108 5.24368 6.74017 5.25405 7.26336C5.27656 8.22916 5.31183 9.0042 5.35739 9.58387C5.36961 9.73665 5.47481 9.86722 5.62371 9.91074C6.2556 10.0959 7.15815 10.0635 7.67819 9.45423C7.83746 9.26811 8.09534 9.04957 8.45472 8.79493C8.48574 8.7727 8.51491 8.74771 8.53741 8.719L9.67951 7.30409C9.71665 7.25872 9.74526 7.20687 9.76405 7.15316C9.94583 6.6272 10.0013 6.09662 9.93129 5.56603C9.9149 5.4438 9.81156 5.35305 9.68979 5.35305ZM15.8845 3.23996C15.699 3.90759 15.6679 4.76228 16.2196 5.14008C17.293 5.87901 18.1194 6.83184 18.6996 7.99858C19.1807 8.96716 19.3972 9.9376 19.3522 10.9117C19.292 12.2007 19.0731 13.2248 18.6972 13.9823C18.4928 14.3897 18.2594 15.3722 18.2368 15.7028C18.2307 15.775 18.181 15.837 18.1109 15.8574C17.8756 15.9259 17.667 15.9732 17.4852 16C17.262 16.0333 17.0928 16.2213 17.0806 16.4482C17.0577 16.8945 16.8284 17.1075 16.3971 17.0843C16.1369 17.0723 15.9118 17.2084 15.8643 17.4084C15.8104 17.6316 15.6491 17.9622 15.5256 18.2761C15.4345 18.5076 15.2592 18.6252 15.0009 18.6289C14.8379 18.6307 14.7491 18.5094 14.7345 18.2677L14.7491 16.0722C14.7509 15.9963 14.687 15.9324 14.6105 15.9324H13.6854C13.6131 15.9324 13.5553 15.9898 13.5553 16.0621L13.5304 23.0504H10.0013L10.0182 16.1445C10.0182 16.0065 9.90453 15.8926 9.76591 15.8926H8.95456C8.87002 15.8926 8.80196 15.825 8.80196 15.7398V12.5248C8.80196 12.3757 8.92965 12.2627 9.07633 12.2766L9.76405 12.3452C9.91249 12.36 10.0262 12.4831 10.0262 12.6341V13.3693C10.0262 13.4869 10.1211 13.5823 10.2367 13.5823H10.9615C11.0691 13.5823 11.1561 13.6684 11.1561 13.7758V14.5944C11.1561 14.7055 11.2467 14.7962 11.358 14.7962H12.1535C12.2812 14.7962 12.3846 14.6907 12.3846 14.5629V13.8193C12.3846 13.7036 12.4795 13.6091 12.5951 13.6091H13.3096C13.4233 13.6091 13.5163 13.5156 13.5163 13.4026V12.56C13.5163 12.4878 13.4665 12.4257 13.3965 12.409C13.0865 12.3405 12.7975 12.3266 12.5269 12.3702C12.4569 12.3822 12.4029 12.4405 12.395 12.51L12.3141 13.3137C12.3019 13.4461 12.1924 13.5471 12.0604 13.5471H11.4055C11.2716 13.5471 11.164 13.4397 11.164 13.3054V12.6424C11.164 12.5165 11.063 12.4155 10.9371 12.4155H10.1728C10.1028 12.4155 10.0427 12.3655 10.0305 12.2951L9.89842 11.5257C9.88147 11.434 9.8073 11.3645 9.71424 11.3534L7.9445 11.1784C7.79801 11.1636 7.67022 11.2793 7.67022 11.4266V15.7009C7.67022 15.8167 7.76504 15.9111 7.8807 15.9111H8.64269C8.71501 15.9111 8.77279 15.9695 8.77464 16.0435L8.82446 23.0541L7.74254 23.0643C7.68661 23.0671 7.64105 23.0217 7.64105 22.9653V20.779C7.64105 20.7142 7.58753 20.6633 7.52364 20.6633H6.56098C6.49283 20.6633 6.43931 20.6095 6.43931 20.541V18.3937C6.43931 18.3298 6.38764 18.2779 6.32375 18.2779H5.43582C5.35739 18.2779 5.29535 18.214 5.29535 18.1353V17.2334C5.29535 17.1547 5.23146 17.0927 5.15303 17.0927H4.20686C4.13685 17.0927 4.07907 17.0343 4.07907 16.9621V14.8731C4.07907 14.8027 4.02129 14.7444 3.95082 14.7444H3.00938C2.92854 14.7444 2.86279 14.6805 2.86279 14.5999V7.76708C2.86279 7.70504 2.91206 7.65504 2.9741 7.65504H3.9799C4.03777 7.65504 4.08333 7.60967 4.08333 7.55226V5.37527C4.08333 5.31786 4.12843 5.27249 4.18621 5.27249H5.14877C5.21081 5.27249 5.26202 5.22064 5.26202 5.1586V4.17612C5.26202 4.11408 5.31368 4.06408 5.37573 4.06408H7.50716C7.58142 4.06408 7.64105 4.00204 7.64105 3.92796V3.01494C7.64105 2.9492 7.69504 2.89549 7.76319 2.89549L15.73 2.90567C15.8104 2.90752 15.8766 2.96401 15.893 3.03994C15.9033 3.08346 15.8991 3.14921 15.8845 3.23996Z" fill="#FCEBB8"/>
<path d="M15.8844 3.24055L15.9197 3.95285C15.9238 4.02306 15.9817 4.07942 16.0521 4.07942H18.1564C18.2367 4.07942 18.3006 4.14317 18.3006 4.22355V5.11785C18.3006 5.19822 18.3668 5.26473 18.4471 5.26473H19.3519C19.4098 5.26473 19.4572 5.31001 19.4572 5.36729V7.45152C19.4572 7.56516 19.5502 7.65754 19.6635 7.65754H20.5288C20.6134 7.65754 20.6815 7.72776 20.6815 7.81276V14.5755C20.6815 14.6789 20.5993 14.763 20.4959 14.763H19.6512C19.5521 14.763 19.4718 14.8443 19.4718 14.9431V16.9507C19.4718 17.0283 19.4074 17.093 19.3289 17.093H18.4288C18.3419 17.093 18.2719 17.1632 18.2719 17.25V18.1711C18.2719 18.245 18.2099 18.3069 18.1357 18.3069H17.2126C17.1421 18.3069 17.0866 18.3624 17.0866 18.4326V20.5473C17.0866 20.6175 17.0307 20.6739 16.9607 20.6739H16.054C15.9756 20.6739 15.9135 20.7358 15.9135 20.8143V22.9078C15.9135 22.9743 15.8619 23.026 15.7956 23.0279L14.7405 23.063L14.7344 18.2681C14.7489 18.5093 14.8378 18.6312 15.0007 18.6294C15.2591 18.6247 15.4344 18.5074 15.5255 18.2764C15.649 17.9623 15.8102 17.6316 15.8642 17.4089C15.9117 17.2085 16.1367 17.0717 16.397 17.0847C16.8282 17.1068 17.0575 16.8943 17.0805 16.4481C17.0927 16.2218 17.2619 16.0333 17.485 16C17.6668 15.9733 17.8754 15.9261 18.1107 15.8578C18.1808 15.8374 18.2306 15.7756 18.2367 15.7026C18.2592 15.3727 18.4927 14.3897 18.6971 13.9832C19.0729 13.2248 19.2918 12.2011 19.3519 10.9123C19.397 9.93765 19.1805 8.96666 18.6994 7.99845C18.1192 6.83161 17.2928 5.88003 16.2194 5.14001C15.6678 4.76215 15.6989 3.90758 15.8844 3.24055Z" fill="#FCD1A0"/>
<path d="M9.68957 5.35331C9.81127 5.35331 9.91456 5.4444 9.93105 5.56555C10.001 6.09661 9.94563 6.62767 9.76381 7.15417C9.74505 7.20791 9.71635 7.25892 9.67928 7.30447L8.53719 8.7191C8.5146 8.74825 8.48545 8.77285 8.45448 8.79562C8.09513 9.04976 7.83716 9.26838 7.67793 9.4542C7.1579 10.0636 6.25537 10.0964 5.62348 9.91056C5.47455 9.86775 5.36934 9.73749 5.35714 9.58446C5.31159 9.00421 5.27634 8.22995 5.25375 7.26348C5.24345 6.74062 5.47455 6.44184 5.95195 6.36077C6.433 6.28061 6.46589 5.69854 6.79846 5.43347C6.86422 5.38246 6.94502 5.35331 7.02773 5.35331H9.68957Z" fill="white"/>
<path d="M10.001 23.0498L8.82421 23.0542L8.77441 16.0434C8.77248 15.969 8.71471 15.9112 8.64233 15.9112H7.88033C7.7648 15.9112 7.66992 15.8167 7.66992 15.7003V11.4264C7.66992 11.2794 7.79771 11.1639 7.94423 11.1779L9.71399 11.3538C9.80694 11.3643 9.88117 11.4343 9.89815 11.5253L10.0301 12.2956C10.0424 12.3656 10.1024 12.4155 10.1725 12.4155H10.9368C11.0628 12.4155 11.1638 12.5161 11.1638 12.6422V13.3056C11.1638 13.4395 11.2713 13.5472 11.4052 13.5472H12.0601C12.1921 13.5472 12.3016 13.4456 12.3139 13.3135L12.3946 12.51C12.4026 12.44 12.4566 12.3822 12.5266 12.37C12.7973 12.3262 13.0862 12.3411 13.3962 12.4093C13.4662 12.426 13.516 12.4872 13.516 12.5599V13.4028C13.516 13.5157 13.423 13.6084 13.3093 13.6084H12.5947C12.4792 13.6084 12.3843 13.7039 12.3843 13.8194V14.5625C12.3843 14.6911 12.2809 14.7962 12.1532 14.7962H11.3578C11.2464 14.7962 11.1558 14.7051 11.1558 14.594V13.7765C11.1558 13.6688 11.0689 13.5822 10.9612 13.5822H10.2363C10.1208 13.5822 10.0259 13.4868 10.0259 13.3695V12.6343C10.0259 12.4837 9.91224 12.3595 9.76379 12.3455L9.07602 12.2772C8.92941 12.2623 8.80163 12.3761 8.80163 12.5249V15.7397C8.80163 15.8246 8.86972 15.8929 8.95427 15.8929H9.76563C9.90418 15.8929 10.018 16.0066 10.018 16.1449L10.001 23.0498Z" fill="#9A8357"/>
<path d="M15.8825 11.4803V15.7008C15.8825 15.8268 15.7815 15.9282 15.6556 15.9282H14.9594C14.8335 15.9282 14.7325 15.8268 14.7325 15.7008V12.5763C14.7325 12.4504 14.631 12.3498 14.505 12.3498H13.737C13.6068 12.3498 13.5035 12.2422 13.5101 12.1119L13.5368 11.4698C13.5406 11.35 13.6421 11.2529 13.7637 11.2529H15.6556C15.7815 11.2529 15.8825 11.3544 15.8825 11.4803Z" fill="#9A8357"/>
<path d="M14.7339 18.2683L14.74 23.0635L13.5298 23.0508L13.5547 16.0628C13.5547 15.9901 13.6124 15.9325 13.6848 15.9325H14.6099C14.6864 15.9325 14.7503 15.9968 14.7485 16.073L14.7339 18.2683Z" fill="#9A8357"/>
<path d="M12.3799 24.2133C12.5058 24.6738 12.5016 25.0762 12.3676 25.4214L7.77925 25.415C7.67586 25.415 7.59131 25.3299 7.59131 25.2273V24.3843C7.59131 24.2809 7.67586 24.1966 7.77925 24.1966L12.3799 24.2133Z" fill="#AFADAE"/>
<path d="M12.3677 25.4211C12.5016 25.0766 12.5058 24.6733 12.3799 24.2135L15.746 24.1722C15.8616 24.1698 15.9564 24.2629 15.9564 24.3806V25.2604C15.9564 25.3694 15.8676 25.4608 15.7582 25.4585L12.3677 25.4211Z" fill="#8AA5A2"/>
<path d="M15.9134 27.6458C15.9134 27.7364 15.8391 27.8105 15.748 27.8105H7.77327C7.68208 27.8105 7.60791 27.7364 7.60791 27.6458V26.7331C7.60791 26.6418 7.68208 26.5676 7.77327 26.5676H15.748C15.8391 26.5676 15.9134 26.6418 15.9134 26.7331V27.6458Z" fill="#AFADAE"/>
<path d="M12.4069 28.9412L12.4111 30.1374L8.9008 30.1396C8.81812 30.1396 8.75 30.0715 8.75 29.9887V29.0776C8.75 28.9972 8.81574 28.9313 8.89658 28.9313L12.4069 28.9412Z" fill="#AFADAE"/>
<path d="M12.411 30.1376L12.4067 28.942L14.4531 28.9105C14.6203 28.9067 14.759 29.0431 14.759 29.2102V29.8525C14.759 30.0257 14.6185 30.1644 14.4451 30.1621L12.411 30.1376Z" fill="#8AA5A2"/>
</svg>
