<svg width="260" height="133" viewBox="0 0 260 133" fill="none" xmlns="http://www.w3.org/2000/svg">
<path d="M150.294 127.521V132.076H214.054V127.521H150.294Z" fill="#E7E7FE"/>
<path d="M104.749 132.076V127.521H36.4346V132.076H104.749Z" fill="#E7E7FE"/>
<path d="M4.55469 95.6411V91.0865H255.041V95.6411H4.55469Z" fill="white"/>
<path d="M9.10938 54.6506V50.097L232.271 50.096V54.6506H9.10938Z" fill="white"/>
<path d="M9.10938 59.2053V54.6505H232.271V59.2053H9.10938Z" fill="white"/>
<path d="M40.9898 40.9876H22.7725V45.5422H40.9898V40.9876Z" fill="white"/>
<path d="M0 77.4224V68.3141H250.487V77.4224H0Z" fill="white"/>
<path d="M13.6631 50.0969V45.5423H45.5431V50.0969H13.6631Z" fill="white"/>
<path d="M54.6523 50.0969V45.5423H227.716V50.0959L54.6523 50.0969Z" fill="white"/>
<path d="M63.7607 45.5422V36.433H150.294V45.5422H63.7607Z" fill="white"/>
<path d="M127.522 4.55299H91.0859V9.10767H127.522V4.55299Z" fill="white"/>
<path d="M81.9775 22.7705V18.2172H136.631V22.7705H81.9775Z" fill="white"/>
<path d="M68.3154 36.4331V31.8798H150.294V36.4331H68.3154Z" fill="white"/>
<path d="M86.5322 18.217V9.10772H132.076V18.217H86.5322Z" fill="white"/>
<path d="M77.4229 31.8799V22.7705H141.184V31.8799H77.4229Z" fill="white"/>
<path d="M100.195 4.55322V-9.73849e-05H118.413V4.55322H100.195Z" fill="white"/>
<path d="M195.837 22.7705H177.619V18.2172H195.837V22.7705Z" fill="white"/>
<path d="M204.944 27.3252H168.511V22.7705H204.944V27.3252Z" fill="white"/>
<path d="M218.609 36.433L154.849 36.4343V31.8797H218.609V36.433Z" fill="white"/>
<path d="M223.162 40.9875H150.294V36.433H223.162V40.9875Z" fill="white"/>
<path d="M223.162 45.5422H150.294V40.9876H223.162V45.5422Z" fill="white"/>
<path d="M209.626 31.8799H164.082V27.3252H209.626V31.8799Z" fill="white"/>
<path d="M4.38574 63.76H236.824V59.2053H4.38574V63.76Z" fill="white"/>
<path d="M4.55469 81.9773H255.041V77.4225H4.55469V81.9773Z" fill="white"/>
<path d="M0 86.5303H259.596V81.9772H0V86.5303Z" fill="white"/>
<path d="M0 91.0867H259.596V86.5304H0V91.0867Z" fill="white"/>
<path d="M4.38574 68.3142L245.764 68.3131V63.7601H4.38574V68.3142Z" fill="white"/>
<path d="M113.858 122.966H27.3262V127.521H113.858V122.966Z" fill="#E7E7FE"/>
<path d="M91.0857 118.413H54.6523V122.966H91.0857V118.413Z" fill="white"/>
<path d="M118.412 113.858H18.2178V118.413H118.412V113.858Z" fill="white"/>
<path d="M127.522 109.304H13.6631V113.858H127.522V109.304Z" fill="white"/>
<path d="M223.162 122.966H127.521V127.521H223.162V122.966Z" fill="#E7E7FE"/>
<path d="M191.534 118.413H141.185V122.966H191.534V118.413Z" fill="white"/>
<path d="M236.824 113.858H122.967V118.413H236.824V113.858Z" fill="white"/>
<path d="M241.379 109.304H127.521V113.858H241.379V109.304Z" fill="white"/>
<path d="M250.487 104.751H109.303V109.304H250.487V104.751Z" fill="white"/>
<path d="M109.303 104.751H13.6631V109.304H109.303V104.751Z" fill="white"/>
<path d="M104.749 100.196H9.10938V104.75H104.749V100.196Z" fill="white"/>
<path d="M104.749 95.6411H4.55469V100.196H104.749V95.6411Z" fill="white"/>
<path d="M250.487 100.196H104.75V104.75H250.487V100.196Z" fill="white"/>
<path d="M255.042 95.6411H104.75V100.196H255.042V95.6411Z" fill="white"/>
<path d="M59.2057 50.0969H45.543V54.6516H59.2057V50.0969Z" fill="#E7E7FE"/>
<path d="M54.6524 118.413H22.7725V122.966H54.6524V118.413Z" fill="#E7E7FE"/>
<path d="M45.5431 113.858H18.2178V118.413H45.5431V113.858Z" fill="#E7E7FE"/>
<path d="M36.4351 109.304H13.6631V113.858H36.4351V109.304Z" fill="#E7E7FE"/>
<path d="M31.8804 104.751H13.6631V109.304H31.8804V104.751Z" fill="#E7E7FE"/>
<path d="M18.2174 100.196H9.10938V104.75H18.2174V100.196Z" fill="#E7E7FE"/>
<path d="M27.3254 100.196H9.10938V104.75H27.3254V100.196Z" fill="#E7E7FE"/>
<path d="M18.2173 95.6411H4.55469V100.196H18.2173V95.6411Z" fill="#E7E7FE"/>
<path d="M13.6627 91.0865H4.55469V95.6411H13.6627V91.0865Z" fill="#E7E7FE"/>
<path d="M9.10931 86.532L0 86.5304V91.0867H9.10931V86.532Z" fill="#E7E7FE"/>
<path d="M4.55466 81.9773H0V86.5304L4.55466 86.532V81.9773Z" fill="#E7E7FE"/>
<path d="M118.413 118.413H91.0859V122.966H118.413V118.413Z" fill="#E7E7FE"/>
<path d="M141.184 118.413H122.967V122.966H141.184V118.413Z" fill="#E7E7FE"/>
<path d="M118.413 113.858H100.195V118.413H118.413V113.858Z" fill="#E7E7FE"/>
<path d="M132.076 113.858H122.967V118.413H132.076V113.858Z" fill="#E7E7FE"/>
<path d="M127.522 109.304H109.473V113.858H127.522V109.304Z" fill="#E7E7FE"/>
<path d="M227.548 118.413H191.534V122.966H227.548V118.413Z" fill="#E7E7FE"/>
<path d="M236.824 113.858H204.944V118.413H236.824V113.858Z" fill="#E7E7FE"/>
<path d="M241.211 109.304H214.054V113.858H241.211V109.304Z" fill="#E7E7FE"/>
<path d="M250.487 104.751H232.439V109.304H250.487V104.751Z" fill="#E7E7FE"/>
<path d="M250.487 104.751H223.162V109.304H250.487V104.751Z" fill="#E7E7FE"/>
<path d="M250.487 100.196H232.271V104.75H250.487V100.196Z" fill="#E7E7FE"/>
<path d="M255.042 95.6411H236.824V100.196H255.042V95.6411Z" fill="#E7E7FE"/>
<path d="M255.042 91.0865H241.379V95.6411H255.042V91.0865Z" fill="#E7E7FE"/>
<path d="M259.596 86.5304L245.934 86.532V91.0867H259.596V86.5304Z" fill="#E7E7FE"/>
<path d="M259.597 81.9773H250.487V86.532L259.597 86.5304V81.9773Z" fill="#E7E7FE"/>
<path d="M255.042 77.4225H250.487V81.9773H255.042V77.4225Z" fill="#E7E7FE"/>
<path d="M236.825 59.2053H232.271V63.76H236.825V59.2053Z" fill="#E7E7FE"/>
<path d="M59.2057 45.5423H54.6523V50.0969H59.2057V45.5423Z" fill="#E7E7FE"/>
<path d="M59.2057 54.6516H54.6523V59.2053H59.2057V54.6516Z" fill="#E7E7FE"/>
<path d="M68.3154 54.6516H59.2061V63.76H68.3154V54.6516Z" fill="#E7E7FE"/>
<path d="M72.8701 59.2054H68.3154V68.3142H72.8701V59.2054Z" fill="#E7E7FE"/>
<path d="M77.4234 68.3141H72.8701V72.8677H77.4234V68.3141Z" fill="#E7E7FE"/>
<path d="M95.6406 4.55299H91.0859V9.10767H95.6406V4.55299Z" fill="#E7E7FE"/>
<path d="M104.75 31.8797H100.195V36.4343H104.75V31.8797Z" fill="#E7E7FE"/>
<path d="M109.303 36.433L104.75 36.4344V40.9875H109.303V36.433Z" fill="#E7E7FE"/>
<path d="M200.518 91.0865V95.6411H205.072V91.0865H200.518Z" fill="#E7E7FE"/>
<path d="M205.072 86.532V91.0867H209.626V86.532H205.072Z" fill="#E7E7FE"/>
<path d="M9.10934 68.3141H4.55469V72.8677H9.10934V68.3141Z" fill="#E7E7FE"/>
<path d="M9.10934 77.4225H4.55469V81.9773H9.10934V77.4225Z" fill="#E7E7FE"/>
<path d="M122.967 104.751H113.857V109.304H122.967V104.751Z" fill="#E7E7FE"/>
<path d="M63.7607 50.0969H59.2061V54.6516H63.7607V50.0969Z" fill="#E7E7FE"/>
<path d="M127.521 68.3141H145.739V72.8677H127.521V68.3141Z" fill="#E7E7FE"/>
<path d="M118.412 72.8677H136.631V77.4224H118.412V72.8677Z" fill="#E7E7FE"/>
<path d="M154.849 77.4225H163.957V81.9773H154.849V77.4225Z" fill="#E7E7FE"/>
<path d="M113.857 77.4225H132.076V81.9773H113.857V77.4225Z" fill="#E7E7FE"/>
<path d="M109.303 77.4225H113.857V86.532H109.303V77.4225Z" fill="#E7E7FE"/>
<path d="M104.75 81.9773H109.303V86.532H104.75V81.9773Z" fill="#E7E7FE"/>
<path d="M163.956 81.9773H168.511V86.532H163.956V81.9773Z" fill="#E7E7FE"/>
<path d="M100.195 86.532H104.75V91.0867H100.195V86.532Z" fill="#E7E7FE"/>
<path d="M40.9893 91.0865H45.5426V95.6411H40.9893V91.0865Z" fill="#E7E7FE"/>
<path d="M45.543 95.6411H50.0977V100.196H45.543V95.6411Z" fill="#E7E7FE"/>
<path d="M59.2061 77.4225H63.7607V81.9773H59.2061V77.4225Z" fill="#E7E7FE"/>
<path d="M145.739 72.8677H154.849V77.4224H145.739V72.8677Z" fill="#E7E7FE"/>
<path d="M159.402 36.4344H141.185V40.9875H159.402V36.4344Z" fill="#E7E7FE"/>
<path d="M159.402 31.8797H154.849V36.4343H159.402V31.8797Z" fill="#E7E7FE"/>
<path d="M168.511 40.9876H150.294V45.5422H168.511V40.9876Z" fill="#E7E7FE"/>
<path d="M173.064 45.5423H168.511V54.6516H173.064V45.5423Z" fill="#E7E7FE"/>
<path d="M177.619 50.0969H173.064V54.6516H177.619V50.0969Z" fill="#E7E7FE"/>
<path d="M182.174 54.6516H177.619V59.2053H182.174V54.6516Z" fill="#E7E7FE"/>
<path d="M250.487 68.3142H245.934V81.9773H250.487V68.3142Z" fill="#E7E7FE"/>
<path d="M245.934 63.7601H236.824V68.3142H245.934V63.7601Z" fill="#E7E7FE"/>
<path d="M245.934 68.3141H241.379V72.8677H245.934V68.3141Z" fill="#E7E7FE"/>
<path d="M4.55466 68.3141H0V77.4224H4.55466V68.3141Z" fill="#E7E7FE"/>
<path d="M8.9404 59.2054H4.38574V68.3142H8.9404V59.2054Z" fill="#E7E7FE"/>
<path d="M13.6627 50.0969H9.10938V59.2053H13.6627V50.0969Z" fill="#E7E7FE"/>
<path d="M150.294 31.8797H145.739V36.4343L150.294 36.433V31.8797Z" fill="#E7E7FE"/>
<path d="M141.184 22.7705H136.631V27.3252H141.184V22.7705Z" fill="#E7E7FE"/>
<path d="M72.8701 31.8798H68.3154V36.4331H72.8701V31.8798Z" fill="#E7E7FE"/>
<path d="M27.3258 40.9876H22.7725V45.5422H27.3258V40.9876Z" fill="#E7E7FE"/>
<path d="M209.626 27.3252H205.072V31.8799H209.626V27.3252Z" fill="#E7E7FE"/>
<path d="M227.717 45.5424H223.162V50.0959H227.717V45.5424Z" fill="#E7E7FE"/>
<path d="M132.076 9.10768H127.521V13.6624H132.076V9.10768Z" fill="#E7E7FE"/>
<path d="M163.956 36.4344H159.401V40.9875H163.956V36.4344Z" fill="#E7E7FE"/>
<path d="M168.511 45.5423H154.849V50.0969H168.511V45.5423Z" fill="#E7E7FE"/>
</svg>
