<svg width="256" height="89" viewBox="0 0 256 89" fill="none" xmlns="http://www.w3.org/2000/svg">
<path d="M236.826 47.8198V43.2652H13.6641V47.8198H236.826Z" fill="white"/>
<path d="M241.381 52.3745V47.8198H13.6641V52.3745H241.381Z" fill="white"/>
<path d="M209.499 34.1572H223.163V38.7119H209.499V34.1572Z" fill="white"/>
<path d="M250.489 66.0371V61.4824H18.2188V66.0371H250.489Z" fill="white"/>
<path d="M250.488 70.5933V66.0373H22.7725V70.5919L250.488 70.5933Z" fill="white"/>
<path d="M232.271 43.2651V38.7118H200.391V43.2651H232.271Z" fill="white"/>
<path d="M191.282 43.2651V38.7118H18.2188V43.2651H191.282Z" fill="white"/>
<path d="M182.174 38.7119V29.6026H95.6416V38.7119H182.174Z" fill="white"/>
<path d="M122.969 2.27738H150.294V6.83203H122.969V2.27738Z" fill="white"/>
<path d="M163.957 15.9399V11.3853H109.305V15.9399H163.957Z" fill="white"/>
<path d="M159.402 11.3849V6.83158H113.859V11.3862L159.402 11.3849Z" fill="white"/>
<path d="M168.511 20.4946V15.94H104.75V20.4946H168.511Z" fill="white"/>
<path d="M173.064 25.0488V20.4942H95.6416V25.0488H173.064Z" fill="white"/>
<path d="M50.0986 15.9399H68.3153V11.3853H50.0986V15.9399Z" fill="white"/>
<path d="M9.10938 88.8091H27.3271V84.2557H9.10938V88.8091Z" fill="white"/>
<path d="M4.55469 66.0371H13.6635V61.4824H4.55469V66.0371Z" fill="white"/>
<path d="M245.934 47.1182H255.043V42.5648H245.934V47.1182Z" fill="white"/>
<path d="M0 88.8091H4.55413V84.2557H0V88.8091Z" fill="white"/>
<path d="M27.3271 19.8198H31.8807V15.2652H27.3271V19.8198Z" fill="white"/>
<path d="M182.173 25.0479H186.728V20.4945H182.173V25.0479Z" fill="white"/>
<path d="M104.75 4.55469H109.303V3.23145e-05H104.75V4.55469Z" fill="white"/>
<path d="M27.3271 79.7012H95.6414V75.1465H27.3271V79.7012Z" fill="white"/>
<path d="M100.196 79.7012H241.38V75.1465H100.196V79.7012Z" fill="white"/>
<path d="M31.8809 84.2559H91.0869V79.7012H31.8809V84.2559Z" fill="#E7E7FE"/>
<path d="M36.4355 88.8091H86.5327V84.2557H36.4355V88.8091Z" fill="#E7E7FE"/>
<path d="M204.944 84.2559H241.38V79.7012H204.944V84.2559Z" fill="#E7E7FE"/>
<path d="M209.499 88.8091H236.826V84.2557H209.499V88.8091Z" fill="#E7E7FE"/>
<path d="M100.196 84.2559H200.391V79.7012H100.196V84.2559Z" fill="#E7E7FE"/>
<path d="M104.75 88.8091H191.282V84.2557H104.75V88.8091Z" fill="#E7E7FE"/>
<path d="M40.9902 20.4946H77.4246V15.94H40.9902V20.4946Z" fill="white"/>
<path d="M27.3271 29.6025H177.619V25.0479H27.3271V29.6025Z" fill="white"/>
<path d="M22.7725 34.1572H95.6414V29.6026H22.7725V34.1572Z" fill="white"/>
<path d="M22.7725 38.7119H95.6414V34.1572H22.7725V38.7119Z" fill="white"/>
<path d="M36.4355 25.0475L86.5327 25.0488V20.4942H36.4355V25.0475Z" fill="white"/>
<path d="M245.934 56.9277H13.6641V52.3744H245.934V56.9277Z" fill="white"/>
<path d="M245.933 75.1465H22.7725V70.5918H245.933V75.1465Z" fill="white"/>
<path d="M250.489 61.4824H18.2188V56.9278H250.489V61.4824Z" fill="white"/>
<path d="M182.174 43.2665L200.391 43.2652V47.8198H182.174V43.2665Z" fill="#E7E7FE"/>
<path d="M182.174 38.7119H191.282V43.2653L182.174 43.2666V38.7119Z" fill="#E7E7FE"/>
<path d="M168.511 47.8198H177.619V52.3745H168.511V47.8198Z" fill="#E7E7FE"/>
<path d="M163.956 52.3745H168.511V56.9292H163.956V52.3745Z" fill="#E7E7FE"/>
<path d="M159.401 56.9291H163.956V61.4824H159.401V56.9291Z" fill="#E7E7FE"/>
<path d="M177.619 43.2665H182.174V52.3745H177.619V43.2665Z" fill="#E7E7FE"/>
<path d="M104.75 25.0488H86.5322V29.6035H104.75V25.0488Z" fill="#E7E7FE"/>
<path d="M104.75 20.4942H95.6416V25.0488H104.75V20.4942Z" fill="#E7E7FE"/>
<path d="M113.859 29.6039L95.6416 29.6026V34.1572H113.859V29.6039Z" fill="#E7E7FE"/>
<path d="M118.414 34.1573H113.859V43.2666H118.414V34.1573Z" fill="#E7E7FE"/>
<path d="M122.969 38.7119H118.414V43.2666H122.969V38.7119Z" fill="#E7E7FE"/>
<path d="M127.522 43.2665H122.969V47.8198H127.522V43.2665Z" fill="#E7E7FE"/>
<path d="M127.522 2.27738H122.969V6.83203H127.522V2.27738Z" fill="#E7E7FE"/>
<path d="M163.956 11.3853H159.401V15.9399H163.956V11.3853Z" fill="#E7E7FE"/>
<path d="M177.619 25.0479L173.064 25.0492V29.6025H177.619V25.0479Z" fill="#E7E7FE"/>
<path d="M232.271 38.7119H227.717V43.2666L232.271 43.2653V38.7119Z" fill="#E7E7FE"/>
<path d="M27.3271 29.6026H22.7725V34.1572H27.3271V29.6026Z" fill="#E7E7FE"/>
<path d="M40.9902 20.4945H36.4355V25.0479H40.9902V20.4945Z" fill="#E7E7FE"/>
<path d="M145.739 29.6026H141.185V34.1572H145.739V29.6026Z" fill="#E7E7FE"/>
<path d="M150.294 34.1572H145.739V38.7119H150.294V34.1572Z" fill="#E7E7FE"/>
<path d="M31.8809 43.2652V47.8198H36.435V43.2652H31.8809Z" fill="#E7E7FE"/>
<path d="M125.246 66.0386V70.5933H129.799V66.0386H125.246Z" fill="#E7E7FE"/>
<path d="M109.305 25.0488H104.75V29.6035H109.305V25.0488Z" fill="#E7E7FE"/>
<path d="M113.859 34.1572H100.196V38.7119H113.859V34.1572Z" fill="#E7E7FE"/>
<path d="M40.9895 75.1465H27.3271V79.7012H40.9895V75.1465Z" fill="#E7E7FE"/>
<path d="M31.8807 70.5918H22.7725V75.1465H31.8807V70.5918Z" fill="#E7E7FE"/>
<path d="M27.3271 66.0371H22.7725V70.5918H27.3271V66.0371Z" fill="#E7E7FE"/>
<path d="M22.773 61.4824H18.2188V66.0371H22.773V61.4824Z" fill="#E7E7FE"/>
<path d="M241.381 75.1465H227.717V79.7012H241.381V75.1465Z" fill="#E7E7FE"/>
<path d="M245.934 70.5918H236.826V75.1465H245.934V70.5918Z" fill="#E7E7FE"/>
<path d="M250.488 66.0373H245.934V70.5919L250.488 70.5933V66.0373Z" fill="#E7E7FE"/>
<path d="M104.75 70.5918H91.0869V75.1465H104.75V70.5918Z" fill="#E7E7FE"/>
<path d="M209.499 70.5918H195.836V75.1465H209.499V70.5918Z" fill="#E7E7FE"/>
<path d="M100.196 66.0371H95.6416V70.5918H100.196V66.0371Z" fill="#E7E7FE"/>
<path d="M95.6422 75.1465H81.9795V79.7012H95.6422V75.1465Z" fill="#E7E7FE"/>
<path d="M113.859 75.1465H100.196V79.7012H113.859V75.1465Z" fill="#E7E7FE"/>
<path d="M214.053 75.1465H191.281V79.7012H214.053V75.1465Z" fill="#E7E7FE"/>
<path d="M72.8701 43.2665H81.979V47.8198H72.8701V43.2665Z" fill="#E7E7FE"/>
<path d="M54.6523 43.2665H63.7613V47.8198H54.6523V43.2665Z" fill="#E7E7FE"/>
<path d="M81.9795 47.8198H86.5328V52.3745H81.9795V47.8198Z" fill="#E7E7FE"/>
<path d="M45.5439 52.3745H50.0986V56.9292H45.5439V52.3745Z" fill="#E7E7FE"/>
<path d="M50.0986 47.8198H59.2069V52.3745H50.0986V47.8198Z" fill="#E7E7FE"/>
<path d="M63.7617 38.7119H77.4246V43.2666H63.7617V38.7119Z" fill="#E7E7FE"/>
</svg>
