<svg width="233" height="64" viewBox="0 0 233 64" fill="none" xmlns="http://www.w3.org/2000/svg">
<path d="M0 63.7598H218.607V59.2051H0V63.7598Z" fill="#E7E7FE"/>
<path d="M118.412 18.2173H145.739V13.6626H118.412V18.2173Z" fill="white"/>
<path d="M118.411 13.6626H141.183V9.10926H118.41L118.411 13.6626Z" fill="white"/>
<path d="M122.965 9.10938H136.629V4.5547H122.965V9.10938Z" fill="white"/>
<path d="M127.52 4.55469H136.629V3.23145e-05H127.52V4.55469Z" fill="white"/>
<path d="M113.857 22.772H150.292V18.2173H113.857V22.772Z" fill="white"/>
<path d="M100.194 31.8799H163.956V27.3252H100.194V31.8799Z" fill="white"/>
<path d="M109.303 27.3252H154.847V22.7719H109.303V27.3252Z" fill="white"/>
<path d="M95.6396 36.4346H168.509V31.8799H95.6396V36.4346Z" fill="white"/>
<path d="M91.0869 40.9893H173.064V36.4346H91.0869V40.9893Z" fill="white"/>
<path d="M86.5322 45.5425H177.619V40.9891H86.5322V45.5425Z" fill="white"/>
<path d="M59.2051 27.3252H81.9771V22.7719H59.2051V27.3252Z" fill="white"/>
<path d="M63.7598 22.772H81.9771V18.2173H63.7598V22.772Z" fill="white"/>
<path d="M68.3145 18.2173H77.4225V13.6626H68.3145V18.2173Z" fill="white"/>
<path d="M50.0977 31.8799H86.5323V27.3252H50.0977V31.8799Z" fill="white"/>
<path d="M45.543 36.4346H91.087V31.8799H45.543V36.4346Z" fill="white"/>
<path d="M36.4346 40.9893H91.0866V36.4346H36.4346V40.9893Z" fill="white"/>
<path d="M31.8799 45.5425H86.5319V40.9891H31.8799V45.5425Z" fill="white"/>
<path d="M18.2168 50.0972H104.749V45.5425H18.2168V50.0972Z" fill="white"/>
<path d="M104.749 50.0972H200.389V45.5425H104.749V50.0972Z" fill="white"/>
<path d="M109.303 54.6519H209.499V50.0972H109.303V54.6519Z" fill="white"/>
<path d="M109.303 59.2051H214.053V54.6517H109.303V59.2051Z" fill="#E7E7FE"/>
<path d="M13.6621 54.6519H109.302V50.0972H13.6621V54.6519Z" fill="white"/>
<path d="M9.10742 59.2051H109.302V54.6517H9.10742V59.2051Z" fill="#E7E7FE"/>
<path d="M104.75 36.4346H91.0869V40.9893H104.75V36.4346Z" fill="#E7E7FE"/>
<path d="M104.749 31.8799H95.6396V36.4346H104.749V31.8799Z" fill="#E7E7FE"/>
<path d="M113.857 40.9891H109.303V45.5425H113.857V40.9891Z" fill="#E7E7FE"/>
<path d="M118.412 45.5425H113.857V50.0972H118.412V45.5425Z" fill="#E7E7FE"/>
<path d="M122.965 9.10926H118.41L118.411 13.6626H122.965V9.10926Z" fill="#E7E7FE"/>
<path d="M154.847 22.7719H150.292V27.3252H154.847V22.7719Z" fill="#E7E7FE"/>
<path d="M173.116 36.4346H168.562V40.9893H173.116V36.4346Z" fill="#E7E7FE"/>
<path d="M141.184 31.8799H136.629V36.4346H141.184V31.8799Z" fill="#E7E7FE"/>
<path d="M77.4225 40.9891H72.8691V45.5425H77.4225V40.9891Z" fill="#E7E7FE"/>
<path d="M50.0977 31.8799H45.543V36.4346H50.0977V31.8799Z" fill="#E7E7FE"/>
<path d="M63.7597 22.7719H59.2051V27.3252H63.7597V22.7719Z" fill="#E7E7FE"/>
<path d="M45.5421 50.0972H13.6621V54.6519H45.5421V50.0972Z" fill="#E7E7FE"/>
<path d="M109.302 36.4345H104.749V45.5425H109.302V36.4345Z" fill="#E7E7FE"/>
<path d="M177.619 50.0972H150.292V54.6519H177.619V50.0972Z" fill="#E7E7FE"/>
<path d="M77.5917 50.0972H59.2051V54.6519H77.5917V50.0972Z" fill="#E7E7FE"/>
<path d="M168.509 45.5425H154.847V50.0972H168.509V45.5425Z" fill="#E7E7FE"/>
<path d="M200.389 36.4346H186.727V40.9893H200.389V36.4346Z" fill="white"/>
<path d="M209.499 36.4346H204.944V40.9893H209.499V36.4346Z" fill="white"/>
<path d="M45.5426 22.7719H40.9893V27.3252H45.5426V22.7719Z" fill="white"/>
<path d="M118.412 3.23145e-05H113.857V4.55469H118.412V3.23145e-05Z" fill="white"/>
<path d="M109.302 13.6626H100.194V18.2173H109.302V13.6626Z" fill="white"/>
<path d="M232.269 59.2051H223.161V63.7598H232.269V59.2051Z" fill="white"/>
<path d="M27.3248 36.4346H18.2168V40.9893H27.3248V36.4346Z" fill="white"/>
<path d="M36.4346 45.5425V50.0972H41.1572V45.5425H36.4346Z" fill="#E7E7FE"/>
</svg>
