<svg width="68" height="41" viewBox="0 0 68 41" fill="none" xmlns="http://www.w3.org/2000/svg">
<path d="M22.668 4.53174H31.7346V8.40813e-06H22.668V4.53174Z" fill="white"/>
<path d="M40.7998 18.1323H58.9331V13.599H40.7998V18.1323Z" fill="white"/>
<path d="M68.0013 27.1985V31.7334H0V27.1985H68.0013Z" fill="white"/>
<path d="M63.4665 31.7334V36.2656H4.5332V31.7334H63.4665Z" fill="#E7E7FE"/>
<path d="M58.7649 36.2657V40.7991H13.5996V36.2657H58.7649Z" fill="#E7E7FE"/>
<path d="M40.7997 9.06685V13.5991H9.06641V9.06685H40.7997Z" fill="white"/>
<path d="M40.7997 13.599V18.1323H9.06641V13.599H40.7997Z" fill="white"/>
<path d="M54.4016 9.06685V13.5991H45.335V9.06685H54.4016Z" fill="white"/>
<path d="M36.2663 4.53147V9.06641H13.5996V4.53147H36.2663Z" fill="white"/>
<path d="M4.5332 22.6665H63.4665V18.1321H4.5332V22.6665Z" fill="white"/>
<path d="M4.5332 27.1982H63.4665V22.6665H4.5332V27.1982Z" fill="white"/>
<path d="M22.668 13.599H31.7346V18.1323H22.668V13.599Z" fill="#E7E7FE"/>
<path d="M13.5996 22.6665H18.1329V27.1982H13.5996V22.6665Z" fill="#E7E7FE"/>
<path d="M8.96094 9.06685H13.4956V13.5991H8.96094V9.06685Z" fill="#E7E7FE"/>
<path d="M44.9609 18.1321H49.4956V22.6665H44.9609V18.1321Z" fill="#E7E7FE"/>
<path d="M18.1338 18.1321H27.2005V22.6665H18.1338V18.1321Z" fill="#E7E7FE"/>
<path d="M58.9336 22.6665H63.4669V27.1982H58.9336V22.6665Z" fill="#E7E7FE"/>
<path d="M40.7998 27.1985H68.0011V31.7334H40.7998V27.1985Z" fill="#E7E7FE"/>
<path d="M0 27.1985H9.06667V31.7334H0V27.1985Z" fill="#E7E7FE"/>
<path d="M31.7344 9.06685H40.7997V13.5991H31.7344V9.06685Z" fill="#E7E7FE"/>
</svg>
