<svg width="215" height="129" viewBox="0 0 215 129" fill="none" xmlns="http://www.w3.org/2000/svg">
<path d="M150.473 28.6597H171.969V21.4958H150.473V28.6597Z" fill="white"/>
<path d="M100.315 7.16406H121.811V0.000185288H100.315V7.16406Z" fill="white"/>
<path d="M71.6528 21.4961H136.141V14.3301H71.6528V21.4961Z" fill="white"/>
<path d="M64.4883 28.6597H136.142V21.4958H64.4883V28.6597Z" fill="white"/>
<path d="M50.1577 35.8257H179.133V28.6597H50.1577V35.8257Z" fill="white"/>
<path d="M42.5938 42.9917H179.134V35.8257H42.5938V42.9917Z" fill="white"/>
<path d="M28.6597 50.1558H193.465V42.9919H28.6597V50.1558Z" fill="white"/>
<path d="M7.16309 100.315H200.63V93.1494H7.16309V100.315Z" fill="white"/>
<path d="M14.3291 107.479H193.464V100.315H14.3291V107.479Z" fill="white"/>
<path d="M21.4951 114.647H179.132V107.479H21.4951V114.647Z" fill="#E7E7FE"/>
<path d="M35.8257 121.813H100.315V114.647H35.8257V121.813Z" fill="#E7E7FE"/>
<path d="M107.479 121.813H171.969V114.647H107.479V121.813Z" fill="#E7E7FE"/>
<path d="M50.1577 128.978H93.1495V121.814H50.1577V128.978Z" fill="#E7E7FE"/>
<path d="M114.646 128.978H164.803V121.814H114.646V128.978Z" fill="#E7E7FE"/>
<path d="M21.4951 57.3218H193.464V50.1558H21.4951V57.3218Z" fill="white"/>
<path d="M14.3291 64.4878H200.63V57.3218H14.3291V64.4878Z" fill="white"/>
<path d="M7.16309 71.6538H207.794V64.4878H7.16309V71.6538Z" fill="white"/>
<path d="M7.16309 78.8174H214.96V71.6535H7.16309V78.8174Z" fill="white"/>
<path d="M0 85.9834H207.795V78.8174H0V85.9834Z" fill="white"/>
<path d="M0 93.1494H207.795V85.9834H0V93.1494Z" fill="white"/>
<path d="M128.975 7.1641V14.3301H78.8169V7.1641H128.975Z" fill="white"/>
<path d="M128.975 35.8257H157.637V42.9917H128.975V35.8257Z" fill="#E7E7FE"/>
<path d="M136.141 28.6597H150.473V35.8257H136.141V28.6597Z" fill="#E7E7FE"/>
<path d="M121.812 42.9919H128.975V57.3218H121.812V42.9919Z" fill="#E7E7FE"/>
<path d="M114.646 50.1558H121.811V57.3218H114.646V50.1558Z" fill="#E7E7FE"/>
<path d="M107.479 57.3218H114.646V64.4878H107.479V57.3218Z" fill="#E7E7FE"/>
<path d="M128.975 42.9919H136.141V50.1558H128.975V42.9919Z" fill="#E7E7FE"/>
<path d="M14.3291 100.315H57.3209V107.479H14.3291V100.315Z" fill="#E7E7FE"/>
<path d="M7.16309 93.1494H35.825V100.315H7.16309V93.1494Z" fill="#E7E7FE"/>
<path d="M0 85.9834H14.3299V93.1494H0V85.9834Z" fill="#E7E7FE"/>
<path d="M143.307 100.315H193.464V107.479H143.307V100.315Z" fill="#E7E7FE"/>
<path d="M171.969 93.1494H200.631V100.315H171.969V93.1494Z" fill="#E7E7FE"/>
<path d="M186.298 85.9834H207.794V93.1494H186.298V85.9834Z" fill="#E7E7FE"/>
<path d="M85.9829 57.3218H100.315V64.4878H85.9829V57.3218Z" fill="#E7E7FE"/>
<path d="M57.3223 57.3218H71.6542V64.4878H57.3223V57.3218Z" fill="#E7E7FE"/>
<path d="M100.315 64.4878H107.479V71.6538H100.315V64.4878Z" fill="#E7E7FE"/>
<path d="M42.9917 71.6535H50.1577V78.8174H42.9917V71.6535Z" fill="#E7E7FE"/>
<path d="M50.1577 28.6597H57.3216V35.8257H50.1577V28.6597Z" fill="#E7E7FE"/>
<path d="M21.4951 50.1558H28.659V57.3218H21.4951V50.1558Z" fill="#E7E7FE"/>
<path d="M164.803 21.4958H171.969V28.6597H164.803V21.4958Z" fill="#E7E7FE"/>
<path d="M186.298 42.9919H193.464V50.1558H186.298V42.9919Z" fill="#E7E7FE"/>
<path d="M78.8169 7.1641H85.9829V14.3301H78.8169V7.1641Z" fill="#E7E7FE"/>
<path d="M143.307 64.563H150.473V71.729H143.307V64.563Z" fill="#E7E7FE"/>
<path d="M136.141 71.6535H143.307V78.8174H136.141V71.6535Z" fill="#E7E7FE"/>
<path d="M71.6528 93.1494H78.8168V100.315H71.6528V93.1494Z" fill="#E7E7FE"/>
<path d="M50.1577 64.4878H64.4876V71.6538H50.1577V64.4878Z" fill="#E7E7FE"/>
<path d="M71.6528 50.1558H93.1488V57.3218H71.6528V50.1558Z" fill="#E7E7FE"/>
</svg>
