<svg width="50" height="48" viewBox="0 0 50 48" fill="none" xmlns="http://www.w3.org/2000/svg">
<path d="M45.14 15.2988C45.1015 15.2504 45.0717 15.192 45.0493 15.1237" stroke="#EFD180" stroke-miterlimit="10"/>
<path d="M45.0502 15.1242L45.0375 9.92798C45.0338 9.8218 44.9491 9.73712 44.8429 9.73712H43.3855C43.2907 9.73712 43.2162 9.66254 43.2162 9.569V8.17611C43.2162 8.06867 43.1327 7.98145 43.0253 7.98145H41.506C41.3897 7.98145 41.2962 7.88792 41.2962 7.77163V6.32058C41.2962 6.18659 41.19 6.08042 41.056 6.08042H39.744C39.6024 6.08042 39.4862 5.96413 39.4862 5.8213V4.47012C39.4862 4.36015 39.3977 4.26914 39.2877 4.26282L37.8619 4.20468C37.7292 4.19836 37.6231 4.0884 37.6231 3.95189V2.66263C37.6231 2.55266 37.5346 2.46165 37.4221 2.45533L32.375 2.24805C32.1943 2.2392 32.0514 2.09004 32.0514 1.91182V0.829859C32.0514 0.647847 31.9061 0.499954 31.7253 0.499954H17.3729C17.2717 0.499954 17.1883 0.580858 17.1807 0.680712L17.1226 2.13176C17.1175 2.2708 17.0038 2.38076 16.8609 2.38076H11.8493C11.7305 2.38076 11.6293 2.47556 11.6268 2.59564L11.5712 3.93293C11.5649 4.04921 11.4713 4.14021 11.355 4.14021H9.99754C9.85471 4.14021 9.73842 4.2565 9.73842 4.39933V5.85922C9.73842 5.97298 9.64489 6.06399 9.53113 6.06399H8.21533C8.07629 6.06399 7.96379 6.17775 7.96379 6.32058V7.75772C7.96379 7.90434 7.83993 8.02063 7.69457 8.01305L6.29534 7.9587C6.17906 7.95238 6.08172 8.04591 6.08172 8.15966V9.50707C6.08172 9.62336 5.98693 9.71689 5.87317 9.71689H4.37156C4.25781 9.71689 4.16301 9.81169 4.16301 9.92545V14.8878C4.16301 15.0913 3.99869 15.2569 3.79392 15.2569H0.682018C0.5809 15.2569 0.5 15.3378 0.5 15.4377V31.9174C0.5 31.9958 0.565724 32.0602 0.642827 32.0602H3.97973C4.11245 32.0602 4.21863 32.1677 4.21863 32.3004V37.4271C4.21863 37.5408 4.31342 37.6344 4.42591 37.6344H7.59092C7.77799 37.6344 7.93093 37.7899 7.92081 37.9782L7.869 39.2409C7.86268 39.361 7.96 39.4583 8.08008 39.4583H9.44012C9.60949 39.4583 9.74726 39.5973 9.74726 39.7655V41.1167C9.74726 41.2266 9.83574 41.3176 9.94571 41.3239L11.3323 41.3796C11.4903 41.3859 11.6129 41.5148 11.6129 41.6741V42.9798C11.6129 43.1213 11.7305 43.2389 11.872 43.2389H13.2877C13.4115 43.2389 13.5089 43.3349 13.5089 43.455V44.8315C13.5089 44.9478 13.6024 45.0426 13.7187 45.0426H16.9937C17.1036 45.0426 17.1946 45.1336 17.1946 45.2473V46.6908C17.1946 46.8109 17.292 46.9082 17.412 46.9082H31.8226C31.9351 46.9082 32.0287 46.8147 32.0287 46.7009V45.2815C32.0287 45.1525 32.1361 45.0451 32.2663 45.0451H35.4503C35.5918 45.0451 35.7056 44.9351 35.7119 44.7923L35.7663 43.474C35.7738 43.3261 35.8939 43.2098 36.0418 43.2098H37.3905C37.5093 43.2098 37.6091 43.1125 37.6167 42.9924L37.6711 41.6576C37.6787 41.492 37.8177 41.3593 37.982 41.3593H39.1942C39.3787 41.3593 39.5279 41.2114 39.5279 41.0256V39.7023C39.5279 39.5784 39.6252 39.4811 39.7478 39.4811H41.1154C41.2342 39.4811 41.3316 39.3837 41.3316 39.2637V37.8708C41.3316 37.7418 41.4352 37.6382 41.5654 37.6382H44.8265C44.9465 37.6382 45.0439 37.5408 45.0439 37.4208V32.2423C45.0439 32.1614 45.1121 32.0931 45.193 32.0931H48.5906C48.6778 32.0931 48.7461 32.0248 48.7461 31.9414V15.4478C48.7461 15.3568 48.674 15.286 48.5843 15.286L45.1399 15.2986" stroke="#808080" stroke-miterlimit="10"/>
<path d="M45.0503 15.1237C44.9759 15.2367 44.9014 15.2913 44.8331 15.2913C44.0523 15.295 43.2753 15.3211 42.502 15.3633" stroke="#705201" stroke-miterlimit="10"/>
<path d="M42.5013 15.3623L41.4975 15.3071C41.3994 15.301 41.3247 15.2238 41.3247 15.1294V9.9473C41.3247 9.82474 41.2254 9.72301 41.1016 9.72301H39.648C39.5499 9.72301 39.4702 9.64212 39.4702 9.54529V8.12597C39.4702 8.00953 39.3722 7.91637 39.2558 7.91637H37.9369C37.8205 7.91637 37.7237 7.82444 37.7139 7.70801L37.595 6.25069C37.5839 6.14161 37.4932 6.05703 37.3866 6.05703H32.256C32.1432 6.05703 32.0488 5.96633 32.0488 5.85357L32.055 2.89236" stroke="#806F01" stroke-miterlimit="10"/>
<path d="M32.0556 2.89259C32.0207 2.58825 31.8929 2.4326 31.6699 2.43028C26.9086 2.34549 22.1542 2.34549 17.4022 2.43028C17.2953 2.4326 17.2106 2.5174 17.2106 2.62427L17.1885 6.03467" stroke="#7F765D" stroke-miterlimit="10"/>
<path d="M17.1879 6.03521C17.1462 6.09408 17.0777 6.11228 16.9771 6.08981" stroke="#806F01" stroke-miterlimit="10"/>
<path d="M16.9777 6.0888L11.8665 6.12087C11.7596 6.12087 11.6719 6.20854 11.6719 6.31544V7.69884C11.6719 7.83568 11.5628 7.94473 11.426 7.94473H9.91645C9.80741 7.94473 9.71653 8.03559 9.71653 8.14678V9.58363C9.71653 9.66488 9.64811 9.7333 9.56686 9.7333H8.13215C8.02204 9.7333 7.93437 9.82096 7.93437 9.93108V15.0092C7.93437 15.1877 7.78898 15.3331 7.61044 15.3331H4.52722C4.36472 15.3331 4.23535 15.4625 4.23535 15.625V31.7916C4.23535 31.9082 4.32622 31.998 4.44382 32.0012L6.08808 32.0439" stroke="#7F765D" stroke-miterlimit="10"/>
<path d="M6.08691 32.0445L7.62044 32.0703C7.76912 32.074 7.88831 32.1968 7.88831 32.3455V37.4179C7.88831 37.5531 7.99891 37.6637 8.1353 37.6637H9.54963C9.66391 37.6637 9.76098 37.751 9.77081 37.8652L9.88386 39.2636C9.89369 39.3963 10.0043 39.5007 10.137 39.5007H11.4026C11.5353 39.5007 11.6422 39.6076 11.6422 39.7404V40.9323C11.6422 41.1596 11.8241 41.3402 12.0514 41.3402H16.9223C17.0452 41.3402 17.146 41.441 17.146 41.5639V43.0704C17.146 43.1674 17.2271 43.2485 17.3242 43.2485H31.669C31.8742 43.2485 32.0364 43.0728 32.0155 42.8701C31.9811 42.483 32.0032 42.1021 32.0905 41.7224C32.1064 41.6548 32.1654 41.6032 32.2367 41.5958L37.3275 41.1817C37.4517 41.1719 37.5487 41.0785 37.5623 40.9556L37.6655 39.9087C37.6814 39.7404 37.8141 39.6076 37.9849 39.5917L39.1449 39.4971C39.301 39.4848 39.4239 39.3643 39.4398 39.2083L39.5492 38.0815C39.5701 37.9033 39.7089 37.7669 39.8871 37.751L41.079 37.6551C41.2253 37.644 41.3346 37.5212 41.3346 37.3762V32.4168C41.3346 32.3062 41.4219 32.2128 41.5361 32.2067L43.0095 32.1256" stroke="#806F01" stroke-miterlimit="10"/>
<path d="M43.0093 32.126L44.9329 32.044C44.9913 32.0415 45.0372 31.9956 45.0372 31.9372L45.1403 15.2988" stroke="#705201" stroke-miterlimit="10"/>
<path d="M42.5015 15.3639C42.9258 15.4894 43.1399 15.8621 43.1473 16.4771C43.1952 21.0309 43.1891 24.624 43.1337 27.2502C43.1337 27.3412 43.1559 28.1543 43.1977 29.6894C43.2211 30.5259 43.1596 31.3377 43.0107 32.125" stroke="#EFC001" stroke-miterlimit="10"/>
<path d="M32.0551 2.89289C31.3035 3.0195 30.6658 3.31338 30.1408 3.77801C30.0502 3.85468 29.9363 3.89766 29.8167 3.89417C26.6688 3.79079 23.5302 4.04285 20.3974 4.14391C19.9607 4.15669 19.582 4.1985 19.2637 4.26936C19.1894 4.28911 19.1278 4.34139 19.1046 4.41224C19.0465 4.58067 18.9629 4.89778 18.849 5.36474C18.6748 6.08027 17.7932 6.11976 17.188 6.03496M6.0879 32.0439C5.81493 29.4048 5.73827 27.5103 5.85791 26.3661C6.0426 24.5494 6.06583 22.7164 5.92644 20.8602C5.89972 20.5036 5.93574 19.3281 6.02867 17.3337C6.03564 17.2129 6.12391 17.1095 6.24239 17.0897L7.50968 16.869C7.67114 16.84 7.79427 16.7146 7.8175 16.5519C7.92785 15.726 8.31001 15.3218 8.96747 15.3381C9.266 15.3439 9.51805 15.1197 9.54709 14.8258L9.8282 11.9846C9.84214 11.8394 9.96178 11.7267 10.107 11.7197C10.6065 11.6965 11.0142 11.5385 11.329 11.24C11.3998 11.1761 11.4451 11.0913 11.4684 10.9972C11.5648 10.5733 11.7007 10.2329 11.8795 9.98086C11.9632 9.86354 12.0956 9.7892 12.2385 9.77991C12.9865 9.72415 13.414 9.28042 13.5209 8.44525C13.5569 8.18505 13.7578 7.98177 14.0169 7.94577L16.2262 7.64492C16.2517 7.64144 16.275 7.63215 16.297 7.61588C16.7048 7.32781 17.5051 6.59253 16.9766 6.08956" stroke="#FEE45D" stroke-miterlimit="10"/>
<path d="M34.0247 9.89437C34.0116 9.90503 34.0057 9.91806 34.0022 9.93109C33.892 10.4358 33.9026 10.9345 34.0353 11.4309C34.0638 11.547 34.1704 11.6251 34.29 11.6275C34.8338 11.6346 35.3041 11.6571 35.7021 11.6927C35.7294 11.6962 35.7578 11.6832 35.7803 11.6607C35.8064 11.6346 35.8159 11.6086 35.8123 11.5789C35.7803 11.1844 35.7614 10.7118 35.7543 10.1668C35.7543 10.0472 35.6737 9.94412 35.5576 9.91095C35.0648 9.77827 34.566 9.76524 34.0602 9.87541C34.0448 9.87896 34.0353 9.88489 34.0247 9.89437ZM10.4998 15.217C9.81035 15.2372 9.46324 15.6897 9.4668 16.577C9.4668 16.8755 9.20736 17.1054 8.91238 17.0734C8.18027 16.9916 7.83672 17.3352 7.87936 18.1028C7.99901 20.2506 8.11985 22.3001 7.99546 24.5319C7.89239 26.3753 7.83672 27.4154 7.82725 27.6547C7.80829 28.1795 8.25253 28.6036 8.77615 28.5621L8.89343 28.5515C9.46917 28.5065 9.90038 28.0018 9.86129 27.4249C9.66108 24.513 9.63147 21.8215 9.77481 19.3432C9.78429 19.1939 9.90038 19.0719 10.0497 19.0612L11.1348 18.9712C11.4203 18.9487 11.6466 18.7141 11.6596 18.4262L11.7698 15.7288C11.7733 15.6186 11.8373 15.5179 11.938 15.467C12.5469 15.1483 12.9686 14.6247 13.2044 13.8914C13.3702 13.3737 13.4994 12.7198 13.5858 11.9296C13.6001 11.8123 13.6936 11.7211 13.8062 11.7116L16.5889 11.4854C16.9811 11.4569 17.276 11.1098 17.244 10.7141L17.2275 10.4843C17.1919 10.0638 16.8425 9.73681 16.4172 9.7297C14.4483 9.70364 13.6711 10.559 12.1027 12.1464C11.964 12.285 11.8598 12.4568 11.8018 12.6416L11.1182 14.7538C11.0305 15.0215 10.7841 15.2075 10.4998 15.217ZM30.2219 8.17188L30.1378 9.2049C30.1224 9.36364 30.2409 9.50699 30.4032 9.51883L33.2025 9.75576C33.5615 9.78538 33.8825 9.50935 33.9121 9.13737L33.9346 8.86845C33.9666 8.49529 33.6977 8.17188 33.3388 8.13989L30.5394 7.90651C30.3771 7.89348 30.2385 8.00958 30.2219 8.17188ZM17.4016 9.5674L18.341 9.6527C18.4974 9.66454 18.6396 9.57096 18.6881 9.42169L19.0601 8.27258C19.1158 8.10672 19.2674 7.99655 19.4392 7.99655H29.8203C30.0407 7.99655 30.2196 7.81885 30.2196 7.5985V6.47427C30.2196 6.22194 30.0087 6.01463 29.7552 6.02055C26.989 6.07979 24.2335 6.08571 21.4899 6.04425C20.5054 6.02766 19.5435 6.20891 18.6656 6.1094C17.6836 5.99212 17.1457 6.17692 17.1943 7.17085C17.263 8.52846 17.2784 9.24754 17.25 9.3281C17.2085 9.43827 17.2855 9.55555 17.4016 9.5674Z" stroke="#EFC001" stroke-miterlimit="10"/>
<path d="M26.4786 12.9242L26.411 12.1023C26.3907 11.8678 26.1956 11.6897 25.9634 11.6897L21.6328 11.6874C21.5584 11.6874 21.4839 11.7099 21.4219 11.755C21.1074 11.9749 20.8841 12.3019 20.7455 12.7337C20.7229 12.8047 20.6733 12.8633 20.6057 12.9017L19.6856 13.4226C19.4105 13.5782 19.229 13.86 19.1997 14.1746C18.9054 17.1962 19.0125 19.892 19.0058 24.6048C19.0024 26.8495 19.1321 29.1484 19.4004 31.5093C19.4331 31.7788 19.6563 31.9795 19.9247 31.9795H20.1908C20.4535 31.9795 20.671 31.772 20.6834 31.5093C20.9585 25.9938 20.8582 21.219 20.8841 14.8454C20.8875 14.1159 21.201 13.683 21.8267 13.5432C22.3521 13.4259 23.7704 13.3651 26.0795 13.3549C26.3129 13.3515 26.4944 13.1542 26.4786 12.9242Z" stroke="#FFEA3D" stroke-miterlimit="10"/>
<path d="M39.4277 13.8701C39.4265 13.6733 39.2611 13.514 39.0644 13.5152L37.9962 13.5261C37.797 13.5273 37.6389 13.6926 37.6401 13.8894L37.6703 16.8103C37.6715 17.0095 37.8369 17.1676 38.0336 17.1664L39.103 17.1555C39.3009 17.1543 39.4591 16.9902 39.4579 16.7922L39.4277 13.8701ZM28.1977 13.7831C28.3172 15.6419 28.4826 17.9485 28.479 19.555C28.4717 23.199 28.4077 27.1761 28.2882 31.4875C28.2846 31.5454 28.2786 31.6045 28.2617 31.6589C27.9962 32.6607 27.3709 33.275 26.3836 33.5116C24.7155 33.9099 22.9895 34.0173 21.1983 33.8387C20.9291 33.8122 20.7155 34.0584 20.7795 34.3215L20.9291 34.9178C21.0064 35.2352 21.2659 35.4742 21.5858 35.5297C23.0474 35.7796 24.1325 35.9123 24.8483 35.9244C25.7004 35.9413 26.8302 35.7084 27.9636 35.7084C28.2074 35.7084 28.4077 35.5225 28.4307 35.2811C28.4621 34.9009 28.5369 34.6003 28.6504 34.3807C28.7059 34.2756 28.794 34.1984 28.9002 34.1598C29.3444 33.9908 29.581 33.7965 29.6123 33.5768C29.9237 31.4609 30.3221 29.2268 30.2545 26.6486C30.1603 23.2243 30.1181 20.0282 30.1241 17.0638C30.1241 16.9793 30.1144 16.8996 30.0951 16.8176C29.8658 15.9075 29.7644 14.8839 29.797 13.7506C29.8042 13.5043 29.5713 13.3233 29.3371 13.3945C29.1138 13.4621 28.8543 13.479 28.5574 13.4428C28.3558 13.4198 28.1844 13.5816 28.1977 13.7831ZM37.7017 12.0861C37.7041 11.9051 37.558 11.7518 37.3758 11.7506L36.1519 11.7337C35.9708 11.7325 35.8187 11.8785 35.8163 12.0596L35.8006 13.1664C35.7994 13.3486 35.9455 13.5019 36.1265 13.5019L37.3516 13.5188C37.5327 13.52 37.6848 13.3752 37.686 13.1929L37.7017 12.0861Z" stroke="#EFC001" stroke-miterlimit="10"/>
<path d="M32.8194 37.8094L35.2101 37.2095C35.2528 37.1998 35.2918 37.1766 35.3174 37.1486C35.3661 37.0828 35.677 36.7426 36.2439 36.1245C36.5719 35.7649 37.0315 35.7393 37.3131 35.454C37.3911 35.376 37.4326 35.2687 37.4289 35.159C37.4131 34.3982 37.6142 33.5302 38.0385 32.5512C38.1189 32.3611 38.2872 32.2209 38.4883 32.1794C40.0135 31.8454 39.6746 29.8887 39.7453 28.9048C39.7684 28.6 40.0622 28.3806 40.3963 28.4159C40.8986 28.4708 41.1631 28.2501 41.1997 27.7613C41.3874 25.1279 41.4362 21.8168 41.346 17.8302C41.3387 17.4547 41.0315 17.1536 40.6547 17.1536H40.1074C39.7294 17.1536 39.4246 17.4608 39.4307 17.84L39.5405 25.6595C39.5405 25.6814 39.538 25.7083 39.5344 25.7302C39.4344 26.2654 39.3698 26.8445 39.3466 27.4662C39.3369 27.7808 39.1199 28.0429 38.8321 28.0917C38.4396 28.1563 38.1385 28.3221 37.9275 28.5842C37.8885 28.6354 37.8629 28.6976 37.8532 28.7622L37.5325 31.0651C37.5143 31.1882 37.4545 31.3053 37.368 31.3955L36.3024 32.4574C36.2537 32.5098 36.2208 32.572 36.2086 32.6427C36.0781 33.4522 35.9428 34.1105 35.7965 34.6116C35.7026 34.9456 35.3466 35.2894 34.7249 35.6454C34.6371 35.6929 34.5396 35.7259 34.4396 35.7356C33.19 35.8551 32.2342 36.3159 31.5759 37.1096C31.4405 37.2742 31.2662 37.407 31.0711 37.4912C30.8322 37.5985 30.2458 37.7569 29.3119 37.9703C28.7133 38.1093 28.4378 38.4957 28.4927 39.1309C28.5024 39.2406 28.5865 39.3321 28.6975 39.3442C29.2412 39.4186 29.7167 39.3601 30.1288 39.1699C30.2385 39.1175 30.3592 39.0919 30.4823 39.0955C31.3296 39.1175 31.9648 38.7895 32.389 38.1202C32.4866 37.9642 32.6426 37.8545 32.8194 37.8094Z" stroke="#FFEA3D" stroke-miterlimit="10"/>
<path d="M21.0563 38.1539C21.0617 37.9012 20.8615 37.6933 20.6088 37.6867L17.7345 37.6221C17.4828 37.6156 17.2716 37.8158 17.2673 38.0686L17.2465 38.9876C17.2399 39.2415 17.4412 39.4493 17.6929 39.4548L20.5683 39.5194C20.8188 39.5259 21.0289 39.3257 21.0355 39.0741L21.0563 38.1539ZM11.5395 28.6973C11.5231 28.485 11.3349 28.3253 11.1237 28.3439L10.058 28.4292C9.84465 28.4456 9.68601 28.6338 9.70461 28.845L9.93985 31.763C9.95516 31.9764 10.1434 32.1351 10.3545 32.1165L11.4202 32.0311C11.6336 32.0158 11.7922 31.8276 11.7736 31.6164L11.5395 28.6973Z" stroke="#EFC001" stroke-miterlimit="10"/>
<path d="M45.0502 15.1242C44.9756 15.2367 44.901 15.2923 44.8328 15.2923C44.0517 15.2961 43.2743 15.3214 42.5008 15.3631L41.4971 15.3075C41.3998 15.3024 41.3253 15.224 41.3253 15.1305V9.94819C41.3253 9.82432 41.2241 9.72448 41.1015 9.72448H39.6467C39.5494 9.72448 39.4697 9.64231 39.4697 9.54625V8.12681C39.4697 8.01052 39.3724 7.91699 39.2548 7.91699H37.9365C37.8202 7.91699 37.7229 7.82598 37.7141 7.70969L37.594 6.25233C37.5839 6.14236 37.4929 6.05767 37.3867 6.05767H32.2562C32.1424 6.05767 32.0489 5.96667 32.0489 5.85417L32.0552 2.89268C32.0198 2.58806 31.8934 2.43258 31.6697 2.43005C26.9083 2.34536 22.1532 2.34536 17.4019 2.43005C17.2945 2.43258 17.2111 2.51727 17.2111 2.62471L17.1883 6.03492C17.1453 6.09306 17.0783 6.11202 16.9772 6.08927L11.8657 6.12214C11.7595 6.12214 11.671 6.20935 11.671 6.31679V7.69958C11.671 7.83609 11.5611 7.94606 11.4258 7.94606H9.91664C9.80667 7.94606 9.71566 8.03706 9.71566 8.14702V9.58417C9.71566 9.66633 9.64741 9.73332 9.56652 9.73332H8.1319C8.02193 9.73332 7.93345 9.8218 7.93345 9.93177V15.0104C7.93345 15.1887 7.7881 15.334 7.60988 15.334H4.52703C4.36398 15.334 4.23506 15.4629 4.23506 15.626V31.7923C4.23506 31.9086 4.32607 31.9996 4.44235 32.0021L6.08679 32.0438L7.61999 32.0704C7.76914 32.0741 7.88795 32.1967 7.88795 32.3459V37.4183C7.88795 37.5535 7.99918 37.6647 8.13569 37.6647H9.55009C9.66384 37.6647 9.76118 37.7507 9.77002 37.8644L9.88378 39.2637C9.89389 39.3964 10.0039 39.5 10.1366 39.5H11.4031C11.5358 39.5 11.6432 39.6075 11.6432 39.7402V40.9321C11.6432 41.1596 11.824 41.3404 12.0515 41.3404H16.9229C17.0455 41.3404 17.1453 41.4402 17.1453 41.5641V43.0695C17.1453 43.1668 17.2262 43.2477 17.3236 43.2477H31.6697C31.8732 43.2477 32.0363 43.0733 32.016 42.8698C31.9807 42.483 32.0034 42.1013 32.0906 41.7221C32.107 41.6538 32.1652 41.6033 32.236 41.5957L37.3285 41.1811C37.4512 41.1723 37.5485 41.0787 37.5611 40.9549L37.6648 39.9083C37.6812 39.7402 37.8139 39.6075 37.9858 39.591L39.1449 39.4975C39.3004 39.4849 39.4242 39.3648 39.4394 39.2093L39.5494 38.0818C39.5696 37.9036 39.7086 37.7671 39.8868 37.7507L41.0788 37.6546C41.2241 37.6445 41.3341 37.5206 41.3341 37.3765V32.4167C41.3341 32.3067 41.4226 32.2132 41.5363 32.2056L43.0089 32.1247L44.9339 32.0438C44.9921 32.0413 45.0375 31.9958 45.0375 31.9376L45.1399 15.2986L48.5843 15.286C48.674 15.286 48.7461 15.3568 48.7461 15.4478V31.9414C48.7461 32.0248 48.6778 32.0931 48.5906 32.0931H45.193C45.1121 32.0931 45.0439 32.1614 45.0439 32.2423V37.4208C45.0439 37.5408 44.9465 37.6382 44.8265 37.6382H41.5654C41.4352 37.6382 41.3316 37.7418 41.3316 37.8708V39.2637C41.3316 39.3837 41.2342 39.4811 41.1154 39.4811H39.7478C39.6252 39.4811 39.5279 39.5784 39.5279 39.7023V41.0256C39.5279 41.2114 39.3787 41.3593 39.1942 41.3593H37.982C37.8177 41.3593 37.6787 41.492 37.6711 41.6576L37.6167 42.9924C37.6091 43.1125 37.5093 43.2098 37.3905 43.2098H36.0418C35.8939 43.2098 35.7738 43.3261 35.7663 43.474L35.7119 44.7923C35.7056 44.9351 35.5918 45.0451 35.4503 45.0451H32.2663C32.1361 45.0451 32.0287 45.1525 32.0287 45.2815V46.7009C32.0287 46.8147 31.9351 46.9082 31.8226 46.9082H17.412C17.292 46.9082 17.1946 46.8109 17.1946 46.6908V45.2473C17.1946 45.1336 17.1036 45.0426 16.9937 45.0426H13.7187C13.6024 45.0426 13.5089 44.9478 13.5089 44.8315V43.455C13.5089 43.3349 13.4115 43.2389 13.2877 43.2389H11.872C11.7305 43.2389 11.6129 43.1213 11.6129 42.9798V41.6741C11.6129 41.5148 11.4903 41.3859 11.3323 41.3796L9.94571 41.3239C9.83574 41.3176 9.74726 41.2266 9.74726 41.1167V39.7655C9.74726 39.5973 9.60949 39.4583 9.44012 39.4583H8.08008C7.96 39.4583 7.86268 39.361 7.869 39.2409L7.92081 37.9782C7.93093 37.7899 7.77799 37.6344 7.59092 37.6344H4.42591C4.31342 37.6344 4.21863 37.5408 4.21863 37.4271V32.3004C4.21863 32.1677 4.11245 32.0602 3.97973 32.0602H0.642827C0.565724 32.0602 0.5 31.9958 0.5 31.9174V15.4377C0.5 15.3378 0.5809 15.2569 0.682018 15.2569H3.79392C3.99869 15.2569 4.16301 15.0913 4.16301 14.8878V9.92545C4.16301 9.81169 4.25781 9.71689 4.37156 9.71689H5.87317C5.98693 9.71689 6.08172 9.62336 6.08172 9.50707V8.15966C6.08172 8.04591 6.17906 7.95238 6.29534 7.9587L7.69457 8.01305C7.83993 8.02063 7.96379 7.90434 7.96379 7.75772V6.32058C7.96379 6.17775 8.07629 6.06399 8.21533 6.06399H9.53113C9.64489 6.06399 9.73842 5.97298 9.73842 5.85922V4.39933C9.73842 4.2565 9.85471 4.14021 9.99754 4.14021H11.355C11.4713 4.14021 11.5649 4.04921 11.5712 3.93293L11.6268 2.59564C11.6293 2.47556 11.7305 2.38076 11.8493 2.38076H16.8609C17.0038 2.38076 17.1175 2.2708 17.1226 2.13176L17.1807 0.680712C17.1883 0.580858 17.2717 0.499954 17.3729 0.499954H31.7253C31.9061 0.499954 32.0514 0.647847 32.0514 0.829859V1.91182C32.0514 2.09004 32.1943 2.2392 32.375 2.24805L37.4221 2.45533C37.5346 2.46165 37.6231 2.55266 37.6231 2.66263V3.95189C37.6231 4.0884 37.7292 4.19836 37.8619 4.20468L39.2877 4.26282C39.3977 4.26914 39.4862 4.36015 39.4862 4.47012V5.8213C39.4862 5.96413 39.6024 6.08042 39.744 6.08042H41.056C41.19 6.08042 41.2962 6.18659 41.2962 6.32058V7.77163C41.2962 7.88792 41.3897 7.98145 41.506 7.98145H43.0253C43.1327 7.98145 43.2162 8.06867 43.2162 8.17611V9.569C43.2162 9.66254 43.2907 9.73712 43.3855 9.73712H44.8429C44.9491 9.73712 45.0338 9.8218 45.0375 9.92798L45.0502 15.1242Z" fill="#010101"/>
<path d="M32.0556 2.89225C31.304 3.01886 30.6663 3.31274 30.1413 3.77738C30.0507 3.85404 29.9368 3.89702 29.8172 3.89353C26.6693 3.79015 23.5307 4.04222 20.3979 4.14327C19.9612 4.15605 19.5825 4.19787 19.2642 4.26872C19.1899 4.28847 19.1283 4.34075 19.1051 4.41161C19.047 4.58004 18.9634 4.89715 18.8495 5.3641C18.6753 6.07964 17.7937 6.11912 17.1885 6.03433L17.2106 2.62393C17.2106 2.51706 17.2953 2.43226 17.4022 2.42994C22.1542 2.34515 26.9086 2.34515 31.6699 2.42994C31.8929 2.43226 32.0207 2.58791 32.0556 2.89225Z" fill="#FCEBB8"/>
<path d="M21.0562 38.1548C21.0623 37.9014 20.8618 37.6935 20.6097 37.6873L17.735 37.6221C17.4828 37.616 17.2725 37.8165 17.2675 38.0687L17.2466 38.9875C17.2405 39.2409 17.441 39.4488 17.6931 39.455L20.5691 39.5202C20.82 39.5263 21.0304 39.3258 21.0353 39.0736L21.0562 38.1548ZM11.539 28.6967C11.5231 28.4851 11.3349 28.3252 11.1245 28.3436L10.058 28.4297C9.84522 28.4457 9.68654 28.6339 9.70499 28.8455L9.93994 31.7633C9.95593 31.9761 10.1441 32.1347 10.3557 32.1175L11.421 32.0314C11.6338 32.0154 11.7924 31.8272 11.774 31.6156L11.539 28.6967ZM32.8195 37.8103L35.2107 37.2101C35.2526 37.2002 35.2919 37.1781 35.3178 37.1498C35.3657 37.0846 35.6769 36.7439 36.244 36.1251C36.5712 35.7659 37.0313 35.7401 37.313 35.4547C37.3905 35.3772 37.4323 35.2702 37.4286 35.1607C37.4126 34.3993 37.6143 33.5309 38.0387 32.553C38.1199 32.3611 38.2872 32.2221 38.4889 32.1803C40.0142 31.8469 39.6747 29.8898 39.7448 28.9058C39.7682 28.6019 40.0622 28.3805 40.3968 28.4162C40.8987 28.4716 41.1631 28.2514 41.2 27.7618C41.3882 25.1294 41.4362 21.818 41.3452 17.8313C41.339 17.4562 41.0315 17.1548 40.6551 17.1548H40.1077C39.7288 17.1548 39.425 17.4623 39.4312 17.8412L39.5406 25.6608C39.5406 25.683 39.5382 25.7088 39.5345 25.7309C39.4336 26.266 39.3696 26.8454 39.3475 27.4678C39.3364 27.7815 39.1199 28.0447 38.8321 28.0927C38.4397 28.1579 38.1383 28.3227 37.928 28.5847C37.8886 28.6364 37.8628 28.6991 37.8542 28.7631L37.5331 31.0658C37.5135 31.1888 37.4544 31.3057 37.3683 31.3967L36.3031 32.4595C36.2539 32.5099 36.2219 32.5727 36.2083 32.644C36.078 33.4534 35.9426 34.1115 35.7975 34.6134C35.7028 34.9467 35.3473 35.2899 34.7249 35.6454C34.6375 35.6946 34.5403 35.7266 34.4395 35.7364C33.1897 35.857 32.2339 36.317 31.5759 37.1104C31.4405 37.2753 31.2659 37.4081 31.0715 37.493C30.8317 37.6 30.2449 37.7574 29.3125 37.9715C28.7134 38.1105 28.4379 38.4967 28.4933 39.1314C28.5031 39.2409 28.5868 39.332 28.6975 39.3455C29.2412 39.4193 29.7172 39.3615 30.1293 39.1708C30.2388 39.1179 30.3593 39.0921 30.4823 39.0958C31.3298 39.1179 31.9646 38.7907 32.3902 38.1216C32.4873 37.9653 32.6423 37.8546 32.8195 37.8103ZM39.4287 13.8705C39.4275 13.6724 39.2626 13.5138 39.0658 13.515L37.9969 13.5261C37.7988 13.5273 37.6402 13.6921 37.6402 13.8889L37.6721 16.8104C37.6721 17.0084 37.837 17.1671 38.035 17.1659L39.104 17.1548C39.302 17.1548 39.4595 16.99 39.4595 16.7919L39.4287 13.8705ZM28.198 13.7832C28.3186 15.6418 28.4834 17.9482 28.4797 19.5547C28.4736 23.1982 28.4084 27.1763 28.2891 31.4865C28.2854 31.5455 28.2792 31.6046 28.2632 31.6587C27.9975 32.66 27.3727 33.275 26.3837 33.5124C24.7169 33.9098 22.9899 34.0168 21.1989 33.8396C20.9295 33.8126 20.7155 34.0586 20.7807 34.3206L20.9295 34.9172C21.0082 35.2346 21.2665 35.4744 21.5864 35.5298C23.0477 35.7795 24.1326 35.9123 24.8485 35.9246C25.701 35.9406 26.8314 35.7081 27.9643 35.7081C28.2079 35.7081 28.4084 35.5224 28.4305 35.2801C28.4637 34.9012 28.5375 34.5998 28.6519 34.3796C28.7061 34.2763 28.7946 34.1976 28.9017 34.1595C29.3445 33.9909 29.5819 33.7966 29.6139 33.5764C29.9251 31.4607 30.3224 29.2268 30.2547 26.6474C30.1613 23.224 30.1182 20.0283 30.1256 17.0638C30.1256 16.9789 30.1157 16.8989 30.0961 16.8178C29.866 15.9075 29.7652 14.8841 29.7984 13.7499C29.8045 13.5039 29.5721 13.3231 29.3383 13.3944C29.1145 13.4621 28.8549 13.4781 28.5572 13.4424C28.3567 13.4203 28.1845 13.5814 28.198 13.7832ZM37.7029 12.0856C37.7054 11.9048 37.559 11.7523 37.3769 11.7498L36.153 11.7338C35.9722 11.7326 35.8196 11.8778 35.8172 12.0586L35.8024 13.1669C35.8 13.3489 35.9463 13.5015 36.1284 13.5015L37.3523 13.5187C37.5331 13.5199 37.6857 13.3748 37.6869 13.1927L37.7029 12.0856ZM26.4784 12.9245L26.4107 12.1016C26.3911 11.8679 26.1967 11.6896 25.963 11.6896L21.6331 11.6871C21.5581 11.6871 21.4843 11.7092 21.4215 11.7547C21.1079 11.9749 20.8852 12.3021 20.745 12.7339C20.7228 12.8052 20.6736 12.863 20.606 12.9012L19.6859 13.4227C19.4103 13.579 19.2295 13.8606 19.2 14.1743C18.906 17.1966 19.0118 19.8917 19.0056 24.6042C19.0032 26.8491 19.1323 29.1493 19.4005 31.5099C19.4325 31.7793 19.6576 31.9798 19.9257 31.9798H20.1914C20.4534 31.9798 20.6712 31.7719 20.6835 31.5099C20.959 25.9929 20.8581 21.219 20.8852 14.8447C20.8877 14.1165 21.2013 13.6823 21.8274 13.5433C22.3515 13.4264 23.7698 13.3649 26.0798 13.3551C26.3136 13.3514 26.4944 13.1546 26.4784 12.9245ZM34.025 9.89609C34.0127 9.9047 34.0053 9.91823 34.0028 9.93176C33.8921 10.4361 33.9019 10.9355 34.0348 11.4312C34.0643 11.5481 34.1701 11.6256 34.2906 11.6293C34.8343 11.6354 35.3042 11.6576 35.7028 11.6932C35.7286 11.6969 35.7581 11.6846 35.7803 11.6613C35.8061 11.6354 35.8159 11.6096 35.8135 11.5801C35.7803 11.1852 35.7618 10.7116 35.7544 10.1679C35.7544 10.0486 35.6745 9.94406 35.5576 9.91208C35.0656 9.77923 34.5662 9.7657 34.0606 9.87641C34.0446 9.87887 34.0348 9.88625 34.025 9.89609ZM10.4996 15.2174C9.80955 15.2371 9.4639 15.691 9.46636 16.5779C9.46636 16.8756 9.20681 17.1056 8.91282 17.0736C8.18092 16.9924 7.83773 17.3356 7.87955 18.1032C8.0001 20.2509 8.11942 22.3015 7.99641 24.5328C7.89309 26.3755 7.83773 27.4161 7.82789 27.6548C7.80821 28.18 8.25227 28.6044 8.77751 28.5626L8.89314 28.5527C9.47004 28.5072 9.90057 28.0029 9.86121 27.4248C9.66071 24.5144 9.63119 21.8217 9.77511 19.3444C9.78372 19.1955 9.90057 19.0725 10.0494 19.0627L11.1356 18.9716C11.4197 18.9495 11.6461 18.7158 11.6596 18.4267L11.7691 15.7291C11.7728 15.6184 11.838 15.5188 11.9376 15.4671C12.5465 15.1498 12.9684 14.6245 13.2046 13.8926C13.3694 13.3748 13.4998 12.7204 13.5871 11.9306C13.5994 11.8126 13.6929 11.7228 13.8073 11.7129L16.5898 11.4854C16.9809 11.4571 17.2761 11.1102 17.2442 10.7153L17.2269 10.4853C17.1925 10.0646 16.8419 9.73741 16.4176 9.73003C14.4482 9.7042 13.6708 10.5591 12.1036 12.1471C11.9634 12.2861 11.8601 12.4584 11.8023 12.6429L11.1184 14.7549C11.031 15.0231 10.785 15.2076 10.4996 15.2174ZM30.2228 8.17274L30.1379 9.20601C30.1219 9.36469 30.2412 9.50738 30.4036 9.51968L33.202 9.75586C33.5624 9.78538 33.8823 9.50984 33.9118 9.13836L33.9351 8.86898C33.9671 8.49626 33.6977 8.17275 33.3386 8.14076L30.5401 7.90705C30.3777 7.89475 30.2388 8.01037 30.2228 8.17274ZM17.4016 9.56888L18.3414 9.65377C18.4976 9.66607 18.6391 9.57258 18.6883 9.42251L19.061 8.27239C19.1164 8.10755 19.2677 7.99684 19.4399 7.99684H29.8205C30.0407 7.99684 30.2191 7.81971 30.2191 7.59953V6.47523C30.2191 6.22306 30.0087 6.01518 29.7566 6.02133C26.9901 6.08038 24.2335 6.08652 21.4904 6.0447C20.5051 6.02871 19.5432 6.20953 18.6661 6.10989C17.6845 5.99303 17.147 6.17755 17.195 7.17269C17.2626 8.52824 17.2786 9.24783 17.2503 9.32902C17.2085 9.4385 17.286 9.55535 17.4016 9.56888ZM32.0556 2.89323L32.0494 5.85404C32.0494 5.96597 32.1429 6.057 32.2573 6.057H37.3868C37.4938 6.057 37.5848 6.14187 37.5946 6.25135L37.714 7.709C37.7238 7.82586 37.821 7.91689 37.9378 7.91689H39.2565C39.3733 7.91689 39.4705 8.01037 39.4705 8.12723V9.54675C39.4705 9.64269 39.5505 9.72388 39.6477 9.72388H41.1028C41.2258 9.72388 41.3255 9.82474 41.3255 9.94775V15.1301C41.3255 15.2236 41.4005 15.3023 41.4977 15.3085L42.5014 15.3638C42.9258 15.4893 43.1399 15.862 43.1472 16.477C43.1952 21.0308 43.1891 24.6239 43.1337 27.2501C43.1337 27.3411 43.1558 28.1542 43.1977 29.6893C43.221 30.5258 43.1595 31.3377 43.0107 32.1249L41.5371 32.2061C41.4227 32.2122 41.3353 32.307 41.3353 32.4164V37.3761C41.3353 37.5213 41.2259 37.6443 41.0795 37.6541L39.8887 37.7513C39.7104 37.7673 39.5702 37.9038 39.5505 38.0822L39.441 39.209C39.425 39.3639 39.302 39.4845 39.1458 39.498L37.9858 39.5915C37.8148 39.6075 37.682 39.7403 37.666 39.9089L37.5627 40.9557C37.5491 41.0787 37.452 41.1722 37.3289 41.182L32.2376 41.5965C32.1663 41.6027 32.1073 41.6544 32.0913 41.722C32.0039 42.1021 31.9818 42.4834 32.0162 42.8697C32.0371 43.0726 31.8748 43.2485 31.6706 43.2485H17.3253C17.2269 43.2485 17.147 43.1673 17.147 43.0702V41.5633C17.147 41.4403 17.0461 41.3407 16.9231 41.3407H12.052C11.8244 41.3407 11.6436 41.1599 11.6436 40.9323V39.7403C11.6436 39.6075 11.5366 39.5005 11.4037 39.5005H10.1368C10.0051 39.5005 9.89443 39.3972 9.88459 39.2643L9.77142 37.8645C9.76158 37.7513 9.6644 37.664 9.55123 37.664H8.13541C8.0001 37.664 7.88939 37.5533 7.88939 37.4179V32.3451C7.88939 32.1963 7.77008 32.0732 7.62124 32.0708L6.08855 32.0437C5.8167 29.404 5.7392 27.5096 5.85852 26.3669C6.04303 24.5488 6.0664 22.716 5.92617 20.8598C5.90034 20.5043 5.93602 19.3271 6.02951 17.3332C6.03689 17.2126 6.12423 17.1093 6.24355 17.0896L7.51053 16.8694C7.6729 16.8399 7.79591 16.7144 7.81805 16.5521C7.92753 15.7254 8.31008 15.3207 8.96818 15.338C9.26586 15.3441 9.51802 15.1202 9.54754 14.825L9.82923 11.9848C9.84277 11.8396 9.96208 11.7264 10.1072 11.7191C10.6066 11.6969 11.015 11.5382 11.3299 11.2393C11.4 11.1754 11.4456 11.0905 11.4689 10.997C11.5649 10.5726 11.7014 10.2319 11.8798 9.97974C11.9634 9.86288 12.0963 9.78908 12.2402 9.77924C12.9881 9.72388 13.4149 9.27982 13.5219 8.4446C13.5576 8.18505 13.7581 7.98086 14.0177 7.94641L16.2269 7.64504C16.2527 7.64135 16.2749 7.63151 16.297 7.61552C16.7054 7.32768 17.5062 6.59209 16.9772 6.09021C17.0781 6.11236 17.147 6.09267 17.1888 6.03486C17.794 6.11851 18.676 6.08037 18.8507 5.36447C18.9638 4.89826 19.0475 4.5809 19.1053 4.41115C19.1287 4.34104 19.1902 4.28814 19.2652 4.26969C19.5826 4.19835 19.9614 4.15653 20.3981 4.143C23.5311 4.04213 26.6691 3.78997 29.8181 3.89329C29.9374 3.89698 30.0506 3.85516 30.1416 3.77766C30.6656 3.31392 31.304 3.01869 32.0556 2.89323Z" fill="#FFDD01"/>
<path d="M16.9761 6.0901C17.5048 6.59195 16.7048 7.32755 16.2963 7.61601C16.2738 7.63209 16.2512 7.64175 16.2255 7.64496L14.0165 7.94628C13.757 7.98167 13.5565 8.18541 13.5201 8.44491C13.4139 9.28024 12.986 9.72418 12.2386 9.77887C12.0949 9.78852 11.963 9.86358 11.8783 9.98046C11.7003 10.2325 11.5641 10.5724 11.4676 10.997C11.4451 11.0914 11.399 11.1761 11.3282 11.2394C11.014 11.5385 10.6055 11.6962 10.1069 11.7198C9.96103 11.7262 9.84093 11.8399 9.82806 11.9846L9.54604 14.8252C9.51709 15.1201 9.2651 15.3442 8.96699 15.3378C8.30966 15.3217 7.92684 15.7259 7.81747 16.5516C7.79388 16.7135 7.67163 16.8401 7.50864 16.869L6.24224 17.0899C6.12321 17.1092 6.03528 17.2132 6.02885 17.3333C5.93555 19.3278 5.90017 20.5042 5.92591 20.8602C6.06424 22.7164 6.04171 24.5489 5.85728 26.3665C5.73718 27.5096 5.81546 29.4044 6.08676 32.0444L4.44182 32.0015C4.32494 31.9994 4.23486 31.9082 4.23486 31.7924V15.6251C4.23486 15.4632 4.36354 15.3335 4.52654 15.3335H7.60944C7.78745 15.3335 7.93329 15.1887 7.93329 15.0107V9.93221C7.93329 9.82176 8.02121 9.73383 8.13059 9.73383H9.56534C9.64684 9.73383 9.71547 9.66627 9.71547 9.58478V8.1468C9.71547 8.03636 9.80554 7.94628 9.91599 7.94628H11.4247C11.5609 7.94628 11.6714 7.83583 11.6714 7.69965V6.31636C11.6714 6.2102 11.7582 6.12227 11.8655 6.12227L16.9761 6.0901Z" fill="#FCEBB8"/>
<path d="M17.4021 9.56869C17.2848 9.55604 17.2077 9.43871 17.2502 9.32943C17.279 9.24776 17.2629 8.52881 17.195 7.17259C17.1456 6.17757 17.6839 5.99351 18.6651 6.10969C19.5428 6.20977 20.5045 6.02802 21.4903 6.04412C24.2327 6.08668 26.9888 6.07979 29.7553 6.02227C30.0084 6.01537 30.2189 6.22242 30.2189 6.47549V7.59935C30.2189 7.82021 30.0406 7.99737 29.8197 7.99737H19.4393C19.2679 7.99737 19.1161 8.1078 19.0608 8.27344L18.687 9.4226C18.6387 9.57214 18.496 9.66532 18.3407 9.65266L17.4021 9.56869Z" fill="#DEA201"/>
<path d="M30.2225 8.17171C30.2389 8.00979 30.3774 7.89364 30.5405 7.90655L33.3388 8.14003C33.6978 8.17171 33.9665 8.49555 33.9349 8.86866L33.9126 9.13734C33.8821 9.50928 33.5617 9.78501 33.2027 9.75567L30.4032 9.51984C30.2413 9.50694 30.1228 9.36378 30.138 9.20539L30.2225 8.17171Z" fill="#DEA201"/>
<path d="M10.4992 15.2169C10.7851 15.2072 11.0304 15.022 11.1182 14.7543L11.8014 12.6424C11.8603 12.4572 11.9642 12.2858 12.1034 12.1466C13.6712 10.5595 14.4487 9.70385 16.417 9.73062C16.8422 9.73704 17.1924 10.0637 17.2277 10.4845L17.2438 10.7148C17.2759 11.11 16.9814 11.4569 16.5894 11.4858L13.8061 11.7129C13.6937 11.7214 13.5995 11.8125 13.5866 11.9303C13.4999 12.7195 13.3692 13.3739 13.2043 13.8922C12.9676 14.6247 12.5468 15.1494 11.9374 15.4664C11.8378 15.5189 11.7725 15.6185 11.7693 15.7288L11.659 18.4264C11.6461 18.7145 11.4202 18.949 11.1342 18.9715L10.0494 19.0625C9.90054 19.0711 9.78381 19.1942 9.77417 19.3431C9.63174 21.8212 9.66065 24.5134 9.86091 27.4252C9.90054 28.0014 9.46897 28.5069 8.89282 28.5518L8.77716 28.5615C8.25242 28.6043 7.80799 28.1792 7.82726 27.6544C7.8369 27.4156 7.89259 26.3757 7.9954 24.5327C8.11962 22.3009 7.99968 20.2501 7.87867 18.103C7.8369 17.3351 8.18066 16.9925 8.91209 17.0728C9.20659 17.106 9.46682 16.8757 9.46682 16.5769C9.46361 15.6902 9.80952 15.2372 10.4992 15.2169Z" fill="#DEA201"/>
<path d="M35.7806 11.6608C35.7581 11.6833 35.7297 11.6963 35.7025 11.6928C35.3044 11.6572 34.8341 11.6347 34.2903 11.6276C34.1707 11.6253 34.0641 11.5471 34.0356 11.431C33.903 10.9346 33.8923 10.4359 34.0025 9.9312C34.006 9.91817 34.0119 9.90514 34.025 9.89448C34.0356 9.885 34.0451 9.87907 34.0605 9.87552C34.5664 9.76534 35.0651 9.77837 35.5579 9.91106C35.674 9.94423 35.7546 10.0473 35.7546 10.1669C35.7617 10.7119 35.7806 11.1846 35.8126 11.579C35.8162 11.6087 35.8067 11.6347 35.7806 11.6608Z" fill="#DEA201"/>
<path d="M26.4786 12.9242C26.4944 13.1542 26.3129 13.3515 26.0795 13.3549C23.7704 13.3651 22.3521 13.4259 21.8267 13.5432C21.201 13.683 20.8875 14.1159 20.8841 14.8454C20.8582 21.219 20.9585 25.9938 20.6834 31.5093C20.671 31.772 20.4535 31.9795 20.1908 31.9795H19.9247C19.6563 31.9795 19.4331 31.7788 19.4004 31.5093C19.1321 29.1484 19.0024 26.8495 19.0058 24.6048C19.0125 19.892 18.9054 17.1962 19.1997 14.1746C19.229 13.86 19.4105 13.5782 19.6856 13.4226L20.6057 12.9017C20.6733 12.8633 20.7229 12.8047 20.7455 12.7337C20.8841 12.3019 21.1074 11.9749 21.4219 11.755C21.4839 11.7099 21.5584 11.6874 21.6328 11.6874L25.9634 11.6897C26.1956 11.6897 26.3907 11.8678 26.411 12.1023L26.4786 12.9242Z" fill="#FEF678"/>
<path d="M37.6863 13.1932C37.6852 13.3738 37.532 13.5197 37.3526 13.5185L36.1277 13.5018C35.9458 13.5006 35.7999 13.3487 35.8023 13.1669L35.8166 12.0591C35.819 11.8773 35.9709 11.7326 36.1528 11.7326L37.3765 11.7505C37.5583 11.7517 37.7043 11.9036 37.7019 12.0855L37.6863 13.1932Z" fill="#DEA201"/>
<path d="M28.1977 13.783C28.185 13.5816 28.3565 13.4205 28.5579 13.4424C28.8549 13.478 29.115 13.4619 29.3383 13.394C29.5719 13.3227 29.8044 13.5045 29.7975 13.7508C29.7653 14.8833 29.8666 15.9065 30.0956 16.8181C30.1152 16.8987 30.1244 16.9792 30.1244 17.0644C30.1186 20.0281 30.1612 23.2243 30.2544 26.6483C30.3223 29.2265 29.9241 31.4616 29.6134 33.577C29.5811 33.7969 29.344 33.9914 28.9009 34.1594C28.7939 34.1974 28.7064 34.2757 28.6512 34.3804C28.5372 34.6002 28.4636 34.9006 28.4313 35.2805C28.4083 35.5233 28.208 35.7075 27.964 35.7075C26.8315 35.7075 25.7001 35.9411 24.8484 35.925C24.1325 35.9123 23.0483 35.7788 21.5866 35.5291C21.2655 35.4738 21.0077 35.2344 20.9295 34.9168L20.781 34.3206C20.7154 34.0581 20.9294 33.813 21.1988 33.8395C22.9896 34.0167 24.7161 33.9097 26.3838 33.5114C27.3713 33.2755 27.9963 32.6597 28.2633 31.6584C28.2794 31.6043 28.2852 31.5456 28.2886 31.4869C28.4083 27.1766 28.4728 23.1989 28.4797 19.555C28.4831 17.9483 28.3185 15.6418 28.1977 13.783Z" fill="#DEA201"/>
<path d="M39.4579 16.7923C39.4591 16.9903 39.301 17.1544 39.103 17.1556L38.0336 17.1665C37.8369 17.1677 37.6715 17.0096 37.6703 16.8104L37.6401 13.8895C37.6389 13.6927 37.7971 13.5274 37.9962 13.5262L39.0644 13.5153C39.2611 13.5141 39.4265 13.6734 39.4277 13.8702L39.4579 16.7923Z" fill="#DEA201"/>
<path d="M45.0498 15.1237C45.0721 15.192 45.1019 15.2504 45.1404 15.2988L45.0373 31.9372C45.0373 31.9956 44.9914 32.0415 44.933 32.044L43.0094 32.126C43.1584 31.3386 43.2205 30.5252 43.1969 29.6907C43.1547 28.1545 43.1323 27.3411 43.1323 27.2504C43.1882 24.6239 43.1944 21.0312 43.146 16.4773C43.1385 15.8626 42.9249 15.49 42.5015 15.3634C43.2751 15.3212 44.0525 15.2963 44.8337 15.2926C44.9007 15.2926 44.9752 15.2379 45.0498 15.1237Z" fill="#DEA201"/>
<path d="M32.389 38.1202C31.9648 38.7895 31.3296 39.1175 30.4823 39.0955C30.3592 39.0919 30.2385 39.1175 30.1288 39.1699C29.7167 39.3601 29.2412 39.4186 28.6975 39.3442C28.5865 39.3321 28.5024 39.2406 28.4927 39.1309C28.4378 38.4957 28.7133 38.1093 29.3119 37.9703C30.2458 37.7569 30.8322 37.5985 31.0711 37.4912C31.2662 37.407 31.4405 37.2742 31.5759 37.1096C32.2342 36.3159 33.19 35.8551 34.4396 35.7356C34.5396 35.7259 34.6371 35.6929 34.7249 35.6454C35.3466 35.2894 35.7026 34.9456 35.7965 34.6116C35.9428 34.1105 36.0781 33.4522 36.2086 32.6427C36.2208 32.572 36.2537 32.5098 36.3024 32.4574L37.368 31.3955C37.4545 31.3053 37.5143 31.1882 37.5325 31.0651L37.8532 28.7622C37.8629 28.6976 37.8885 28.6354 37.9275 28.5842C38.1385 28.3221 38.4396 28.1563 38.8321 28.0917C39.1199 28.0429 39.3369 27.7808 39.3466 27.4662C39.3698 26.8445 39.4344 26.2654 39.5344 25.7302C39.538 25.7083 39.5405 25.6814 39.5405 25.6595L39.4307 17.84C39.4246 17.4608 39.7294 17.1536 40.1074 17.1536H40.6547C41.0315 17.1536 41.3387 17.4547 41.346 17.8302C41.4362 21.8168 41.3874 25.1279 41.1997 27.7613C41.1631 28.2501 40.8986 28.4708 40.3963 28.4159C40.0622 28.3806 39.7684 28.6 39.7453 28.9048C39.6746 29.8887 40.0135 31.8454 38.4883 32.1794C38.2872 32.2209 38.1189 32.3611 38.0385 32.5512C37.6142 33.5302 37.4131 34.3982 37.4289 35.159C37.4326 35.2687 37.3911 35.376 37.3131 35.454C37.0315 35.7393 36.5719 35.7649 36.2439 36.1245C35.677 36.7426 35.3661 37.0828 35.3174 37.1486C35.2918 37.1766 35.2528 37.1998 35.2101 37.2095L32.8194 37.8094C32.6426 37.8545 32.4866 37.9642 32.389 38.1202Z" fill="#FEF678"/>
<path d="M11.7729 31.6168C11.7916 31.8274 11.6329 32.0162 11.4203 32.0317L10.355 32.1178C10.1434 32.1354 9.95564 31.9767 9.94008 31.7641L9.70462 28.8452C9.68595 28.6347 9.84465 28.4459 10.0573 28.4303L11.1236 28.3442C11.3352 28.3266 11.5229 28.4853 11.5385 28.6979L11.7729 31.6168Z" fill="#DEA201"/>
<path d="M21.0352 39.0741C21.0287 39.3257 20.8186 39.5259 20.5681 39.5194L17.6927 39.4548C17.441 39.4493 17.2397 39.2415 17.2462 38.9876L17.267 38.0686C17.2714 37.8158 17.4826 37.6156 17.7342 37.6221L20.6085 37.6867C20.8613 37.6933 21.0615 37.9012 21.056 38.1539L21.0352 39.0741Z" fill="#DEA201"/>
</svg>
