<svg width="32" height="22" viewBox="0 0 32 22" fill="none" xmlns="http://www.w3.org/2000/svg">
<path d="M5.38414 3.08847L5.37309 4.04678C5.37064 4.16659 5.46884 4.26577 5.58791 4.26577H6.37965C6.46189 4.26577 6.52941 4.33205 6.52941 4.41479V5.14602C6.52941 5.27393 6.63374 5.37728 6.7614 5.37728H7.52123C7.61944 5.37728 7.69922 5.45768 7.69922 5.5549V6.42066C7.69922 6.52402 7.78147 6.60627 7.88581 6.60627H8.74015C8.80889 6.60627 8.86413 6.66641 8.858 6.73454C8.84572 6.86478 8.8629 7.119 8.90954 7.49695C8.94269 7.77179 9.22624 7.8625 9.75653 7.76528C9.90751 7.73656 10.0499 7.84003 10.0732 7.9904C10.0745 7.99458 10.0794 8.16618 10.0892 8.50497C10.1015 8.94491 10.3936 9.10793 10.9656 8.99046C11.1227 8.9594 11.2688 9.07933 11.2688 9.23817V9.88298C11.2688 10.0254 11.3842 10.141 11.5254 10.141H12.2373C12.3368 10.141 12.4178 10.2218 12.4178 10.321V11.0523C12.4178 11.2068 12.5381 11.3352 12.6927 11.3474L13.6035 11.4155" stroke="#767467" stroke-miterlimit="10"/>
<path d="M13.604 11.4156L13.6392 12.1719C13.648 12.3538 13.7963 12.4961 13.9774 12.4961H18.1699C18.2302 12.4961 18.2855 12.4614 18.3107 12.4073C18.4037 12.2071 18.4301 11.9345 18.3911 11.5915" stroke="#808080" stroke-miterlimit="10"/>
<path d="M18.3911 11.5916C18.4666 11.4243 18.7709 11.3538 19.3017 11.3769C19.4539 11.3848 19.5831 11.2632 19.5831 11.1103V10.3255C19.5831 10.2258 19.6636 10.1455 19.7608 10.1455H20.5742C20.6714 10.1455 20.752 10.0651 20.752 9.96789V9.17689C20.752 9.06076 20.8466 8.96587 20.963 8.96587H21.7892C21.8902 8.96587 21.972 9.04861 21.972 9.14965V9.95561C21.972 10.028 21.9145 10.0858 21.8429 10.0858H20.9937C20.862 10.0858 20.7558 10.1911 20.7558 10.3232V11.0154C20.7558 11.1663 20.8773 11.288 21.0282 11.288H21.8429C21.9183 11.288 21.981 11.3501 21.981 11.4262V12.329C21.981 12.4033 21.9183 12.4653 21.8441 12.4653L20.7162 12.4592" stroke="#767467" stroke-miterlimit="10"/>
<path d="M20.7167 12.4587L20.6964 11.68C20.6913 11.5108 20.5515 11.374 20.3799 11.374H19.9045C19.7557 11.374 19.6362 11.4963 19.6362 11.6448V12.2731C19.6362 12.3844 19.546 12.4733 19.4341 12.4733H18.6422C18.4871 12.4733 18.3638 12.5993 18.3638 12.7543V13.2892C18.3638 13.4856 18.2049 13.6445 18.0079 13.6445H13.9695C13.8436 13.6445 13.7343 13.5599 13.7038 13.4382L13.5424 12.7915C13.503 12.6364 13.3657 12.5269 13.2068 12.5189L12.631 12.4959C12.5216 12.4916 12.439 12.3968 12.4454 12.2872C12.4492 12.2111 12.4403 12.0541 12.4199 11.8145C12.3767 11.3205 11.8174 11.2566 11.4615 11.3886C11.3954 11.4135 11.3547 11.4775 11.356 11.5456L11.3763 12.4301" stroke="#605D50" stroke-miterlimit="10"/>
<path d="M11.3767 12.4301L10.1459 12.4818C10.1228 12.4837 10.1022 12.463 10.1046 12.4405L10.1483 11.3887C10.1495 11.3497 10.1835 11.3163 10.2224 11.3163H11.0296C11.1534 11.3163 11.2529 11.2171 11.2529 11.0935V10.4177C11.2529 10.2381 11.1085 10.0934 10.9288 10.0934H10.362C10.3085 10.0934 10.2636 10.0581 10.2515 10.0069L10.0488 9.19908C10.0014 9.013 9.83999 8.88093 9.6482 8.87244L9.17723 8.8541C9.1214 8.85168 9.07284 8.81271 9.05949 8.75918L8.83615 7.86858C8.81673 7.79199 8.75117 7.73834 8.67349 7.73652L8.05079 7.70969C7.87114 7.70314 7.72912 7.55456 7.72912 7.37272V6.72222C7.72912 6.64563 7.66843 6.58178 7.59195 6.57753L6.89277 6.53432C6.67064 6.52158 6.51162 6.31716 6.55289 6.1C6.60873 5.79448 6.56504 5.37534 6.07828 5.41005C5.81731 5.42887 5.61338 5.42049 5.46286 5.3876C5.38882 5.37109 5.33663 5.30481 5.33663 5.23053V4.54069C5.33663 4.39588 5.22131 4.27608 5.07565 4.26988L2.9502 4.18953" stroke="#767467" stroke-miterlimit="10"/>
<path d="M2.95038 4.18968L2.9527 3.16267C2.9527 3.08609 2.89111 3.02403 2.8144 3.02403H1.94511C1.87189 3.02403 1.81494 3.08423 1.81494 3.15663V19.4497C1.81494 19.5094 1.86143 19.5593 1.92186 19.5612L2.69238 19.5903" stroke="#808080" stroke-miterlimit="10"/>
<path d="M2.69287 19.5903C2.85152 19.6232 2.9344 19.5592 2.94269 19.3962C2.96519 18.9892 2.97584 18.6954 2.9711 18.5178C2.96873 18.452 3.02556 18.396 3.09187 18.396H4.02482C4.09704 18.396 4.15742 18.3363 4.15742 18.264V17.2949C4.15742 17.2329 4.20952 17.1835 4.27109 17.1854L5.20641 17.2248C5.28574 17.2291 5.35084 17.1647 5.35084 17.0843V16.2436C5.35084 16.1567 5.42189 16.0866 5.50832 16.0866H6.30512C6.41522 16.0866 6.50402 16.1754 6.50402 16.2849V17.105C6.50402 17.1878 6.43772 17.2536 6.35602 17.2536H5.4136C5.36624 17.2536 5.32836 17.2911 5.32836 17.3386V18.3012C5.32836 18.3571 5.28337 18.4022 5.22772 18.4022H4.34094C4.26516 18.4022 4.20241 18.4623 4.19886 18.5384L4.15269 19.5861" stroke="#767467" stroke-miterlimit="10"/>
<path d="M4.15253 19.586L3.17155 19.547C3.0724 19.5427 2.98779 19.6231 2.98779 19.7223V20.5466C2.98779 20.6397 3.06315 20.7158 3.15702 20.7158H28.9241C28.9757 20.7158 29.0167 20.6726 29.0167 20.6209V19.8008C29.0167 19.7077 28.94 19.6316 28.8475 19.6316H28.0357C27.9908 19.6316 27.9471 19.6086 27.9194 19.5695C27.9062 19.547 27.8929 19.522 27.8824 19.4953" stroke="#605D50" stroke-miterlimit="10"/>
<path d="M27.8831 19.4956L27.8579 18.5349C27.8553 18.4645 27.7984 18.4091 27.7284 18.4091H26.7923C26.7275 18.4091 26.6759 18.355 26.6799 18.291L26.7169 17.3864C26.7196 17.3158 26.664 17.258 26.594 17.258H25.6248C25.5548 17.258 25.4992 17.2021 25.4992 17.1321V16.2006C25.4992 16.1325 25.445 16.0765 25.3763 16.0765H24.4865C24.4058 16.0765 24.3397 16.0125 24.3397 15.9318V15.0933C24.3397 14.9382 24.2154 14.8142 24.0607 14.8142H23.3693C23.2635 14.8142 23.1789 14.7295 23.1789 14.6261V13.8949C23.1789 13.8163 23.1247 13.7464 23.0493 13.7276C22.8259 13.6716 22.5297 13.6636 22.1648 13.7026C22.0762 13.7111 21.9995 13.643 21.9995 13.5542V12.6452C21.9995 12.5911 22.0431 12.5479 22.096 12.5479H22.9977C23.0982 12.5479 23.1815 12.6325 23.1762 12.734L23.1458 13.4672C23.1418 13.5725 23.2265 13.6612 23.3322 13.6612H24.1216C24.2181 13.6612 24.2987 13.7398 24.2987 13.8371V14.7174C24.2987 14.7996 24.3648 14.8659 24.4468 14.8659H25.3564C25.4305 14.8659 25.4926 14.9255 25.4926 15.0003V15.9731C25.4926 16.0352 25.5415 16.0845 25.6024 16.0845H26.6125C26.672 16.0845 26.7196 16.1325 26.7196 16.1921V17.0621C26.7196 17.134 26.7791 17.1941 26.8544 17.1941H27.7522C27.8209 17.1941 27.8751 17.2477 27.8751 17.3158V18.2928C27.8751 18.3611 27.9307 18.4151 27.9981 18.4151L29.0294 18.4128" stroke="#767467" stroke-miterlimit="10"/>
<path d="M29.0293 18.4124L29.0413 19.3896C29.0439 19.4991 29.133 19.5879 29.242 19.5879H30.001C30.1033 19.5879 30.1884 19.5033 30.1884 19.3981V3.22236C30.1884 3.11523 30.102 3.02643 29.9943 3.02643H29.2566C29.137 3.02643 29.0413 3.1232 29.0399 3.2431L29.0293 4.22861" stroke="#605D50" stroke-miterlimit="10"/>
<path d="M29.0294 4.229L28.0787 4.22054C27.9822 4.21869 27.9055 4.14214 27.9055 4.04721L27.8989 2.96477" stroke="#767467" stroke-miterlimit="10"/>
<path d="M27.8987 2.96435L28.9922 2.98312C29.0266 2.98312 29.0544 2.95589 29.0544 2.92111V1.88575C29.0544 1.85891 29.0319 1.83828 29.0041 1.83828H3.10956C3.05005 1.83828 3.00244 1.88575 3.00244 1.94591V2.89625C3.00244 2.95827 3.05137 3.00759 3.11352 3.00997L5.38391 3.08838" stroke="#808080" stroke-miterlimit="10"/>
<path d="M27.8989 2.96422C27.2689 2.92898 26.6271 2.92109 25.9734 2.93937C25.1251 2.96239 24.482 2.97041 24.0467 2.96422C16.6815 2.87545 11.5784 2.87966 8.74021 2.9808C7.53416 3.02394 6.55302 3.02828 5.79414 2.99342C5.7389 2.99106 5.68497 2.99961 5.63368 3.01368L5.38379 3.08838" stroke="#F5F3E6" stroke-miterlimit="10"/>
<path d="M27.8827 19.4954L27.839 19.5387C27.806 19.5716 27.7584 19.5861 27.7108 19.5801C26.4548 19.3939 25.122 19.6007 23.9691 19.5983C17.1178 19.5922 11.816 19.5801 8.06903 19.5569C7.65123 19.5551 6.99941 19.5674 6.10829 19.5946C5.44986 19.6152 4.79672 19.613 4.15283 19.5861M29.029 4.22864V18.4126" stroke="#D5CFB5" stroke-miterlimit="10"/>
<path d="M2.69238 19.5903C2.76445 19.3239 2.8156 18.8816 2.8493 18.2641C2.94578 16.5017 2.98763 14.907 2.97252 13.4797C2.94579 10.7774 2.93417 9.42241 2.93417 9.41207C2.95044 7.66234 2.95625 5.92248 2.95043 4.18972" stroke="#F5F3E6" stroke-miterlimit="10"/>
<path d="M11.376 12.4305L12.112 12.515C12.2035 12.5255 12.2836 12.5851 12.3192 12.6702L12.5416 13.1862C12.5772 13.267 12.6408 13.331 12.7196 13.3705C13.8827 13.9363 14.6428 14.2709 14.9987 14.3743C15.736 14.5873 16.7682 14.6676 18.0927 14.6117C18.169 14.6098 18.2402 14.5665 18.2745 14.4984C18.5249 14.0251 18.8783 13.6716 19.3384 13.4423C19.3918 13.4156 19.4338 13.3705 19.4567 13.3164L19.7617 12.6204C19.7922 12.5504 19.8609 12.5024 19.9372 12.4986L20.7164 12.4591" stroke="#D5CFB5" stroke-miterlimit="10"/>
<path d="M18.3907 11.5911C16.8724 11.6963 15.662 11.7193 14.7545 11.6593C14.5748 11.6471 14.1902 11.5661 13.6045 11.4153" stroke="#F5F3E6" stroke-miterlimit="10"/>
<path d="M26.7143 5.25292C27.0694 5.38919 27.4285 5.42444 27.7928 5.35815C27.8625 5.34592 27.9125 5.2862 27.9125 5.2157V4.50097C27.9125 4.42482 27.8586 4.36037 27.7836 4.34393C27.4166 4.26777 27.0523 4.25935 26.6919 4.31525" stroke="#BECEAB" stroke-miterlimit="10"/>
<path d="M26.6911 4.31577C26.3458 4.21427 25.9887 4.1978 25.6212 4.26411C25.5479 4.27627 25.4943 4.34023 25.4943 4.41491V5.23695C25.4943 5.31111 25.4355 5.37128 25.3622 5.37128H24.4767C24.393 5.37128 24.3276 5.43759 24.3276 5.51986V6.37944C24.3276 6.48276 24.4127 6.56738 24.5147 6.56738H25.3478C25.4446 6.56738 25.5231 6.48891 25.5231 6.3916V5.51606C25.5231 5.45773 25.5754 5.41692 25.633 5.42726C26.1679 5.52823 26.5302 5.47055 26.7133 5.25343" stroke="#767467" stroke-miterlimit="10"/>
<path d="M26.6909 4.31576L26.7132 5.25342" stroke="#495B46" stroke-miterlimit="10"/>
<path d="M7.68436 14.8183C7.63391 14.8718 7.16822 14.8615 6.7064 14.8677C6.62749 14.87 6.56152 14.9297 6.55376 15.0082C6.52659 15.2893 6.53823 15.6013 6.58998 15.942C6.59644 15.9772 6.60033 15.9979 6.6055 15.9998C6.60809 16.0041 6.62749 16.0083 6.665 16.0125C7.00781 16.0515 7.31698 16.0534 7.59899 16.0163C7.6766 16.0059 7.73481 15.9378 7.73223 15.8592C7.72446 15.3968 7.6973 14.932 7.74904 14.8804C7.7982 14.8267 8.26389 14.8372 8.72571 14.8286C8.80462 14.8286 8.8706 14.7685 8.87965 14.6881C8.90553 14.407 8.89388 14.0974 8.84213 13.7566C8.83567 13.719 8.83179 13.7007 8.82791 13.6965C8.82532 13.6922 8.80462 13.6904 8.7697 13.6861C8.42689 13.647 8.11513 13.6447 7.83571 13.68C7.7568 13.6922 7.69989 13.7586 7.70119 13.8389C7.71024 14.3017 7.7361 14.7647 7.68436 14.8183ZM10.0853 12.6437C10.0853 12.5746 10.0297 12.5168 9.9611 12.5168L9.04264 12.5088C8.97408 12.5088 8.91587 12.5643 8.91587 12.6339L8.90812 13.5471C8.90812 13.6161 8.96374 13.674 9.0336 13.674L9.95075 13.6818C10.0193 13.6818 10.0775 13.6265 10.0775 13.5569L10.0853 12.6437ZM23.1727 7.98055C23.1727 7.90164 23.2348 7.84006 23.3124 7.84006H24.1416C24.2205 7.84006 24.2878 7.78845 24.3085 7.71174C24.377 7.47449 24.377 7.12522 24.311 6.6665C24.3007 6.6026 24.2464 6.55513 24.1804 6.55513H23.2981C23.2141 6.55513 23.1442 6.62524 23.1442 6.70984V7.64551C23.1442 7.71795 23.086 7.77564 23.0136 7.77564H22.1132C22.0472 7.77564 21.9929 7.82972 21.9929 7.89556V8.81479C21.9929 8.92009 22.0783 9.00521 22.1831 9.00521H22.8829C23.042 9.00521 23.1727 8.87495 23.1727 8.7157V7.98055Z" stroke="#767467" stroke-miterlimit="10"/>
<path d="M5.38427 3.0884L5.37355 4.04663C5.37087 4.1666 5.46872 4.26565 5.58801 4.26565H6.37883C6.46193 4.26565 6.53029 4.332 6.53029 4.4147V5.146C6.53029 5.27388 6.63349 5.37722 6.76217 5.37722H7.52216C7.61867 5.37722 7.69909 5.45751 7.69909 5.55482V6.42056C7.69909 6.5239 7.7822 6.6062 7.88541 6.6062H8.74056C8.80892 6.6062 8.86387 6.66638 8.85851 6.73447C8.84645 6.86462 8.86253 7.11889 8.90944 7.49674C8.94295 7.77179 9.22577 7.8624 9.75656 7.76509C9.90802 7.73654 10.0501 7.83988 10.0729 7.99027C10.0756 7.99456 10.0796 8.16599 10.0903 8.50484C10.1024 8.94475 10.3932 9.10787 10.9656 8.99045C11.1224 8.95936 11.2698 9.07919 11.2698 9.23802V9.88287C11.2698 10.0252 11.3851 10.1409 11.5258 10.1409H12.2376C12.3368 10.1409 12.4185 10.2217 12.4185 10.3209V11.0522C12.4185 11.2068 12.5378 11.335 12.692 11.3474L13.6034 11.4154L13.6396 12.1717C13.6463 12.3536 13.7964 12.4959 13.9774 12.4959H18.1687C18.229 12.4959 18.2853 12.4612 18.3095 12.4071C18.4033 12.2069 18.4301 11.9343 18.3899 11.5912C18.4663 11.4239 18.7705 11.3534 19.3013 11.3764C19.4541 11.3845 19.5828 11.2626 19.5828 11.11V10.3251C19.5828 10.2255 19.6632 10.1452 19.7597 10.1452H20.5733C20.6712 10.1452 20.7516 10.0648 20.7516 9.96745V9.17649C20.7516 9.06042 20.8468 8.96552 20.9621 8.96552H21.7877C21.8896 8.96552 21.9727 9.04822 21.9727 9.14929V9.95525C21.9727 10.0276 21.9137 10.0854 21.8427 10.0854H20.9929C20.8615 10.0854 20.7556 10.1908 20.7556 10.3228V11.0151C20.7556 11.1659 20.8776 11.2876 21.0291 11.2876H21.8427C21.9191 11.2876 21.9807 11.3496 21.9807 11.4258V12.3286C21.9807 12.4029 21.9191 12.465 21.844 12.465L20.7168 12.4588L20.6953 11.68C20.6913 11.5109 20.5506 11.3742 20.379 11.3742H19.9045C19.7557 11.3742 19.6364 11.4963 19.6364 11.6448V12.2732C19.6364 12.3845 19.5453 12.4734 19.4327 12.4734H18.6419C18.4877 12.4734 18.3631 12.5993 18.3631 12.7545V13.2893C18.3631 13.4857 18.2049 13.6446 18.0079 13.6446H13.9693C13.8433 13.6446 13.7334 13.5599 13.7026 13.4382L13.5418 12.7916C13.5016 12.6364 13.3662 12.527 13.2067 12.519L12.6303 12.4959C12.5217 12.4918 12.4386 12.3967 12.4453 12.2872C12.4494 12.2111 12.44 12.0541 12.4199 11.8145C12.377 11.3206 11.8167 11.2566 11.4615 11.3886C11.3958 11.4136 11.3543 11.4775 11.3556 11.5456L11.3771 12.4301L10.1453 12.4818C10.1225 12.4837 10.1024 12.4631 10.1037 12.4404L10.1479 11.3886C10.1493 11.3496 10.1828 11.3163 10.2217 11.3163H11.0299C11.1532 11.3163 11.2524 11.2171 11.2524 11.0935V10.4177C11.2524 10.2382 11.1077 10.0934 10.928 10.0934H10.3624C10.3088 10.0934 10.2632 10.0582 10.2512 10.007L10.0488 9.19901C10.0005 9.01297 9.83967 8.88094 9.64799 8.87236L9.17618 8.85414C9.12123 8.85172 9.07297 8.81272 9.05957 8.75911L8.83572 7.86857C8.81696 7.7919 8.75128 7.73841 8.67219 7.73654L8.05027 7.70973C7.87066 7.70316 7.72858 7.55465 7.72858 7.37276V6.72228C7.72858 6.64561 7.66826 6.58167 7.59186 6.57752L6.89219 6.53422C6.67102 6.52162 6.51152 6.31722 6.55307 6.10008C6.60803 5.79447 6.56513 5.37534 6.07858 5.41005C5.81721 5.42895 5.61347 5.42038 5.46201 5.38754C5.38829 5.37105 5.33602 5.30484 5.33602 5.23058V4.54069C5.33602 4.39593 5.22074 4.2761 5.07598 4.26993L2.95016 4.18951L2.95285 3.16266C2.95285 3.08612 2.88984 3.02406 2.81344 3.02406H1.94354C1.87116 3.02406 1.81353 3.08411 1.81353 3.15663V19.4496C1.81353 19.5094 1.86178 19.5591 1.9221 19.5611L2.69147 19.5902C2.85098 19.6231 2.93407 19.5591 2.94211 19.3961C2.9649 18.9891 2.97428 18.6954 2.9716 18.5178C2.96892 18.452 3.02388 18.396 3.0909 18.396H4.02379C4.09617 18.396 4.1565 18.3363 4.1565 18.2639V17.2948C4.1565 17.2328 4.20877 17.1835 4.27043 17.1853L5.206 17.2249C5.28508 17.229 5.35076 17.1647 5.35076 17.0843V16.2435C5.35076 16.1566 5.42046 16.0865 5.50759 16.0865H6.30511C6.41502 16.0865 6.50348 16.1754 6.50348 16.2849V17.1051C6.50348 17.1878 6.43646 17.2536 6.3547 17.2536H5.41242C5.36551 17.2536 5.32797 17.2911 5.32797 17.3385V18.3011C5.32797 18.357 5.2824 18.4021 5.22744 18.4021H4.34013C4.26373 18.4021 4.20206 18.4623 4.19804 18.5384L4.15248 19.5859L3.17132 19.5469C3.07214 19.5428 2.98769 19.6231 2.98769 19.7223V20.5466C2.98769 20.6397 3.06409 20.7159 3.15657 20.7159H28.9239C28.9761 20.7159 29.0163 20.6726 29.0163 20.6208V19.8008C29.0163 19.7078 28.9399 19.6317 28.8474 19.6317H28.0352C27.9896 19.6317 27.9467 19.6086 27.9199 19.5696C27.9052 19.5469 27.8931 19.5221 27.8824 19.4953L27.8583 18.5347C27.8556 18.4642 27.7979 18.4087 27.7282 18.4087H26.7913C26.7283 18.4087 26.676 18.3547 26.6801 18.2907L26.7176 17.386C26.7203 17.3155 26.664 17.2577 26.5929 17.2577H25.6252C25.5542 17.2577 25.4992 17.2018 25.4992 17.1317V16.2003C25.4992 16.1321 25.4443 16.0762 25.3772 16.0762H24.4859C24.4055 16.0762 24.3398 16.0122 24.3398 15.9314V15.093C24.3398 14.9379 24.2151 14.8138 24.061 14.8138H23.3694C23.2635 14.8138 23.179 14.7292 23.179 14.6259V13.8946C23.179 13.8161 23.1254 13.7461 23.049 13.7273C22.8252 13.6713 22.5303 13.6634 22.1644 13.7024C22.0759 13.7108 21.9995 13.6427 21.9995 13.5539V12.645C21.9995 12.5908 22.0424 12.5477 22.096 12.5477H22.9967C23.0986 12.5477 23.1804 12.6322 23.1763 12.7337L23.1455 13.4669C23.1415 13.5722 23.2259 13.661 23.3318 13.661H24.1213C24.2178 13.661 24.2982 13.7395 24.2982 13.8368V14.7171C24.2982 14.7992 24.3653 14.8656 24.447 14.8656H25.3558C25.4308 14.8656 25.4925 14.9252 25.4925 15V15.9728C25.4925 16.0349 25.5421 16.0842 25.6011 16.0842H26.6117C26.672 16.0842 26.7203 16.1321 26.7203 16.1919V17.0618C26.7203 17.1336 26.7793 17.1938 26.8543 17.1938H27.7524C27.8207 17.1938 27.8743 17.2474 27.8743 17.3155V18.2926C27.8743 18.3607 27.9306 18.4149 27.9977 18.4149L29.0297 18.4124L29.0418 19.3896C29.0445 19.4991 29.133 19.5878 29.2415 19.5878H30.0002C30.1034 19.5878 30.1878 19.5032 30.1878 19.398V3.2223C30.1878 3.11521 30.1007 3.02634 29.9948 3.02634H29.2563C29.137 3.02634 29.0418 3.12325 29.0391 3.24308L29.0297 4.22852L28.0794 4.22008C27.9816 4.2182 27.9052 4.14166 27.9052 4.04663L27.8985 2.96428L28.9922 2.98318C29.0271 2.98318 29.0539 2.95584 29.0539 2.92112V1.88568C29.0539 1.85901 29.0311 1.83824 29.0043 1.83824H3.10966C3.04934 1.83824 3.00243 1.88569 3.00243 1.94587V2.89619C3.00243 2.95825 3.05069 3.00758 3.11369 3.00985L5.38427 3.0884ZM16.0013 -0.000212123C25.2968 0.00206651 30.0069 0.00206546 30.1329 0.00206546C30.1865 0.00206546 30.2267 0.0453605 30.2267 0.0969647V1.71653C30.2267 1.78046 30.2816 1.83448 30.3446 1.83448H31.8445C31.929 1.83448 32 1.90271 32 1.98729V20.658C32 20.7262 31.9437 20.7821 31.8753 20.7821H30.3527C30.2937 20.7821 30.2441 20.832 30.2441 20.8916V21.8875C30.2441 21.9533 30.1905 22.0073 30.1248 22.0073C20.7677 22.0049 16.0603 22.003 16 22.003C15.9397 22.003 11.2323 22.003 1.87652 22.0049C1.8095 22.0049 1.75455 21.9514 1.75455 21.8851L1.75588 20.8897C1.75588 20.8295 1.7063 20.7802 1.64598 20.7802H0.124665C0.0536253 20.7802 0 20.7243 0 20.6561L0.00268336 1.98487C0.00268336 1.90029 0.0723826 1.83221 0.156826 1.83221H1.65671C1.72372 1.83221 1.77466 1.77859 1.77466 1.71466V0.0946806C1.77466 0.0410658 1.81754 -0.000212123 1.86982 -0.000212123C1.99581 -0.000212123 6.70588 -0.000212123 16.0013 -0.000212123Z" fill="#010101"/>
<path d="M27.8987 2.96435C27.2693 2.92904 26.6266 2.92111 25.9747 2.93949C25.1245 2.9625 24.4819 2.97043 24.0468 2.96435C16.6816 2.87549 11.5789 2.87972 8.74122 2.98075C7.53396 3.02399 6.55282 3.02822 5.79514 2.99344C5.7396 2.99119 5.68539 2.99965 5.63382 3.01367L5.38391 3.08838L3.11352 3.00997C3.05137 3.00759 3.00244 2.95827 3.00244 2.89625V1.94591C3.00244 1.88575 3.05005 1.83828 3.10956 1.83828H29.0041C29.0319 1.83828 29.0544 1.85891 29.0544 1.88575V2.92111C29.0544 2.95589 29.0266 2.98312 28.9922 2.98312L27.8987 2.96435Z" fill="white"/>
<path d="M7.6848 14.8182C7.63323 14.8718 7.16916 14.8615 6.70641 14.8675C6.62708 14.8699 6.56098 14.9296 6.55304 15.0081C6.5266 15.2892 6.5385 15.6012 6.59006 15.9419C6.59667 15.9772 6.60065 15.9978 6.60461 15.9997C6.60858 16.0039 6.62709 16.0082 6.66411 16.0124C7.00787 16.0514 7.31724 16.0534 7.59886 16.0162C7.67686 16.0059 7.73504 15.9377 7.7324 15.8593C7.72447 15.3968 7.69802 14.9319 7.74959 14.8802C7.79851 14.8267 8.26391 14.837 8.72666 14.8285C8.80466 14.8285 8.87077 14.7684 8.8787 14.688C8.90647 14.407 8.89324 14.0973 8.84167 13.7565C8.83638 13.719 8.83242 13.7006 8.82713 13.6964C8.82581 13.6922 8.80466 13.6903 8.77028 13.6861C8.42653 13.6471 8.1145 13.6447 7.83553 13.68C7.75752 13.6922 7.69935 13.7584 7.70199 13.8388C7.70993 14.3017 7.73636 14.7647 7.6848 14.8182ZM10.0858 12.6437C10.0858 12.5745 10.0303 12.5168 9.96021 12.5168L9.04264 12.5087C8.97389 12.5087 8.91704 12.5642 8.91704 12.6338L8.90778 13.547C8.90778 13.616 8.96331 13.6738 9.03338 13.6738L9.95096 13.6818C10.0197 13.6818 10.0779 13.6263 10.0779 13.5568L10.0858 12.6437ZM23.1724 7.98049C23.1724 7.90156 23.2345 7.83995 23.3125 7.83995H24.1415C24.2209 7.83995 24.2883 7.78825 24.3094 7.7117C24.3769 7.47437 24.3769 7.1252 24.3108 6.66654C24.3002 6.60255 24.2473 6.55508 24.1812 6.55508H23.298C23.2134 6.55508 23.1446 6.62516 23.1446 6.70978V7.64546C23.1446 7.71778 23.0865 7.77569 23.0137 7.77569H22.1134C22.0473 7.77569 21.993 7.82964 21.993 7.89548V8.81476C21.993 8.92001 22.0777 9.00502 22.1834 9.00502H22.8842C23.0428 9.00502 23.1724 8.87492 23.1724 8.7156V7.98049ZM26.7131 5.2533C27.0688 5.38948 27.4284 5.42478 27.792 5.35854C27.8621 5.34625 27.9123 5.28662 27.9123 5.21615V4.50127C27.9123 4.42511 27.8581 4.36072 27.784 4.34433C27.4165 4.26817 27.0529 4.25971 26.6906 4.31564C26.3455 4.2141 25.9886 4.1977 25.621 4.26394C25.5483 4.27624 25.4954 4.3401 25.4954 4.4148V5.23677C25.4954 5.31108 25.4346 5.37124 25.3632 5.37124H24.476C24.3941 5.37124 24.328 5.43747 24.328 5.51971V6.37937C24.328 6.48276 24.4126 6.56725 24.5157 6.56725H25.3486C25.4452 6.56725 25.5232 6.48885 25.5232 6.39154V5.51601C25.5232 5.45771 25.5747 5.41685 25.6329 5.42716C26.1684 5.52817 26.5293 5.4704 26.7131 5.2533ZM27.8991 2.9644L27.9057 4.04684C27.9057 4.14177 27.9824 4.21833 28.0789 4.22018L29.0295 4.22864V18.4126L27.9982 18.415C27.9308 18.415 27.8753 18.3609 27.8753 18.2927V17.3156C27.8753 17.2475 27.8211 17.194 27.7523 17.194H26.8546C26.7792 17.194 26.7197 17.1338 26.7197 17.0619V16.1919C26.7197 16.1323 26.6721 16.0843 26.6126 16.0843H25.6025C25.5417 16.0843 25.4928 16.035 25.4928 15.973V15.0002C25.4928 14.9253 25.4306 14.8657 25.3566 14.8657H24.447C24.365 14.8657 24.2989 14.7995 24.2989 14.7172V13.8369C24.2989 13.7396 24.2182 13.6611 24.1217 13.6611H23.3324C23.2266 13.6611 23.142 13.5724 23.146 13.467L23.1764 12.7339C23.1817 12.6323 23.0984 12.5477 22.9979 12.5477H22.0962C22.0433 12.5477 21.9997 12.5909 21.9997 12.645V13.554C21.9997 13.6428 22.0763 13.7109 22.1649 13.7025C22.5298 13.6635 22.826 13.6714 23.0494 13.7275C23.1248 13.7462 23.179 13.8162 23.179 13.8947V14.626C23.179 14.7294 23.2636 14.814 23.3694 14.814H24.0609C24.2156 14.814 24.3399 14.938 24.3399 15.0931V15.9316C24.3399 16.0124 24.406 16.0764 24.4866 16.0764H25.3764C25.4452 16.0764 25.4994 16.1323 25.4994 16.2004V17.132C25.4994 17.2019 25.5549 17.2578 25.625 17.2578H26.5941C26.6642 17.2578 26.7197 17.3156 26.7171 17.3862L26.68 18.2908C26.6761 18.3548 26.7276 18.4089 26.7924 18.4089H27.7285C27.7986 18.4089 27.8554 18.4643 27.8581 18.5348L27.8832 19.4954L27.8396 19.5387C27.8065 19.5716 27.7589 19.5861 27.7113 19.5801C26.4553 19.3939 25.1226 19.6007 23.9697 19.5983C17.1183 19.5922 11.8165 19.5801 8.06955 19.5569C7.65175 19.5551 6.99993 19.5674 6.10881 19.5946C5.45038 19.6152 4.79724 19.613 4.15335 19.5861L4.19831 18.5386C4.20228 18.4625 4.26442 18.4023 4.3411 18.4023H5.22694C5.28247 18.4023 5.32874 18.3571 5.32874 18.3011V17.3386C5.32874 17.2913 5.36576 17.2536 5.41335 17.2536H6.35472C6.4367 17.2536 6.50412 17.1879 6.50412 17.1051V16.285C6.50412 16.1755 6.41422 16.0867 6.3058 16.0867H5.50723C5.42129 16.0867 5.35121 16.1568 5.35121 16.2436V17.0844C5.35121 17.1648 5.2851 17.2292 5.20577 17.2249L4.2697 17.1855C4.20888 17.1835 4.15732 17.233 4.15732 17.295V18.2641C4.15732 18.3364 4.0965 18.3961 4.02378 18.3961H3.09167C3.02424 18.3961 2.96871 18.4521 2.97135 18.5178C2.97532 18.6955 2.96475 18.9893 2.94227 19.3963C2.93434 19.5593 2.85104 19.6233 2.69238 19.5904C2.76378 19.3238 2.81666 18.8816 2.84839 18.2641C2.94623 16.5017 2.98722 14.9071 2.97268 13.4797C2.94624 10.7774 2.93433 9.42242 2.93433 9.41211C2.9502 7.66238 2.95681 5.92244 2.9502 4.18977L5.07621 4.27002C5.22032 4.27624 5.33667 4.39602 5.33667 4.5408V5.23069C5.33667 5.305 5.38824 5.37124 5.46228 5.38763C5.613 5.42055 5.81793 5.42902 6.07839 5.41024C6.56494 5.37547 6.60857 5.79472 6.55304 6.10014C6.51206 6.31723 6.67072 6.52177 6.89284 6.53446L7.59225 6.57769C7.66893 6.58192 7.72844 6.64578 7.72844 6.72233V7.37283C7.72844 7.55476 7.87122 7.70324 8.05103 7.70985L8.67244 7.73656C8.75177 7.73854 8.81788 7.79208 8.83639 7.86864L9.05983 8.75923C9.07305 8.81291 9.12065 8.85192 9.17618 8.85416L9.64818 8.87254C9.83989 8.881 10.0012 9.01308 10.0488 9.19911L10.2511 10.0071C10.263 10.0582 10.3093 10.0935 10.3621 10.0935H10.9293C11.1078 10.0935 11.2533 10.2383 11.2533 10.4179V11.0936C11.2533 11.2172 11.1541 11.3164 11.0298 11.3164H10.222C10.1823 11.3164 10.1493 11.3498 10.148 11.3888L10.1043 12.4406C10.1017 12.4632 10.1228 12.4838 10.1453 12.482L11.3762 12.4303L12.1127 12.5149C12.2039 12.5252 12.2832 12.5849 12.3189 12.67L12.5424 13.186C12.5767 13.2668 12.6415 13.3307 12.7195 13.3702C13.883 13.9361 14.6432 14.2707 14.9989 14.3741C15.7353 14.587 16.7693 14.6674 18.0927 14.6114C18.1694 14.6096 18.2395 14.5664 18.2752 14.4981C18.5251 14.0249 18.8781 13.6714 19.3382 13.4421C19.3924 13.4153 19.4334 13.3702 19.4572 13.3161L19.7626 12.6202C19.793 12.5501 19.8618 12.5022 19.9384 12.4984L20.7172 12.4589L21.845 12.4651C21.919 12.4651 21.9812 12.4031 21.9812 12.3288V11.4259C21.9812 11.3498 21.919 11.2877 21.8423 11.2877H21.0292C20.8772 11.2877 20.7555 11.1661 20.7555 11.0152V10.3229C20.7555 10.1908 20.8613 10.0855 20.9935 10.0855H21.8423C21.915 10.0855 21.9719 10.0277 21.9719 9.95538V9.1494C21.9719 9.04839 21.8899 8.96562 21.7881 8.96562H20.9618C20.8467 8.96562 20.7516 9.06055 20.7516 9.17664V9.96754C20.7516 10.0649 20.6709 10.1452 20.5744 10.1452H19.76C19.6634 10.1452 19.5828 10.2256 19.5828 10.3252V11.1101C19.5828 11.2628 19.4545 11.3846 19.3012 11.3765C18.771 11.3535 18.4669 11.424 18.3902 11.5914C16.8724 11.6966 15.6613 11.7196 14.7543 11.6595C14.5745 11.6473 14.1911 11.5664 13.604 11.4156L12.6931 11.3475C12.5384 11.3352 12.4181 11.2069 12.4181 11.0524V10.3209C12.4181 10.2218 12.3374 10.141 12.2383 10.141H11.5256C11.3855 10.141 11.2691 10.0254 11.2691 9.88305V9.23824C11.2691 9.07932 11.1224 8.95954 10.9664 8.99048C10.3939 9.10802 10.1017 8.94499 10.0898 8.50498C10.0792 8.16612 10.0752 7.99464 10.0739 7.99041C10.0501 7.83995 9.90865 7.73656 9.7566 7.76525C9.22642 7.86256 8.94348 7.77186 8.91043 7.49698C8.86283 7.11911 8.84697 6.86486 8.85887 6.73463C8.86416 6.66654 8.80862 6.60639 8.74119 6.60639H7.88576C7.78264 6.60639 7.69935 6.52402 7.69935 6.42062V5.55502C7.69935 5.45771 7.61869 5.37732 7.52217 5.37732H6.76194C6.63369 5.37732 6.53057 5.27393 6.53057 5.14608V4.4148C6.53057 4.33203 6.46182 4.26579 6.37985 4.26579H5.58788C5.46889 4.26579 5.37105 4.16663 5.37369 4.04684L5.38426 3.08855L5.63415 3.01385C5.68572 2.99971 5.73993 2.99125 5.79546 2.99363C6.55305 3.0284 7.53408 3.02416 8.74119 2.98093C11.5798 2.87992 16.682 2.87569 24.0463 2.9644C24.4826 2.97062 25.1252 2.96255 25.974 2.93955C26.6272 2.92117 27.2697 2.92923 27.8991 2.9644Z" fill="#EAE6CC"/>
<path d="M2.95028 4.18972C2.95609 5.92248 2.95029 7.66234 2.93402 9.41207C2.93402 9.42241 2.94564 10.7774 2.97237 13.4797C2.98748 14.907 2.94563 16.5017 2.84915 18.2641C2.81544 18.8816 2.7643 19.3239 2.69223 19.5903L1.92158 19.5613C1.86113 19.5593 1.81348 19.5095 1.81348 19.4498V3.15672C1.81348 3.0843 1.8716 3.02409 1.94367 3.02409H2.81428C2.88984 3.02409 2.95261 3.08616 2.95261 3.16276L2.95028 4.18972Z" fill="white"/>
<path d="M29.0293 18.4124V4.22861L29.0399 3.2431C29.0413 3.1232 29.137 3.02643 29.2566 3.02643H29.9943C30.102 3.02643 30.1884 3.11523 30.1884 3.22236V19.3981C30.1884 19.5033 30.1033 19.5879 30.001 19.5879H29.242C29.133 19.5879 29.0439 19.4991 29.0413 19.3896L29.0293 18.4124Z" fill="#BFB89E"/>
<path d="M26.6911 4.31577L26.7133 5.25343C26.5302 5.47055 26.1679 5.52823 25.633 5.42726C25.5754 5.41692 25.5231 5.45773 25.5231 5.51606V6.3916C25.5231 6.48891 25.4446 6.56738 25.3478 6.56738H24.5147C24.4127 6.56738 24.3276 6.48276 24.3276 6.37944V5.51986C24.3276 5.43759 24.393 5.37128 24.4767 5.37128H25.3622C25.4355 5.37128 25.4943 5.31111 25.4943 5.23695V4.41491C25.4943 4.34023 25.5479 4.27627 25.6212 4.26411C25.9887 4.1978 26.3458 4.21427 26.6911 4.31577Z" fill="#010101"/>
<path d="M26.7143 5.25292L26.6919 4.31525C27.0523 4.25935 27.4166 4.26777 27.7836 4.34393C27.8586 4.36037 27.9125 4.42482 27.9125 4.50097V5.2157C27.9125 5.2862 27.8625 5.34592 27.7928 5.35815C27.4285 5.42444 27.0694 5.38919 26.7143 5.25292Z" fill="#91B58A"/>
<path d="M23.1724 7.98071V8.71586C23.1724 8.87511 23.0418 9.00537 22.8827 9.00537H22.1828C22.0781 9.00537 21.9927 8.92026 21.9927 8.81496V7.89572C21.9927 7.82988 22.047 7.7758 22.113 7.7758H23.0133C23.0858 7.7758 23.144 7.71811 23.144 7.64567V6.71C23.144 6.6254 23.2138 6.55529 23.2979 6.55529H24.1802C24.2461 6.55529 24.3005 6.60276 24.3108 6.66667C24.3768 7.12538 24.3768 7.47465 24.3082 7.7119C24.2875 7.78861 24.2203 7.84023 24.1413 7.84023H23.3122C23.2345 7.84023 23.1724 7.9018 23.1724 7.98071Z" fill="#010101"/>
<path d="M20.7167 12.4591L19.9375 12.4986C19.8612 12.5024 19.7926 12.5504 19.7621 12.6204L19.457 13.3164C19.4341 13.3705 19.3922 13.4156 19.3388 13.4423C18.8786 13.6716 18.5253 14.0251 18.2749 14.4984C18.2405 14.5665 18.1693 14.6098 18.0931 14.6117C16.7685 14.6676 15.7364 14.5873 14.9991 14.3743C14.6432 14.2709 13.883 13.9363 12.7199 13.3705C12.6411 13.331 12.5776 13.267 12.542 13.1862L12.3195 12.6702C12.2839 12.5851 12.2038 12.5255 12.1123 12.515L11.3763 12.4305L11.356 11.546C11.3547 11.4779 11.3954 11.414 11.4615 11.389C11.8174 11.257 12.3767 11.3209 12.4199 11.8149C12.4403 12.0545 12.4492 12.2115 12.4454 12.2876C12.439 12.3972 12.5216 12.492 12.631 12.4963L13.2068 12.5193C13.3657 12.5274 13.503 12.6368 13.5424 12.7919L13.7038 13.4386C13.7343 13.5603 13.8436 13.645 13.9695 13.645H18.0079C18.2049 13.645 18.3638 13.4861 18.3638 13.2897V12.7548C18.3638 12.5997 18.4871 12.4737 18.6422 12.4737H19.4341C19.546 12.4737 19.6362 12.3849 19.6362 12.2735V11.6452C19.6362 11.4967 19.7557 11.3744 19.9045 11.3744H20.3799C20.5515 11.3744 20.6913 11.5112 20.6964 11.6804L20.7167 12.4591Z" fill="#BFB89E"/>
<path d="M18.3911 11.5915C18.4301 11.9345 18.4037 12.2071 18.3107 12.4073C18.2855 12.4614 18.2302 12.4961 18.1699 12.4961H13.9774C13.7963 12.4961 13.648 12.3538 13.6392 12.1719L13.604 11.4156C14.1911 11.5666 14.5758 11.6474 14.7543 11.6596C15.6619 11.7197 16.8725 11.6967 18.3911 11.5915Z" fill="white"/>
<path d="M10.0777 13.5567C10.0777 13.6263 10.0198 13.6816 9.95109 13.6816L9.03339 13.6737C8.96465 13.6737 8.90918 13.6159 8.90918 13.5468L8.91641 12.6337C8.91641 12.5641 8.97429 12.5086 9.04423 12.5086L9.96074 12.5166C10.0307 12.5166 10.0862 12.5744 10.0862 12.6436L10.0777 13.5567Z" fill="#010101"/>
<path d="M8.8287 13.6964C8.8323 13.7007 8.8371 13.7191 8.84309 13.7566C8.89463 14.0974 8.90661 14.4071 8.88024 14.6881C8.87185 14.7685 8.80593 14.8287 8.72681 14.8287C8.26412 14.8371 7.79903 14.8268 7.74988 14.8804C7.69834 14.932 7.7247 15.3969 7.73309 15.8593C7.73549 15.9377 7.67796 16.0059 7.59885 16.0162C7.31836 16.0534 7.00789 16.0515 6.66507 16.0125C6.62791 16.0083 6.60993 16.004 6.60513 15.9998C6.60153 15.9979 6.59674 15.9773 6.59074 15.942C6.5392 15.6013 6.52722 15.2892 6.55359 15.0081C6.56198 14.9296 6.62791 14.8699 6.70702 14.8677C7.16971 14.8615 7.6348 14.8719 7.68515 14.8183C7.73789 14.7647 7.71032 14.3018 7.70313 13.8388C7.70073 13.7585 7.75827 13.6922 7.83619 13.68C8.11548 13.6448 8.42714 13.6472 8.76996 13.6861C8.80592 13.6903 8.8263 13.6922 8.8287 13.6964Z" fill="#010101"/>
<path d="M27.8824 19.4953C27.8929 19.522 27.9062 19.547 27.9194 19.5695C27.9471 19.6086 27.9908 19.6316 28.0357 19.6316H28.8475C28.94 19.6316 29.0167 19.7077 29.0167 19.8008V20.6209C29.0167 20.6726 28.9757 20.7158 28.9241 20.7158H3.15702C3.06315 20.7158 2.98779 20.6397 2.98779 20.5466V19.7223C2.98779 19.6231 3.0724 19.5427 3.17155 19.547L4.15253 19.586C4.79638 19.6128 5.44948 19.6151 6.10919 19.5944C6.99895 19.5672 7.65205 19.5549 8.06982 19.5568C11.8166 19.5799 17.1181 19.5921 23.9704 19.5981C25.1232 19.6005 26.4558 19.3938 27.7105 19.5799C27.7594 19.586 27.807 19.5714 27.8401 19.5385L27.8824 19.4953Z" fill="#BFB89E"/>
</svg>
