<svg width="58" height="116" viewBox="0 0 58 116" fill="none" xmlns="http://www.w3.org/2000/svg">
<path d="M58.0006 96.6658V92.799H54.1338V96.6658H58.0006Z" fill="black"/>
<path d="M58.0006 100.532V96.6657H54.1338V100.532H58.0006Z" fill="black"/>
<path d="M58.0006 104.399V100.532H54.1338V104.399H58.0006Z" fill="black"/>
<path d="M54.1339 69.5994V65.7326H50.2671V69.5994H54.1339Z" fill="black"/>
<path d="M54.1339 73.4661V69.5993H50.2671V73.4661H54.1339Z" fill="black"/>
<path d="M54.1339 77.333V73.4662H50.2671V77.333H54.1339Z" fill="black"/>
<path d="M54.1339 81.1987V77.3329H50.2671V81.1987H54.1339Z" fill="black"/>
<path d="M54.1339 92.7991V88.9333H50.2671V92.7991H54.1339Z" fill="black"/>
<path d="M54.1339 96.6658V92.799H50.2671V96.6658H54.1339Z" fill="#93572E"/>
<path d="M54.1339 100.532V96.6657H50.2671V100.532H54.1339Z" fill="#93572E"/>
<path d="M54.1339 104.399V100.532H50.2671V104.399H54.1339Z" fill="#93572E"/>
<path d="M54.1339 108.266V104.399H50.2671V108.266H54.1339Z" fill="black"/>
<path d="M50.2672 65.7327V61.8659H46.4004V65.7327H50.2672Z" fill="black"/>
<path d="M50.2672 69.5994V65.7326H46.4004V69.5994H50.2672Z" fill="#93572E"/>
<path d="M50.2672 73.4661V69.5993H46.4004V73.4661H50.2672Z" fill="#93572E"/>
<path d="M50.2672 77.333V73.4662H46.4004V77.333H50.2672Z" fill="#93572E"/>
<path d="M50.2672 81.1987V77.3329H46.4004V81.1987H50.2672Z" fill="#93572E"/>
<path d="M50.2672 85.0654V81.1987H46.4004V85.0654H50.2672Z" fill="black"/>
<path d="M50.2672 88.9331V85.0654H46.4004V88.9331H50.2672Z" fill="black"/>
<path d="M50.2672 92.7991V88.9333H46.4004V92.7991H50.2672Z" fill="#93572E"/>
<path d="M50.2672 96.6658V92.799H46.4004V96.6658H50.2672Z" fill="#C17744"/>
<path d="M50.2672 100.532V96.6657H46.4004V100.532H50.2672Z" fill="#C17744"/>
<path d="M50.2672 104.399V100.532H46.4004V104.399H50.2672Z" fill="#C17744"/>
<path d="M50.2672 108.266V104.399H46.4004V108.266H50.2672Z" fill="#93572E"/>
<path d="M50.2672 112.133V108.266H46.4004V112.133H50.2672Z" fill="black"/>
<path d="M46.4005 61.8657V57.999H42.5337V61.8657H46.4005Z" fill="black"/>
<path d="M46.4005 65.7327V61.8659H42.5337V65.7327H46.4005Z" fill="#93572E"/>
<path d="M46.4005 69.5994V65.7326H42.5337V69.5994H46.4005Z" fill="#93572E"/>
<path d="M46.4005 73.4661V69.5993H42.5337V73.4661H46.4005Z" fill="#C17744"/>
<path d="M46.4005 77.333V73.4662H42.5337V77.333H46.4005Z" fill="#93572E"/>
<path d="M46.4005 81.1987V77.3329H42.5337V81.1987H46.4005Z" fill="#C17744"/>
<path d="M46.4005 85.0654V81.1987H42.5337V85.0654H46.4005Z" fill="#93572E"/>
<path d="M46.4005 88.9331V85.0654H42.5337V88.9331H46.4005Z" fill="#93572E"/>
<path d="M46.4005 92.7991V88.9333H42.5337V92.7991H46.4005Z" fill="#C17744"/>
<path d="M46.4005 96.6658V92.799H42.5337V96.6658H46.4005Z" fill="#C17744"/>
<path d="M46.4005 100.532V96.6657H42.5337V100.532H46.4005Z" fill="#C17744"/>
<path d="M46.4005 104.399V100.532H42.5337V104.399H46.4005Z" fill="#C17744"/>
<path d="M46.4005 108.266V104.399H42.5337V108.266H46.4005Z" fill="#C17744"/>
<path d="M46.4005 112.133V108.266H42.5337V112.133H46.4005Z" fill="#93572E"/>
<path d="M46.4005 116V112.133H42.5337V116H46.4005Z" fill="black"/>
<path d="M42.5338 7.73218V3.86541H38.668V7.73218H42.5338Z" fill="black"/>
<path d="M42.5338 11.5999V7.73211H38.668V11.5999H42.5338Z" fill="black"/>
<path d="M42.5338 15.4656V11.5998H38.668V15.4656H42.5338Z" fill="black"/>
<path d="M42.5338 19.3323V15.4655H38.668V19.3323H42.5338Z" fill="black"/>
<path d="M42.5338 61.8657V57.999H38.668V61.8657H42.5338Z" fill="black"/>
<path d="M42.5338 65.7327V61.8659H38.668V65.7327H42.5338Z" fill="#93572E"/>
<path d="M42.5338 69.5994V65.7326H38.668V69.5994H42.5338Z" fill="#C17744"/>
<path d="M42.5338 73.4661V69.5993H38.668V73.4661H42.5338Z" fill="#93572E"/>
<path d="M42.5338 77.333V73.4662H38.668V77.333H42.5338Z" fill="#C17744"/>
<path d="M42.5338 81.1987V77.3329H38.668V81.1987H42.5338Z" fill="#C17744"/>
<path d="M42.5338 85.0654V81.1987H38.668V85.0654H42.5338Z" fill="#C17744"/>
<path d="M42.5338 88.9331V85.0654H38.668V88.9331H42.5338Z" fill="#C17744"/>
<path d="M42.5338 92.7991V88.9333H38.668V92.7991H42.5338Z" fill="#C17744"/>
<path d="M42.5338 96.6658V92.799H38.668V96.6658H42.5338Z" fill="#C17744"/>
<path d="M42.5338 100.532V96.6657H38.668V100.532H42.5338Z" fill="#C17744"/>
<path d="M42.5338 104.399V100.532H38.668V104.399H42.5338Z" fill="#C17744"/>
<path d="M42.5338 108.266V104.399H38.668V108.266H42.5338Z" fill="#C17744"/>
<path d="M42.5338 112.133V108.266H38.668V112.133H42.5338Z" fill="#C17744"/>
<path d="M42.5338 116V112.133H38.668V116H42.5338Z" fill="black"/>
<path d="M38.6678 3.86621V0.000220592H34.8008V3.86621H38.6678Z" fill="black"/>
<path d="M38.668 7.73218V3.86541H34.8013V7.73218H38.668Z" fill="#636363"/>
<path d="M38.668 11.5999V7.73211H34.8013V11.5999H38.668Z" fill="#3A3A3A"/>
<path d="M38.668 15.4656V11.5998H34.8013V15.4656H38.668Z" fill="#636363"/>
<path d="M38.668 19.3323V15.4655H34.8013V19.3323H38.668Z" fill="#3A3A3A"/>
<path d="M38.668 23.1992V19.3325H34.8013V23.1992H38.668Z" fill="black"/>
<path d="M38.668 27.0659V23.1992H34.8013V27.0659H38.668Z" fill="black"/>
<path d="M38.668 30.9326V27.0659H34.8013V30.9326H38.668Z" fill="black"/>
<path d="M38.668 34.7996V30.9328H34.8013V34.7996H38.668Z" fill="black"/>
<path d="M38.668 38.6663V34.7995H34.8013V38.6663H38.668Z" fill="black"/>
<path d="M38.668 42.532V38.6662H34.8013V42.532H38.668Z" fill="black"/>
<path d="M38.668 46.3987V42.5319H34.8013V46.3987H38.668Z" fill="black"/>
<path d="M38.668 50.2656V46.3989H34.8013V50.2656H38.668Z" fill="black"/>
<path d="M38.668 54.1323V50.2656H34.8013V54.1323H38.668Z" fill="black"/>
<path d="M38.668 57.999V54.1323H34.8013V57.999H38.668Z" fill="black"/>
<path d="M38.668 61.8657V57.999H34.8013V61.8657H38.668Z" fill="black"/>
<path d="M38.668 65.7327V61.8659H34.8013V65.7327H38.668Z" fill="black"/>
<path d="M38.668 69.5994V65.7326H34.8013V69.5994H38.668Z" fill="#93572E"/>
<path d="M38.668 73.4661V69.5993H34.8013V73.4661H38.668Z" fill="#C17744"/>
<path d="M38.668 77.333V73.4662H34.8013V77.333H38.668Z" fill="#C17744"/>
<path d="M38.668 81.1987V77.3329H34.8013V81.1987H38.668Z" fill="#C17744"/>
<path d="M38.668 85.0654V81.1987H34.8013V85.0654H38.668Z" fill="#28221D"/>
<path d="M38.668 88.9331V85.0654H34.8013V88.9331H38.668Z" fill="#16120F"/>
<path d="M38.668 92.7991V88.9333H34.8013V92.7991H38.668Z" fill="#C17744"/>
<path d="M38.668 96.6658V92.799H34.8013V96.6658H38.668Z" fill="#C17744"/>
<path d="M38.668 100.532V96.6657H34.8013V100.532H38.668Z" fill="#C17744"/>
<path d="M38.668 104.399V100.532H34.8013V104.399H38.668Z" fill="#593311"/>
<path d="M38.668 108.266V104.399H34.8013V108.266H38.668Z" fill="#C17744"/>
<path d="M38.668 112.133V108.266H34.8013V112.133H38.668Z" fill="#C17744"/>
<path d="M38.668 116V112.133H34.8013V116H38.668Z" fill="black"/>
<path d="M34.8002 3.86597V-2.35489e-05H30.9326V3.86597H34.8002Z" fill="black"/>
<path d="M34.8006 7.73193V3.86517H30.9331V7.73193H34.8006Z" fill="#3A3A3A"/>
<path d="M34.8006 11.5996V7.73186H30.9331V11.5996H34.8006Z" fill="#3A3A3A"/>
<path d="M34.8006 15.4656V11.5998H30.9331V15.4656H34.8006Z" fill="#3A3A3A"/>
<path d="M34.8006 19.3323V15.4655H30.9331V19.3323H34.8006Z" fill="#3A3A3A"/>
<path d="M34.8006 23.199V19.3322H30.9331V23.199H34.8006Z" fill="#3A3A3A"/>
<path d="M34.8006 27.0657V23.1989H30.9331V27.0657H34.8006Z" fill="#494949"/>
<path d="M34.8006 30.9326V27.0659H30.9331V30.9326H34.8006Z" fill="#3A3A3A"/>
<path d="M34.8006 34.7993V30.9326H30.9331V34.7993H34.8006Z" fill="#3A3A3A"/>
<path d="M34.8006 38.666V34.7992H30.9331V38.666H34.8006Z" fill="#494949"/>
<path d="M34.8006 42.5317V38.666H30.9331V42.5317H34.8006Z" fill="#3A3A3A"/>
<path d="M34.8006 46.3987V42.5319H30.9331V46.3987H34.8006Z" fill="#3A3A3A"/>
<path d="M34.8006 50.2654V46.3986H30.9331V50.2654H34.8006Z" fill="#494949"/>
<path d="M34.8006 54.1321V50.2653H30.9331V54.1321H34.8006Z" fill="#3A3A3A"/>
<path d="M34.8006 57.9988V54.132H30.9331V57.9988H34.8006Z" fill="#494949"/>
<path d="M34.8006 61.8657V57.999H30.9331V61.8657H34.8006Z" fill="#3A3A3A"/>
<path d="M34.8006 65.7324V61.8656H30.9331V65.7324H34.8006Z" fill="#3A3A3A"/>
<path d="M34.8006 69.5991V65.7324H30.9331V69.5991H34.8006Z" fill="#494949"/>
<path d="M34.8006 73.4661V69.5993H30.9331V73.4661H34.8006Z" fill="#C17744"/>
<path d="M34.8006 77.3328V73.466H30.9331V77.3328H34.8006Z" fill="#C17744"/>
<path d="M34.8006 81.1985V77.3327H30.9331V81.1985H34.8006Z" fill="#28221D"/>
<path d="M34.8006 85.0652V81.1984H30.9331V85.0652H34.8006Z" fill="#28221D"/>
<path d="M34.8006 88.9331V85.0654H30.9331V88.9331H34.8006Z" fill="#28221D"/>
<path d="M34.8006 92.7988V88.933H30.9331V92.7988H34.8006Z" fill="#16120F"/>
<path d="M34.8006 96.6655V92.7988H30.9331V96.6655H34.8006Z" fill="#C17744"/>
<path d="M34.8006 100.532V96.6655H30.9331V100.532H34.8006Z" fill="#C17744"/>
<path d="M34.8006 104.399V100.532H30.9331V104.399H34.8006Z" fill="#593311"/>
<path d="M34.8006 108.266V104.399H30.9331V108.266H34.8006Z" fill="#C17744"/>
<path d="M34.8006 112.133V108.266H30.9331V112.133H34.8006Z" fill="#C17744"/>
<path d="M34.8006 116V112.133H30.9331V116H34.8006Z" fill="black"/>
<path d="M30.9328 3.86597V-2.35489e-05H27.0664V3.86597H30.9328Z" fill="black"/>
<path d="M30.9328 7.73193V3.86517H27.0664V7.73193H30.9328Z" fill="#3A3A3A"/>
<path d="M30.9328 11.5996V7.73186H27.0664V11.5996H30.9328Z" fill="#3A3A3A"/>
<path d="M30.9328 15.4656V11.5998H27.0664V15.4656H30.9328Z" fill="#3A3A3A"/>
<path d="M30.9328 19.3323V15.4655H27.0664V19.3323H30.9328Z" fill="#3A3A3A"/>
<path d="M30.9328 23.199V19.3322H27.0664V23.199H30.9328Z" fill="#494949"/>
<path d="M30.9328 27.0657V23.1989H27.0664V27.0657H30.9328Z" fill="#595959"/>
<path d="M30.9328 30.9326V27.0659H27.0664V30.9326H30.9328Z" fill="#595959"/>
<path d="M30.9328 34.7993V30.9326H27.0664V34.7993H30.9328Z" fill="#494949"/>
<path d="M30.9328 38.666V34.7992H27.0664V38.666H30.9328Z" fill="#595959"/>
<path d="M30.9328 42.5317V38.666H27.0664V42.5317H30.9328Z" fill="#595959"/>
<path d="M30.9328 46.3987V42.5319H27.0664V46.3987H30.9328Z" fill="#494949"/>
<path d="M30.9328 50.2654V46.3986H27.0664V50.2654H30.9328Z" fill="#595959"/>
<path d="M30.9328 54.1321V50.2653H27.0664V54.1321H30.9328Z" fill="#494949"/>
<path d="M30.9328 57.9988V54.132H27.0664V57.9988H30.9328Z" fill="#595959"/>
<path d="M30.9328 61.8657V57.999H27.0664V61.8657H30.9328Z" fill="#595959"/>
<path d="M30.9328 65.7324V61.8656H27.0664V65.7324H30.9328Z" fill="#494949"/>
<path d="M30.9328 69.5991V65.7324H27.0664V69.5991H30.9328Z" fill="#595959"/>
<path d="M30.9328 73.4661V69.5993H27.0664V73.4661H30.9328Z" fill="#C17744"/>
<path d="M30.9328 77.3328V73.466H27.0664V77.3328H30.9328Z" fill="#C17744"/>
<path d="M30.9328 81.1985V77.3327H27.0664V81.1985H30.9328Z" fill="#28221D"/>
<path d="M30.9328 85.0652V81.1984H27.0664V85.0652H30.9328Z" fill="#28221D"/>
<path d="M30.9328 88.9331V85.0654H27.0664V88.9331H30.9328Z" fill="#28221D"/>
<path d="M30.9328 92.7988V88.933H27.0664V92.7988H30.9328Z" fill="#16120F"/>
<path d="M30.9328 96.6655V92.7988H27.0664V96.6655H30.9328Z" fill="#C17744"/>
<path d="M30.9328 100.532V96.6655H27.0664V100.532H30.9328Z" fill="#C17744"/>
<path d="M30.9328 104.399V100.532H27.0664V104.399H30.9328Z" fill="#593311"/>
<path d="M30.9328 108.266V104.399H27.0664V108.266H30.9328Z" fill="#C17744"/>
<path d="M30.9328 112.133V108.266H27.0664V112.133H30.9328Z" fill="#C17744"/>
<path d="M30.9328 116V112.133H27.0664V116H30.9328Z" fill="black"/>
<path d="M27.0661 3.86597V-2.35489e-05H23.1997V3.86597H27.0661Z" fill="black"/>
<path d="M27.0667 7.73193V3.86517H23.2002V7.73193H27.0667Z" fill="#636363"/>
<path d="M27.0667 11.5996V7.73186H23.2002V11.5996H27.0667Z" fill="#3A3A3A"/>
<path d="M27.0667 15.4656V11.5998H23.2002V15.4656H27.0667Z" fill="#636363"/>
<path d="M27.0667 19.3323V15.4655H23.2002V19.3323H27.0667Z" fill="#3A3A3A"/>
<path d="M27.0667 23.199V19.3322H23.2002V23.199H27.0667Z" fill="black"/>
<path d="M27.0667 27.0657V23.1989H23.2002V27.0657H27.0667Z" fill="black"/>
<path d="M27.0667 30.9326V27.0659H23.2002V30.9326H27.0667Z" fill="black"/>
<path d="M27.0667 34.7993V30.9326H23.2002V34.7993H27.0667Z" fill="black"/>
<path d="M27.0667 38.666V34.7992H23.2002V38.666H27.0667Z" fill="black"/>
<path d="M27.0667 42.5317V38.666H23.2002V42.5317H27.0667Z" fill="black"/>
<path d="M27.0667 46.3987V42.5319H23.2002V46.3987H27.0667Z" fill="black"/>
<path d="M27.0667 50.2654V46.3986H23.2002V50.2654H27.0667Z" fill="black"/>
<path d="M27.0667 54.1321V50.2653H23.2002V54.1321H27.0667Z" fill="black"/>
<path d="M27.0667 57.9988V54.132H23.2002V57.9988H27.0667Z" fill="black"/>
<path d="M27.0667 61.8657V57.999H23.2002V61.8657H27.0667Z" fill="black"/>
<path d="M27.0667 65.7324V61.8656H23.2002V65.7324H27.0667Z" fill="black"/>
<path d="M27.0667 69.5991V65.7324H23.2002V69.5991H27.0667Z" fill="#C17744"/>
<path d="M27.0667 73.4661V69.5993H23.2002V73.4661H27.0667Z" fill="#C17744"/>
<path d="M27.0667 77.3328V73.466H23.2002V77.3328H27.0667Z" fill="#C17744"/>
<path d="M27.0667 81.1985V77.3327H23.2002V81.1985H27.0667Z" fill="#28221D"/>
<path d="M27.0667 85.0652V81.1984H23.2002V85.0652H27.0667Z" fill="#28221D"/>
<path d="M27.0667 88.9331V85.0654H23.2002V88.9331H27.0667Z" fill="#28221D"/>
<path d="M27.0667 92.7988V88.933H23.2002V92.7988H27.0667Z" fill="#16120F"/>
<path d="M27.0667 96.6655V92.7988H23.2002V96.6655H27.0667Z" fill="#C17744"/>
<path d="M27.0667 100.532V96.6655H23.2002V100.532H27.0667Z" fill="#C17744"/>
<path d="M27.0667 104.399V100.532H23.2002V104.399H27.0667Z" fill="#593311"/>
<path d="M27.0667 108.266V104.399H23.2002V108.266H27.0667Z" fill="#C17744"/>
<path d="M27.0667 112.133V108.266H23.2002V112.133H27.0667Z" fill="#C17744"/>
<path d="M27.0667 116V112.133H23.2002V116H27.0667Z" fill="black"/>
<path d="M23.2002 7.73193V3.86517H19.333V7.73193H23.2002Z" fill="black"/>
<path d="M23.2002 11.5996V7.73186H19.333V11.5996H23.2002Z" fill="black"/>
<path d="M23.2002 15.4656V11.5998H19.333V15.4656H23.2002Z" fill="black"/>
<path d="M23.2002 19.3323V15.4655H19.333V19.3323H23.2002Z" fill="black"/>
<path d="M23.2002 57.9988V54.132H19.333V57.9988H23.2002Z" fill="black"/>
<path d="M23.2002 61.8657V57.999H19.333V61.8657H23.2002Z" fill="#E58D51"/>
<path d="M23.2002 65.7324V61.8656H19.333V65.7324H23.2002Z" fill="#E58D51"/>
<path d="M23.2002 69.5991V65.7324H19.333V69.5991H23.2002Z" fill="#C17744"/>
<path d="M23.2002 73.4661V69.5993H19.333V73.4661H23.2002Z" fill="#C17744"/>
<path d="M23.2002 77.3328V73.466H19.333V77.3328H23.2002Z" fill="#C17744"/>
<path d="M23.2002 81.1985V77.3327H19.333V81.1985H23.2002Z" fill="#C17744"/>
<path d="M23.2002 85.0652V81.1984H19.333V85.0652H23.2002Z" fill="#28221D"/>
<path d="M23.2002 88.9331V85.0654H19.333V88.9331H23.2002Z" fill="#16120F"/>
<path d="M23.2002 92.7988V88.933H19.333V92.7988H23.2002Z" fill="#C17744"/>
<path d="M23.2002 96.6655V92.7988H19.333V96.6655H23.2002Z" fill="#C17744"/>
<path d="M23.2002 100.532V96.6655H19.333V100.532H23.2002Z" fill="#C17744"/>
<path d="M23.2002 104.399V100.532H19.333V104.399H23.2002Z" fill="#593311"/>
<path d="M23.2002 108.266V104.399H19.333V108.266H23.2002Z" fill="#C17744"/>
<path d="M23.2002 112.133V108.266H19.333V112.133H23.2002Z" fill="#C17744"/>
<path d="M23.2002 116V112.133H19.333V116H23.2002Z" fill="black"/>
<path d="M19.3328 61.8657V57.999H15.4663V61.8657H19.3328Z" fill="black"/>
<path d="M19.3328 65.7324V61.8656H15.4663V65.7324H19.3328Z" fill="#E58D51"/>
<path d="M19.3328 69.5991V65.7324H15.4663V69.5991H19.3328Z" fill="#E58D51"/>
<path d="M19.3328 73.4661V69.5993H15.4663V73.4661H19.3328Z" fill="#C17744"/>
<path d="M19.3328 77.3328V73.466H15.4663V77.3328H19.3328Z" fill="#C17744"/>
<path d="M19.3328 81.1985V77.3327H15.4663V81.1985H19.3328Z" fill="#C17744"/>
<path d="M19.3328 85.0652V81.1984H15.4663V85.0652H19.3328Z" fill="#C17744"/>
<path d="M19.3328 88.9331V85.0654H15.4663V88.9331H19.3328Z" fill="#C17744"/>
<path d="M19.3328 92.7988V88.933H15.4663V92.7988H19.3328Z" fill="#C17744"/>
<path d="M19.3328 96.6655V92.7988H15.4663V96.6655H19.3328Z" fill="#C17744"/>
<path d="M19.3328 100.532V96.6655H15.4663V100.532H19.3328Z" fill="#C17744"/>
<path d="M19.3328 104.399V100.532H15.4663V104.399H19.3328Z" fill="#C17744"/>
<path d="M19.3328 108.266V104.399H15.4663V108.266H19.3328Z" fill="#C17744"/>
<path d="M19.3328 112.133V108.266H15.4663V112.133H19.3328Z" fill="#C17744"/>
<path d="M19.3328 116V112.133H15.4663V116H19.3328Z" fill="black"/>
<path d="M15.4665 61.8657V57.999H11.6001V61.8657H15.4665Z" fill="black"/>
<path d="M15.4665 65.7324V61.8656H11.6001V65.7324H15.4665Z" fill="#E58D51"/>
<path d="M15.4665 69.5991V65.7324H11.6001V69.5991H15.4665Z" fill="#C17744"/>
<path d="M15.4665 73.4661V69.5993H11.6001V73.4661H15.4665Z" fill="#E58D51"/>
<path d="M15.4665 77.3328V73.466H11.6001V77.3328H15.4665Z" fill="#C17744"/>
<path d="M15.4665 81.1985V77.3327H11.6001V81.1985H15.4665Z" fill="#C17744"/>
<path d="M15.4665 85.0652V81.1984H11.6001V85.0652H15.4665Z" fill="#C17744"/>
<path d="M15.4665 88.9331V85.0654H11.6001V88.9331H15.4665Z" fill="#C17744"/>
<path d="M15.4665 92.7988V88.933H11.6001V92.7988H15.4665Z" fill="#C17744"/>
<path d="M15.4665 96.6655V92.7988H11.6001V96.6655H15.4665Z" fill="#C17744"/>
<path d="M15.4665 100.532V96.6655H11.6001V100.532H15.4665Z" fill="#C17744"/>
<path d="M15.4665 104.399V100.532H11.6001V104.399H15.4665Z" fill="#C17744"/>
<path d="M15.4665 108.266V104.399H11.6001V108.266H15.4665Z" fill="#C17744"/>
<path d="M15.4665 112.133V108.266H11.6001V112.133H15.4665Z" fill="#E58D51"/>
<path d="M15.4665 116V112.133H11.6001V116H15.4665Z" fill="black"/>
<path d="M11.6002 65.7324V61.8656H7.73291V65.7324H11.6002Z" fill="black"/>
<path d="M11.6002 69.5991V65.7324H7.73291V69.5991H11.6002Z" fill="#E58D51"/>
<path d="M11.6002 73.4661V69.5993H7.73291V73.4661H11.6002Z" fill="#E58D51"/>
<path d="M11.6002 77.3328V73.466H7.73291V77.3328H11.6002Z" fill="#E58D51"/>
<path d="M11.6002 81.1985V77.3327H7.73291V81.1985H11.6002Z" fill="#E58D51"/>
<path d="M11.6002 85.0652V81.1984H7.73291V85.0652H11.6002Z" fill="black"/>
<path d="M11.6002 88.9331V85.0654H7.73291V88.9331H11.6002Z" fill="black"/>
<path d="M11.6002 92.7988V88.933H7.73291V92.7988H11.6002Z" fill="#E58D51"/>
<path d="M11.6002 96.6655V92.7988H7.73291V96.6655H11.6002Z" fill="#C17744"/>
<path d="M11.6002 100.532V96.6655H7.73291V100.532H11.6002Z" fill="#C17744"/>
<path d="M11.6002 104.399V100.532H7.73291V104.399H11.6002Z" fill="#C17744"/>
<path d="M11.6002 108.266V104.399H7.73291V108.266H11.6002Z" fill="#E58D51"/>
<path d="M11.6002 112.133V108.266H7.73291V112.133H11.6002Z" fill="black"/>
<path d="M7.73268 69.5991V65.7324H3.86621V69.5991H7.73268Z" fill="black"/>
<path d="M7.73268 73.4661V69.5993H3.86621V73.4661H7.73268Z" fill="black"/>
<path d="M7.73268 77.3328V73.466H3.86621V77.3328H7.73268Z" fill="black"/>
<path d="M7.73268 81.1985V77.3327H3.86621V81.1985H7.73268Z" fill="black"/>
<path d="M7.73268 92.7988V88.933H3.86621V92.7988H7.73268Z" fill="black"/>
<path d="M7.73268 96.6655V92.7988H3.86621V96.6655H7.73268Z" fill="#C17744"/>
<path d="M7.73268 100.532V96.6655H3.86621V100.532H7.73268Z" fill="#C17744"/>
<path d="M7.73268 104.399V100.532H3.86621V104.399H7.73268Z" fill="#E58D51"/>
<path d="M7.73268 108.266V104.399H3.86621V108.266H7.73268Z" fill="black"/>
<path d="M3.86637 96.6655V92.7988H0V96.6655H3.86637Z" fill="black"/>
<path d="M3.86637 100.532V96.6655H0V100.532H3.86637Z" fill="black"/>
<path d="M3.86637 104.399V100.532H0V104.399H3.86637Z" fill="black"/>
</svg>
