<svg width="45" height="20" viewBox="0 0 45 20" fill="none" xmlns="http://www.w3.org/2000/svg">
<rect y="15" width="9" height="2" fill="black"/>
<rect x="9" y="13" width="5" height="2" fill="black"/>
<rect x="22" y="13" width="9" height="2" fill="black"/>
<rect x="39" y="13" width="6" height="2" fill="black"/>
<rect x="31" y="11" width="8" height="2" fill="black"/>
<rect x="14" y="11" width="8" height="2" fill="black"/>
<path d="M9 15H0V2H45V13H39V11H31V13H22V11H14V13H9V15Z" fill="#00874B"/>
<rect x="9" y="11" width="5" height="2" fill="black" fill-opacity="0.2"/>
<rect x="14" y="9" width="8" height="2" fill="black" fill-opacity="0.2"/>
<rect x="22" y="11" width="9" height="2" fill="black" fill-opacity="0.2"/>
<rect x="31" y="9" width="8" height="2" fill="black" fill-opacity="0.2"/>
<rect x="39" y="11" width="6" height="2" fill="black" fill-opacity="0.2"/>
<path d="M0 17V20H11V17H22V20H31V17H39V20H45V15H39V13H31V15H22V13H14V15H9V17H0Z" fill="black" fill-opacity="0.36"/>
<rect y="13" width="9" height="2" fill="black" fill-opacity="0.2"/>
<rect y="1" width="45" height="1" fill="black"/>
<rect width="45" height="1" fill="black"/>
<rect y="2" width="45" height="1" fill="black" fill-opacity="0.2"/>
</svg>
