<svg width="34" height="33" viewBox="0 0 34 33" fill="none" xmlns="http://www.w3.org/2000/svg">
<path d="M23.4868 4.2803C23.4868 4.29557 23.4868 4.31383 23.4868 4.3291" stroke="#F0F5FB" stroke-miterlimit="10"/>
<path d="M23.4866 4.2804L23.516 3.20916C23.5177 3.11981 23.5894 3.05074 23.6766 3.05074H24.6029C24.7056 3.05074 24.7876 2.96795 24.7876 2.8654V1.90129C24.7876 1.80986 24.8636 1.73372 24.9551 1.73372H25.9125C26.0022 1.73372 26.0756 1.66008 26.0756 1.57073V0.636053C26.0756 0.559911 26.1352 0.500002 26.212 0.500002H32.4113C32.4674 0.500002 32.514 0.544116 32.514 0.599971V6.73264C32.514 6.82864 32.438 6.90478 32.3422 6.90478H31.371C31.2795 6.90478 31.2061 6.97843 31.2061 7.06976V7.94711C31.2061 8.05623 31.1172 8.14308 31.0076 8.14308H30.0674C29.9923 8.14308 29.9293 8.20602 29.9293 8.28371V9.38646C29.9293 9.46209 29.8689 9.52459 29.7938 9.52459H28.7984C28.7199 9.52459 28.6577 9.587 28.6577 9.66522V10.5511C28.6577 10.6405 28.586 10.7121 28.4971 10.7121H27.5536C27.4655 10.7121 27.3947 10.7832 27.3947 10.8704V11.828C27.3947 11.9128 27.3248 11.9799 27.2402 11.9799H26.2742C26.1827 11.9799 26.1093 12.0555 26.1093 12.1469V13.176C26.1093 13.2562 26.042 13.3207 25.9617 13.3207H24.9439C24.8705 13.3207 24.8126 13.3791 24.8126 13.4502V14.4458C24.8126 14.526 24.7479 14.5905 24.6693 14.5905H23.6455C23.5669 14.5905 23.503 14.6554 23.503 14.7336V15.7622C23.503 15.8385 23.44 15.8984 23.364 15.8984H22.3531C22.2927 15.8984 22.2461 15.9451 22.2461 16.0055V16.9742C22.2461 17.0655 22.1701 17.1417 22.0786 17.1417H21.1394C21.0634 17.1417 21.0004 17.2042 21.0004 17.2798V18.2683C21.0004 18.342 20.9399 18.4023 20.8666 18.4044C20.6551 18.4115 20.3132 18.4136 19.8375 18.4155C19.7996 18.4155 19.7711 18.4293 19.7469 18.4583C19.7219 18.4872 19.7063 18.5186 19.6994 18.5542L19.6588 19.5696C19.6571 19.6478 19.595 19.7082 19.5164 19.7082H18.5573C18.483 19.7082 18.4226 19.7681 18.4226 19.8418V20.7927C18.4226 20.8795 18.3518 20.9511 18.2629 20.9511H17.3047C17.2183 20.9511 17.1467 21.0222 17.1467 21.1095V22.0914C17.1467 22.1696 17.0819 22.2341 17.0042 22.2341H16.0261C15.9364 22.2341 15.8656 22.3057 15.8656 22.395V24.6579C15.8656 24.7294 15.9234 24.7873 15.9951 24.7873H17.0526C17.1035 24.7873 17.1467 24.8295 17.1467 24.8813V28.5256C17.1467 28.6033 17.0819 28.6683 17.0042 28.6683H12.1828C12.0853 28.6683 12.0041 28.5901 12.0041 28.4921V27.4899C12.0041 27.4142 11.9445 27.3538 11.8686 27.3538H10.8818C10.8059 27.3538 10.7437 27.2934 10.7437 27.2177V26.2399C10.7437 26.1597 10.679 26.0952 10.5987 26.0952H9.57829C9.5144 26.0952 9.46002 26.1486 9.46002 26.2135V27.2553C9.46002 27.3224 9.40735 27.3762 9.34002 27.3762H8.29372C8.23502 27.3762 8.1884 27.4229 8.1884 27.4808V28.5165C8.1884 28.5947 8.12625 28.6571 8.04769 28.6571H7.00139C6.92974 28.6571 6.8719 28.715 6.8719 28.7866V29.7842C6.8719 29.8599 6.81147 29.9203 6.7355 29.9203H5.76689C5.68229 29.9203 5.61323 29.9894 5.61323 30.0742V32.3883C5.61323 32.4507 5.56402 32.5 5.50186 32.5H0.612227C0.549207 32.5 0.5 32.4507 0.5 32.3908V27.4406C0.5 27.396 0.5354 27.3604 0.578564 27.3604H2.87662C2.95346 27.3604 3.01561 27.2979 3.01561 27.2223V26.2358C3.01561 26.1597 3.07776 26.0972 3.15632 26.0972H4.12234C4.21816 26.0972 4.29413 26.0216 4.29413 25.9257V24.9234C4.29413 24.8498 4.35456 24.7894 4.42794 24.7894H5.49064C5.54676 24.7894 5.59337 24.7426 5.59337 24.6869V23.551C5.59337 23.4886 5.64431 23.4373 5.70646 23.4373H6.72687C6.7942 23.4373 6.84686 23.3815 6.84686 23.3145V22.3996C6.84686 22.3437 6.80024 22.299 6.74499 22.299H5.72718C5.65121 22.299 5.59078 22.2366 5.59078 22.1605V21.0871C5.59078 21.009 5.52604 20.9445 5.44575 20.9445H4.44866C4.36578 20.9445 4.29844 20.8774 4.29844 20.7947V15.9522C4.29844 15.8897 4.34766 15.8405 4.40981 15.8405H8.00366C8.08567 15.8405 8.153 15.9075 8.153 15.9877V16.9853C8.153 17.0701 8.22207 17.1392 8.30667 17.1392H10.603C10.6747 17.1392 10.7325 17.0813 10.7325 17.0098V16.0167C10.7325 15.9273 10.8059 15.8563 10.8957 15.8563H11.8824C11.9532 15.8563 12.0119 15.7978 12.0119 15.7242V14.7245C12.0119 14.6554 12.0697 14.5976 12.1388 14.5976H13.1411C13.2213 14.5976 13.2861 14.5326 13.2861 14.4545V13.4126C13.2861 13.3299 13.3526 13.2629 13.4328 13.2629H14.4394C14.5068 13.2629 14.562 13.207 14.562 13.1399V12.0844C14.562 12.0128 14.6199 11.955 14.6889 11.955H15.7585C15.812 11.955 15.8544 11.9128 15.8544 11.859V10.8528C15.8544 10.7811 15.9122 10.7233 15.9838 10.7233H17.0284C17.0845 10.7233 17.1311 10.6766 17.1311 10.6182V9.55808C17.1311 9.48695 17.189 9.42859 17.2606 9.42859H18.3251C18.37 9.42859 18.4054 9.39302 18.4054 9.34839V8.29286C18.4054 8.21266 18.4701 8.14765 18.5504 8.14765H19.5052C19.5682 8.14765 19.6191 8.09888 19.6191 8.03595V6.98041C19.6191 6.92049 19.6666 6.87129 19.7262 6.87129H20.8484C20.9115 6.87129 20.9607 6.82199 20.9607 6.75958V5.72839C20.9607 5.64819 21.0271 5.5812 21.1074 5.5812H22.1011C22.177 5.5812 22.2366 5.52129 22.2366 5.44765V4.48345C22.2366 4.38754 22.3152 4.30932 22.411 4.3114L23.4866 4.32918" stroke="#808080" stroke-miterlimit="10"/>
<path d="M19.7 18.5537C19.6176 18.5045 19.5148 18.471 19.3877 18.4532" stroke="#010101" stroke-miterlimit="10"/>
<path d="M19.3872 18.4535C19.5702 18.4561 19.6592 18.3866 19.6549 18.2459C19.6395 17.7128 19.6412 17.3823 19.6635 17.2554C19.6772 17.1817 19.7396 17.1279 19.814 17.1279H20.7822C20.8711 17.1279 20.9447 17.0543 20.9447 16.9649V15.9942C20.9447 15.9049 21.0182 15.8312 21.108 15.8312H22.0677C22.1412 15.8312 22.1994 15.7733 22.1994 15.6998V14.7559C22.1994 14.6686 22.2687 14.5995 22.3551 14.5995H23.2771C23.384 14.5995 23.4712 14.5127 23.4712 14.4056V13.4257C23.4712 13.3252 23.5542 13.2425 23.6542 13.2425H24.5651C24.6652 13.2425 24.7473 13.1602 24.7473 13.0576V12.129C24.7473 12.0376 24.8208 11.964 24.9132 11.964H25.8438C25.9755 11.964 26.0798 11.8589 26.0798 11.7274V10.8389C26.0798 10.7679 26.138 10.7094 26.2115 10.7094H27.1643C27.2849 10.7094 27.3807 10.6135 27.3807 10.4931V9.54676C27.3807 9.48895 27.4278 9.44225 27.4885 9.44225H28.4413C28.5439 9.44225 28.6286 9.3574 28.6286 9.25434V8.27042C28.6286 8.18762 28.6953 8.12108 28.7757 8.12108H29.8867C29.9141 8.12108 29.9346 8.10082 29.9346 8.07388V7.03616C29.9346 6.96252 29.9945 6.90264 30.068 6.90264H31.0747C31.15 6.90264 31.2107 6.84217 31.2107 6.76862V1.95447C31.2107 1.84328 31.1192 1.7539 31.008 1.75596L30.1151 1.77375" stroke="#505B5E" stroke-miterlimit="10"/>
<path d="M30.1155 1.77323L26.2613 1.77578C26.1696 1.77578 26.0958 1.84943 26.0958 1.94082V2.89377C26.0958 2.97396 26.0313 3.03895 25.9533 3.03895H25.0207C24.9426 3.03895 24.8773 3.09683 24.8705 3.17506C24.8416 3.45373 24.8442 3.72189 24.8773 3.98282C24.9019 4.1813 24.8645 4.29509 24.7661 4.32861" stroke="#808080" stroke-miterlimit="10"/>
<path d="M24.7656 4.3291L23.4873 4.28032" stroke="#71767C" stroke-miterlimit="10"/>
<path d="M19.3872 18.4539L18.5168 18.4269C18.4409 18.4249 18.3767 18.4873 18.3767 18.5656V19.5119C18.3767 19.5987 18.3047 19.6703 18.2178 19.6703H17.2957C17.2159 19.6703 17.1485 19.7373 17.1485 19.8196V20.8395C17.1485 20.9157 17.0891 20.9756 17.0123 20.9756H16.0402C15.9439 20.9756 15.868 21.0518 15.868 21.1478V22.0824C15.868 22.1631 15.8053 22.2256 15.7247 22.2276L12.1992 22.2632" stroke="#505B5E" stroke-miterlimit="10"/>
<path d="M12.1994 22.2627L12.0273 22.1266" stroke="#7C98B3" stroke-miterlimit="10"/>
<path d="M12.0276 22.1265L12.021 21.0552" stroke="#505B5E" stroke-miterlimit="10"/>
<path d="M26.0933 6.77316C26.4713 6.87773 26.8551 6.89805 27.2456 6.83311C27.3122 6.82195 27.3654 6.77066 27.3813 6.70364C27.5061 6.1345 27.4529 5.75518 27.2181 5.56786M14.6006 18.2104C14.6206 18.2972 14.6631 18.349 14.7322 18.3668C14.9237 18.4135 15.2567 18.4226 15.7296 18.3911C15.8012 18.3866 15.8545 18.3267 15.8545 18.2551V17.3376C15.8545 17.2219 15.951 17.1259 16.0668 17.1259H17.0667C17.1424 17.1259 17.2024 17.0655 17.2024 16.9899V16.0816C17.2024 15.9673 17.2939 15.876 17.408 15.876H18.278C18.3829 15.876 18.4695 15.7891 18.4695 15.6841V14.7534C18.4695 14.6574 18.5461 14.5818 18.6419 14.5818H19.5618C19.6551 14.5818 19.7309 14.5057 19.7309 14.4122V13.4389C19.7309 13.3521 19.8025 13.283 19.889 13.283H20.8382C20.9222 13.283 20.9922 13.2135 20.9922 13.1287V12.1737C20.9922 12.0889 21.0588 12.0199 21.1437 12.0199H22.1253C22.2144 12.0199 22.2885 11.9483 22.2885 11.8589V10.9349C22.2885 10.8369 22.3667 10.7587 22.465 10.7587H23.4091C23.5049 10.7587 23.5806 10.6805 23.5806 10.5845V9.69653C23.5806 9.58031 23.6747 9.4869 23.7879 9.4869H24.6921C24.7679 9.4869 24.8286 9.42645 24.8286 9.35085V8.33288C24.8286 8.22831 24.9152 8.14098 25.0201 8.14098H25.9243C26 8.14098 26.065 8.08761 26.0783 8.01152C26.1432 7.66117 26.1316 7.29759 26.0442 6.92244M12.0205 21.0557C12.0272 20.9642 12.0696 20.9221 12.1429 20.9267C12.5517 20.951 12.893 20.9622 13.1678 20.9577C13.2635 20.9556 13.3418 20.8774 13.3418 20.7815V19.8306C13.3418 19.7726 13.3884 19.7259 13.4467 19.7259H14.3816C14.4624 19.7259 14.529 19.6675 14.5398 19.5899C14.6006 19.1679 14.5848 18.7704 14.4957 18.3957" stroke="#72858D" stroke-miterlimit="10"/>
<path d="M23.5156 5.94727L23.5132 5.61014" stroke="#B5C8CD" stroke-miterlimit="10"/>
<path d="M23.514 5.60986L23.4873 4.32883" stroke="#71767C" stroke-miterlimit="10"/>
<path d="M23.5139 5.61012L22.554 5.57707C22.3996 5.57254 22.2703 5.69077 22.2622 5.84462L22.1992 6.93164" stroke="#465352" stroke-miterlimit="10"/>
<path d="M22.2002 6.93137L21.189 6.95113C21.0866 6.95369 21.0034 7.03593 21.0034 7.14105V7.97114C21.0034 8.08946 20.9082 8.18538 20.7874 8.18538H19.8994C19.8122 8.18538 19.7386 8.25442 19.7314 8.34178L19.6602 9.42628C19.6602 9.43948 19.669 9.45059 19.6826 9.45315C19.7026 9.45723 19.7202 9.4618 19.741 9.46436" stroke="#242C30" stroke-miterlimit="10"/>
<path d="M19.6802 9.50438L18.767 9.70091C18.7144 9.71205 18.6665 9.73849 18.6289 9.77654C18.4751 9.92631 18.4147 10.0979 18.4484 10.2899C18.4728 10.4483 18.4618 10.5579 18.4124 10.6224C18.3527 10.7026 18.2476 10.7518 18.1001 10.7676" stroke="#15151E" stroke-miterlimit="10"/>
<path d="M18.1 10.7677L17.5886 10.8322C17.3584 10.8612 17.2112 11.0911 17.2786 11.312C17.3522 11.5598 17.3584 11.7806 17.2941 11.9751" stroke="#1F1E22" stroke-miterlimit="10"/>
<path d="M11.7134 20.9262L12.0209 21.0552" stroke="#242C30" stroke-miterlimit="10"/>
<path d="M12.0273 22.1268C11.7236 22.3101 11.3422 22.3568 10.8801 22.27C10.7971 22.2542 10.7393 22.1826 10.7393 22.1004V21.2032C10.7393 21.089 10.6479 20.9976 10.5345 20.9976H9.64537C9.54794 20.9976 9.46953 20.9174 9.46953 20.8194V19.7659C9.46953 19.6923 9.41168 19.6339 9.33784 19.6339H8.31777C8.23784 19.6339 8.17314 19.5694 8.17314 19.4892V18.5205C8.17314 18.4245 8.09472 18.3489 7.99881 18.3489H7.17742C7.04192 18.3489 6.93002 18.2372 6.93002 18.1012V17.302C6.93002 17.1817 6.8341 17.0857 6.71307 17.0857H5.74933C5.66027 17.0857 5.58643 17.1594 5.58643 17.2487V19.509C5.58643 19.5984 5.65799 19.67 5.74705 19.67H6.69556C6.78006 19.67 6.85009 19.739 6.85009 19.8238V20.7813C6.85009 20.8819 6.9323 20.9641 7.03279 20.9641H7.98739C8.0795 20.9641 8.15334 21.0377 8.15334 21.1271V22.04C8.15334 22.1628 8.25078 22.2608 8.3741 22.2608H9.30206C9.38047 22.2608 9.44517 22.3258 9.44517 22.406V23.3321C9.44517 23.4484 9.5388 23.5418 9.65527 23.5418H10.5718C10.6746 23.5418 10.7598 23.6266 10.7598 23.7317V24.6064C10.7598 24.6958 10.8337 24.7694 10.925 24.7694H11.8621C11.9687 24.7694 12.0562 24.8562 12.0562 24.9634V25.9433C12.0562 26.0189 12.1187 26.0813 12.1948 26.0813H13.1204C13.2232 26.0813 13.3077 26.1661 13.3077 26.2712V27.2084C13.3077 27.2866 13.3709 27.3491 13.4485 27.3491H15.781C15.8366 27.3491 15.8815 27.3044 15.8815 27.2486V26.2666C15.8815 26.1865 15.8168 26.1194 15.7361 26.1194H14.7853C14.6384 26.1194 14.5196 26.0011 14.5196 25.8539V24.9923C14.5196 24.8963 14.442 24.8181 14.3453 24.8181H13.5292C13.3709 24.8181 13.2499 24.678 13.275 24.5216C13.3168 24.2272 13.3039 23.948 13.2346 23.6824C13.2118 23.5956 13.1341 23.5352 13.0466 23.5352H12.2481C12.1659 23.5352 12.092 23.4793 12.0669 23.3991C11.9306 22.9325 11.9755 22.5533 12.1993 22.2629" stroke="#2E3F57" stroke-miterlimit="10"/>
<path d="M30.1151 1.77355C30.2068 1.95433 30.1865 2.13103 30.0531 2.30714C30.0285 2.33864 30.0149 2.37422 30.0149 2.41226V2.92097C30.0149 3.01896 29.9368 3.09717 29.8392 3.09717H28.906C28.81 3.09717 28.7336 3.17537 28.7336 3.27132V4.23542C28.7336 4.34717 28.6444 4.43599 28.5332 4.43599H27.6136C27.5287 4.43599 27.4599 4.49848 27.448 4.58323C27.4285 4.76859 27.4132 5.03004 27.4013 5.36256C27.3988 5.41792 27.3843 5.46513 27.3504 5.50521C27.3122 5.55191 27.2697 5.57433 27.2188 5.56771" stroke="#CFDADD" stroke-miterlimit="10"/>
<path d="M27.2182 5.56763C26.8119 5.5275 26.4837 5.54072 26.232 5.60568C26.1655 5.62346 26.1207 5.68137 26.1182 5.75041L26.0933 6.77295" stroke="#A3ABAF" stroke-miterlimit="10"/>
<path d="M26.0939 6.77307C26.0799 6.84871 26.065 6.89798 26.0444 6.92236" stroke="#CFDADD" stroke-miterlimit="10"/>
<path d="M26.0451 6.92242L24.9274 6.89146C24.8533 6.8889 24.7907 6.94935 24.7907 7.02496V8.04037C24.7907 8.10082 24.7421 8.14752 24.6812 8.14752H23.6352C23.5702 8.14752 23.5166 8.20138 23.5166 8.26579V9.26555C23.5166 9.34626 23.4516 9.41075 23.3717 9.41075H22.399C22.3183 9.41075 22.2532 9.47573 22.2532 9.55595V10.5779C22.2532 10.645 22.1972 10.7008 22.1305 10.7008H21.0952C21.0145 10.7008 20.9503 10.7653 20.9503 10.846V11.8412C20.9503 11.9193 20.886 11.9818 20.8078 11.9818H19.8253C19.752 11.9818 19.6918 12.0422 19.6918 12.1178V13.0952C19.6918 13.1759 19.6243 13.2424 19.5444 13.2424H18.5487C18.4729 13.2424 18.4103 13.3054 18.4103 13.3811V14.4031C18.4103 14.4833 18.3436 14.5503 18.2637 14.5503H17.2482C17.1782 14.5503 17.123 14.6062 17.123 14.6752V15.6754C17.123 15.751 17.0629 15.8115 16.9863 15.8115H15.9824C15.9157 15.8115 15.8621 15.8648 15.8621 15.9318V16.965C15.8621 17.032 15.8061 17.0879 15.7386 17.0879H14.7305C14.6547 17.0879 14.5921 17.1503 14.5938 17.2285L14.6012 18.2104" stroke="#A3ABAF" stroke-miterlimit="10"/>
<path d="M14.6003 18.2107C14.5483 18.2757 14.5129 18.3381 14.4956 18.396" stroke="#CFDADD" stroke-miterlimit="10"/>
<path d="M14.4953 18.3958L13.4196 18.409C13.3481 18.4116 13.2924 18.4674 13.2924 18.5385V19.5382C13.2924 19.6011 13.2435 19.6499 13.181 19.6499H12.1588C12.0632 19.6499 11.9864 19.7346 12.0007 19.8306C12.0692 20.3419 11.9736 20.7079 11.7124 20.9268" stroke="#A3ABAF" stroke-miterlimit="10"/>
<path d="M11.7129 20.9264L10.8914 20.935C10.8083 20.937 10.7397 20.868 10.7397 20.7832V18.5026C10.7397 18.4335 10.7952 18.3776 10.8645 18.3776H11.9069C11.9801 18.3776 12.0378 18.3192 12.0378 18.2456V17.2261C12.0378 17.1678 12.0855 17.121 12.141 17.121H13.1634C13.2527 17.121 13.3236 17.0494 13.3236 16.9627V15.9762C13.3236 15.9005 13.3859 15.8381 13.4621 15.8381H14.4507C14.5223 15.8381 14.5801 15.7797 14.5801 15.706V14.7043C14.5801 14.6394 14.6316 14.588 14.6963 14.588H15.7565C15.8211 14.588 15.8743 14.5368 15.8743 14.4718V13.3919C15.8743 13.3228 15.9305 13.267 15.9975 13.267H16.9953C17.0684 13.267 17.1292 13.2111 17.1338 13.1395C17.1531 12.8694 17.1515 12.6085 17.1308 12.3561C17.1115 12.113 17.1662 11.986 17.294 11.9749" stroke="#808080" stroke-miterlimit="10"/>
<path d="M17.2939 11.9752L18.2743 12.0087C18.3411 12.0108 18.3947 11.9575 18.3962 11.8924L18.4188 10.7522" stroke="#9E9DA1" stroke-miterlimit="10"/>
<path d="M18.4185 10.7519L19.5908 10.7539C19.6528 10.7539 19.7022 10.7052 19.7022 10.6428L19.6802 9.50446" stroke="#94949D" stroke-miterlimit="10"/>
<path d="M19.6802 9.50439C19.7265 9.49325 19.7469 9.47951 19.7406 9.46428" stroke="#808080" stroke-miterlimit="10"/>
<path d="M19.7402 9.46436L20.8555 9.41716C20.9251 9.41516 20.9811 9.35723 20.9811 9.2877V8.34386C20.9811 8.2012 21.0972 8.08496 21.242 8.08496H22.0852C22.1549 8.08496 22.2109 8.02911 22.2085 7.95998L22.1925 6.96893" stroke="#A3ABAF" stroke-miterlimit="10"/>
<path d="M22.1924 6.96924L23.3447 6.88044C23.4085 6.87583 23.4619 6.82201 23.4667 6.75502L23.516 5.94726" stroke="#C5D2D1" stroke-miterlimit="10"/>
<path d="M23.5166 5.94678L24.7288 5.66553C24.871 5.63196 24.9494 5.48068 24.8939 5.34409C24.7419 4.97854 24.6994 4.63888 24.7664 4.32871" stroke="#F0F5FB" stroke-miterlimit="10"/>
<path d="M22.1929 6.96875C22.1953 6.95555 22.1977 6.94235 22.2001 6.93123" stroke="#687E81" stroke-miterlimit="10"/>
<path d="M18.4186 10.7521C18.3564 10.8126 18.2492 10.8166 18.1001 10.7678" stroke="#32323F" stroke-miterlimit="10"/>
<path d="M4.65576 28.6235L6.58105 28.5519C6.66603 28.5473 6.73316 28.4783 6.73316 28.3935V27.7442C6.73316 27.666 6.77743 27.5923 6.8467 27.5543C7.11879 27.4096 7.41586 27.3334 7.73936 27.3314C7.85576 27.3288 7.9536 27.2486 7.97859 27.1349L8.2014 26.0702" stroke="#15151E" stroke-miterlimit="10"/>
<path d="M8.20215 26.0703L9.18222 25.9926C9.25078 25.988 9.30924 25.9408 9.32945 25.8743C9.41677 25.5819 9.43626 25.2625 9.38935 24.9167" stroke="#4C2A16" stroke-miterlimit="10"/>
<path d="M9.38947 24.917C9.46022 24.5042 9.43783 24.1067 9.32378 23.7295C9.30429 23.663 9.24872 23.6112 9.18158 23.598C8.78023 23.5111 8.38466 23.504 7.99414 23.5782" stroke="#15151E" stroke-miterlimit="10"/>
<path d="M7.99474 23.5779C7.66184 23.5175 7.34248 23.5195 7.04165 23.5865C6.95468 23.6068 6.89195 23.6825 6.89195 23.7719V24.575C6.89195 24.6669 6.81853 24.7426 6.72728 24.7426H5.84334C5.68437 24.7426 5.55748 24.87 5.55748 25.0284V26.0169C5.55748 26.0814 5.50615 26.1327 5.44128 26.1327H4.58443C4.43045 26.1327 4.30784 26.2602 4.31212 26.414C4.3278 26.9116 4.3278 27.5837 4.3171 28.425C4.31425 28.5657 4.42831 28.6301 4.65571 28.6236" stroke="#4C2A16" stroke-miterlimit="10"/>
<path d="M8.20151 26.0702L7.18431 25.9992C7.04364 25.99 6.92316 26.0971 6.91595 26.2378L6.88204 27.0167C6.8806 27.0791 6.83803 27.1349 6.77599 27.1507L5.71119 27.4162C5.6174 27.4406 5.55031 27.5213 5.54598 27.6172L5.51641 28.3444C5.5128 28.4514 5.42983 28.5388 5.32451 28.55L4.65576 28.6235M7.99446 23.5779C8.11277 23.8587 8.15894 24.1603 8.13441 24.4817C8.12142 24.6512 8.24623 24.7985 8.41576 24.8162L9.38895 24.9168" stroke="#5F3D33" stroke-miterlimit="10"/>
<path d="M1.73047 30.0068L1.73668 31.0735C1.73668 31.1542 1.80157 31.2188 1.88163 31.2188H4.1539C4.2388 31.2188 4.30783 31.1497 4.30783 31.0649V30.1388C4.30783 30.0226 4.21672 29.9286 4.10007 29.9246C3.96616 29.922 3.7653 29.9246 3.49541 29.9332C3.29731 29.9398 3.15374 29.8865 3.06263 29.7702" stroke="#1D2E42" stroke-miterlimit="10"/>
<path d="M3.06307 29.7702L3.07399 28.8508C3.07672 28.7035 2.95862 28.5832 2.81116 28.5832H2.00969C1.86018 28.5832 1.74003 28.7035 1.7373 28.8554L1.73047 30.0068" stroke="#485156" stroke-miterlimit="10"/>
<path d="M3.06241 29.7702C2.69449 29.9135 2.25012 29.9911 1.72998 30.0068" stroke="#647D97" stroke-miterlimit="10"/>
<path d="M19.6992 18.5542C19.6172 18.505 19.5145 18.4714 19.3867 18.4537C19.5706 18.4562 19.6586 18.3866 19.6552 18.246C19.6397 17.7129 19.6414 17.3824 19.6638 17.2555C19.6776 17.1818 19.7398 17.1281 19.8132 17.1281H20.7818C20.8707 17.1281 20.9449 17.0544 20.9449 16.9651V15.9943C20.9449 15.905 21.0183 15.8313 21.1072 15.8313H22.0672C22.1406 15.8313 22.1993 15.7735 22.1993 15.6998V14.756C22.1993 14.6686 22.2684 14.5997 22.3547 14.5997H23.2767C23.3837 14.5997 23.4709 14.5128 23.4709 14.4057V13.4258C23.4709 13.3253 23.5538 13.2425 23.6539 13.2425H24.5647C24.6648 13.2425 24.7477 13.1602 24.7477 13.0578V12.1291C24.7477 12.0377 24.8211 11.9642 24.9126 11.9642H25.8432C25.9753 11.9642 26.0797 11.859 26.0797 11.7275V10.839C26.0797 10.7679 26.1376 10.7096 26.2118 10.7096H27.1649C27.2849 10.7096 27.3807 10.6136 27.3807 10.4933V9.54688C27.3807 9.48904 27.4273 9.44234 27.4878 9.44234H28.4408C28.5436 9.44234 28.6282 9.35756 28.6282 9.25448V8.27052C28.6282 8.18773 28.6955 8.12125 28.7758 8.12125H29.8868C29.9136 8.12125 29.9343 8.10097 29.9343 8.07404V7.03628C29.9343 6.96265 29.9939 6.90273 30.0672 6.90273H31.0747C31.1498 6.90273 31.2102 6.8423 31.2102 6.76875V1.95457C31.2102 1.84338 31.1187 1.75402 31.0074 1.7561L30.1147 1.77388L26.261 1.77639C26.1687 1.77639 26.0953 1.85002 26.0953 1.94136V2.89442C26.0953 2.97462 26.0305 3.03954 25.9528 3.03954H25.0196C24.9419 3.03954 24.8772 3.09747 24.8703 3.17568C24.8409 3.45435 24.8435 3.72248 24.8772 3.98336C24.9014 4.18192 24.8634 4.29562 24.765 4.3292L23.4864 4.28042L23.5158 3.20918C23.5175 3.11983 23.5892 3.05076 23.6764 3.05076H24.6027C24.7054 3.05076 24.7874 2.96797 24.7874 2.86541V1.9013C24.7874 1.80988 24.8634 1.73374 24.9549 1.73374H25.9123C26.0021 1.73374 26.0754 1.6601 26.0754 1.57075V0.63607C26.0754 0.559929 26.135 0.500019 26.2118 0.500019H32.4111C32.4672 0.500019 32.5138 0.544133 32.5138 0.599988V6.73266C32.5138 6.82866 32.4378 6.9048 32.342 6.9048H31.3708C31.2793 6.9048 31.2059 6.97844 31.2059 7.06978V7.94713C31.2059 8.05625 31.117 8.1431 31.0074 8.1431H30.0672C29.9921 8.1431 29.9291 8.20603 29.9291 8.28373V9.38648C29.9291 9.4621 29.8687 9.5246 29.7936 9.5246H28.7982C28.7197 9.5246 28.6575 9.58702 28.6575 9.66523V10.5511C28.6575 10.6405 28.5859 10.7121 28.4969 10.7121H27.5534C27.4653 10.7121 27.3945 10.7832 27.3945 10.8705V11.828C27.3945 11.9128 27.3246 11.9799 27.24 11.9799H26.274C26.1825 11.9799 26.1091 12.0555 26.1091 12.1469V13.176C26.1091 13.2562 26.0418 13.3207 25.9615 13.3207H24.9437C24.8703 13.3207 24.8125 13.3791 24.8125 13.4502V14.4458C24.8125 14.526 24.7477 14.5905 24.6691 14.5905H23.6453C23.5667 14.5905 23.5028 14.6554 23.5028 14.7337V15.7623C23.5028 15.8385 23.4398 15.8984 23.3639 15.8984H22.353C22.2925 15.8984 22.2459 15.9451 22.2459 16.0055V16.9742C22.2459 17.0656 22.1699 17.1417 22.0784 17.1417H21.1392C21.0632 17.1417 21.0002 17.2042 21.0002 17.2798V18.2684C21.0002 18.342 20.9398 18.4023 20.8664 18.4044C20.6549 18.4115 20.313 18.4136 19.8373 18.4156C19.7994 18.4156 19.7709 18.4293 19.7467 18.4583C19.7217 18.4872 19.7061 18.5186 19.6992 18.5542Z" fill="#010101"/>
<path d="M30.1151 1.77343C30.2068 1.95421 30.1865 2.13091 30.0532 2.30702C30.0285 2.33852 30.0149 2.3741 30.0149 2.41214V2.92085C30.0149 3.01884 29.9368 3.09705 29.8392 3.09705H28.906C28.81 3.09705 28.7336 3.17525 28.7336 3.2712V4.2353C28.7336 4.34705 28.6445 4.43587 28.5332 4.43587H27.6136C27.5287 4.43587 27.4599 4.49836 27.448 4.58311C27.4285 4.76847 27.4132 5.02992 27.4013 5.36244C27.3988 5.4178 27.3843 5.46501 27.3504 5.50509C27.3122 5.55179 27.2697 5.57421 27.2188 5.56759C26.812 5.52751 26.4843 5.54067 26.2321 5.60562C26.1659 5.62346 26.1208 5.68128 26.1183 5.75032L26.0937 6.77284C26.0801 6.84849 26.0648 6.89774 26.0444 6.92211L24.927 6.89121C24.8531 6.88866 24.7903 6.94903 24.7903 7.02469V8.04016C24.7903 8.10053 24.741 8.14724 24.6807 8.14724H23.6346C23.5692 8.14724 23.5166 8.20107 23.5166 8.26552V9.26528C23.5166 9.34595 23.4512 9.4104 23.3714 9.4104H22.3983C22.3176 9.4104 22.2531 9.47544 22.2531 9.55569V10.5777C22.2531 10.6447 22.197 10.7006 22.1299 10.7006H21.0949C21.0142 10.7006 20.9497 10.765 20.9497 10.8458V11.8409C20.9497 11.9191 20.8851 11.9815 20.807 11.9815H19.8254C19.7515 11.9815 19.6912 12.0419 19.6912 12.1176V13.0949C19.6912 13.1756 19.6242 13.2422 19.5435 13.2422H18.5483C18.4728 13.2422 18.4099 13.3051 18.4099 13.3807V14.4028C18.4099 14.483 18.3428 14.55 18.263 14.55H17.2475C17.1778 14.55 17.1226 14.6059 17.1226 14.6749V15.6751C17.1226 15.7508 17.0623 15.8112 16.9859 15.8112H15.9814C15.9152 15.8112 15.8617 15.8644 15.8617 15.9315V16.9647C15.8617 17.0317 15.8056 17.0875 15.7386 17.0875H14.7298C14.6542 17.0875 14.5914 17.15 14.5939 17.2281L14.6007 18.2101C14.5489 18.2751 14.5133 18.3375 14.4954 18.3954L13.4196 18.4086C13.3491 18.4112 13.2931 18.467 13.2931 18.5381V19.5378C13.2931 19.6007 13.2438 19.6494 13.181 19.6494H12.1595C12.0635 19.6494 11.9871 19.7343 12.0007 19.8302C12.0695 20.3415 11.9735 20.7075 11.7128 20.9264L10.8917 20.935C10.8085 20.9371 10.7397 20.868 10.7397 20.7832V18.5025C10.7397 18.4335 10.7958 18.3777 10.8646 18.3777H11.9073C11.9803 18.3777 12.0381 18.3193 12.0381 18.2457V17.2262C12.0381 17.1678 12.0856 17.1211 12.1417 17.1211H13.1632C13.2532 17.1211 13.3236 17.0495 13.3236 16.9626V15.9762C13.3236 15.9005 13.3865 15.838 13.4629 15.838H14.4513C14.5226 15.838 14.5803 15.7797 14.5803 15.7061V14.7044C14.5803 14.6394 14.6321 14.5881 14.6967 14.5881H15.7564C15.8209 14.5881 15.8744 14.5368 15.8744 14.4718V13.3919C15.8744 13.3228 15.9305 13.267 15.9975 13.267H16.9953C17.0691 13.267 17.1294 13.2112 17.1337 13.1396C17.1532 12.8695 17.1515 12.6086 17.1311 12.3562C17.1116 12.113 17.1668 11.9861 17.2942 11.9749L18.2741 12.0084C18.3411 12.0104 18.3946 11.9571 18.3963 11.8921L18.4184 10.7518L19.5902 10.7539C19.653 10.7539 19.7023 10.7051 19.7023 10.6427L19.6802 9.5044C19.7269 9.49319 19.7473 9.47951 19.7405 9.46423L20.8554 9.41702C20.925 9.41498 20.9811 9.35716 20.9811 9.28761V8.34372C20.9811 8.20107 21.0966 8.08482 21.2426 8.08482H22.0858C22.1554 8.08482 22.2106 8.02895 22.2081 7.95991L22.1928 6.96881L23.3442 6.88C23.4087 6.87541 23.4622 6.82167 23.4673 6.75458L23.5166 5.94681L24.7283 5.66558C24.8709 5.63204 24.9491 5.48072 24.893 5.34418C24.741 4.97863 24.6994 4.63898 24.7656 4.32879C24.8641 4.29525 24.9023 4.18155 24.8777 3.98303C24.8438 3.72201 24.8421 3.45394 24.8709 3.17525C24.8777 3.09705 24.9423 3.03914 25.0204 3.03914H25.9536C26.0317 3.03914 26.0962 2.97418 26.0962 2.89394V1.94096C26.0962 1.84959 26.1692 1.77597 26.2618 1.77597L30.1151 1.77343Z" fill="white"/>
<path d="M19.3871 18.4538L18.5164 18.4269C18.4403 18.4249 18.3761 18.4874 18.3761 18.5655V19.5119C18.3761 19.5987 18.3043 19.6703 18.2179 19.6703H17.2959C17.2155 19.6703 17.1488 19.7374 17.1488 19.8195V20.8396C17.1488 20.9157 17.0889 20.9756 17.0128 20.9756H16.0395C15.9437 20.9756 15.8676 21.0518 15.8676 21.1477V22.0825C15.8676 22.1632 15.8052 22.2256 15.7248 22.2276L12.1993 22.2632L12.0265 22.1271L12.0205 21.0559C12.0265 20.9644 12.0693 20.9223 12.1428 20.9269C12.5516 20.9513 12.8929 20.9624 13.1675 20.9578C13.2632 20.9558 13.3411 20.8776 13.3411 20.7817V19.8308C13.3411 19.7728 13.3881 19.7261 13.4463 19.7261H14.3811C14.4615 19.7261 14.5291 19.6677 14.5402 19.5901C14.6001 19.1682 14.5847 18.7706 14.4948 18.3959C14.5128 18.3381 14.5487 18.2756 14.6001 18.2107C14.6197 18.2975 14.6625 18.3492 14.7318 18.367C14.9233 18.4137 15.2561 18.4229 15.7299 18.3914C15.8009 18.3869 15.8548 18.3269 15.8548 18.2553V17.3378C15.8548 17.2221 15.9505 17.1262 16.066 17.1262H17.0667C17.142 17.1262 17.2027 17.0658 17.2027 16.9901V16.0818C17.2027 15.9676 17.2933 15.8762 17.4071 15.8762H18.2778C18.383 15.8762 18.4694 15.7894 18.4694 15.6842V14.7536C18.4694 14.6577 18.5455 14.582 18.6413 14.582H19.5616C19.6548 14.582 19.7309 14.5059 19.7309 14.4124V13.4392C19.7309 13.3524 19.8019 13.2833 19.8891 13.2833H20.8377C20.9223 13.2833 20.9916 13.2137 20.9916 13.129V12.174C20.9916 12.0891 21.0583 12.0201 21.143 12.0201H22.1249C22.2147 12.0201 22.2882 11.9485 22.2882 11.8592V10.9352C22.2882 10.8372 22.3661 10.759 22.4644 10.759H23.4086C23.5044 10.759 23.5806 10.6808 23.5806 10.5848V9.6968C23.5806 9.58057 23.6738 9.48717 23.7875 9.48717H24.6916C24.7677 9.48717 24.8284 9.4267 24.8284 9.3511V8.33314C24.8284 8.22854 24.9148 8.14121 25.02 8.14121H25.924C25.9993 8.14121 26.0643 8.08793 26.078 8.01172C26.143 7.6614 26.131 7.2979 26.0438 6.92268C26.0643 6.89831 26.0797 6.84913 26.0934 6.77343C26.4706 6.87804 26.8546 6.8983 27.2446 6.83339C27.3122 6.82218 27.3652 6.77087 27.3806 6.7039C27.5055 6.13479 27.4524 5.75547 27.2181 5.56817C27.2694 5.57475 27.3122 5.55243 27.3498 5.50573C27.3832 5.46562 27.3986 5.4184 27.4011 5.36306C27.4122 5.03044 27.4276 4.76898 27.4482 4.58364C27.4593 4.49888 27.5286 4.43645 27.6132 4.43645H28.5327C28.6439 4.43645 28.7337 4.34758 28.7337 4.23588V3.27172C28.7337 3.17584 28.8089 3.09767 28.9047 3.09767H29.8378C29.9362 3.09767 30.014 3.01941 30.014 2.92148V2.41276C30.014 2.37461 30.0277 2.33912 30.0525 2.30765C30.1859 2.13146 30.2065 1.95475 30.115 1.77403L31.0079 1.75624C31.1191 1.75418 31.2106 1.84356 31.2106 1.95475V6.7689C31.2106 6.84245 31.1498 6.90292 31.0746 6.90292H30.0679C29.9944 6.90292 29.9345 6.96279 29.9345 7.03644V8.07415C29.9345 8.1011 29.914 8.12136 29.8866 8.12136H28.7756C28.6952 8.12136 28.6285 8.1879 28.6285 8.2707V9.25462C28.6285 9.35768 28.5438 9.44253 28.4412 9.44253H27.4884C27.4276 9.44253 27.3806 9.48923 27.3806 9.54704V10.4934C27.3806 10.6138 27.2848 10.7097 27.1642 10.7097H26.2114C26.1379 10.7097 26.0797 10.7681 26.0797 10.8392V11.7277C26.0797 11.8592 25.9754 11.9643 25.8436 11.9643H24.9131C24.8207 11.9643 24.7472 12.0379 24.7472 12.1293V13.0579C24.7472 13.1605 24.6651 13.2427 24.565 13.2427H23.6541C23.554 13.2427 23.4711 13.3254 23.4711 13.4259V14.4058C23.4711 14.513 23.3838 14.5998 23.2769 14.5998H22.3549C22.2685 14.5998 22.1993 14.6688 22.1993 14.7562V15.7001C22.1993 15.7736 22.1411 15.8315 22.0676 15.8315H21.1079C21.0181 15.8315 20.9446 15.9052 20.9446 15.9944V16.9652C20.9446 17.0546 20.871 17.1282 20.7821 17.1282H19.8139C19.7395 17.1282 19.677 17.182 19.6634 17.2557C19.6411 17.3826 19.6394 17.7131 19.6548 18.2462C19.6591 18.3869 19.5701 18.4564 19.3871 18.4538Z" fill="#9EB4BA"/>
<path d="M24.7662 4.32871C24.6992 4.63888 24.7417 4.97854 24.8936 5.34409C24.9492 5.48068 24.8708 5.63196 24.7286 5.66553L23.5164 5.94678L23.5148 5.60966L23.4878 4.32871C23.4878 4.31344 23.4878 4.29514 23.4878 4.27995L24.7662 4.32871Z" fill="#E0EBF7"/>
<path d="M1.73037 30.0072L1.73683 31.0738C1.73683 31.1546 1.80229 31.2191 1.88229 31.2191H4.15458C4.23862 31.2191 4.30811 31.15 4.30811 31.0653V30.1391C4.30811 30.0229 4.2168 29.929 4.10044 29.9249C3.9663 29.9224 3.7659 29.9249 3.496 29.9336C3.29722 29.9401 3.15418 29.8869 3.06287 29.7706L3.07419 28.8512C3.07661 28.7039 2.95783 28.5835 2.81076 28.5835H2.00996C1.85966 28.5835 1.73926 28.7039 1.73683 28.8557L1.73037 30.0072ZM4.65639 28.6237L6.58201 28.5521C6.66686 28.5475 6.73394 28.4785 6.73394 28.3936V27.7443C6.73394 27.6661 6.77838 27.5925 6.84787 27.5545C7.11938 27.4097 7.41676 27.3335 7.73998 27.3315C7.85635 27.329 7.95412 27.2488 7.97917 27.1351L8.20219 26.0704L9.18239 25.9927C9.25107 25.9881 9.30925 25.9409 9.32945 25.8744C9.41672 25.582 9.43611 25.2626 9.39005 24.9168C9.46116 24.5041 9.43854 24.1066 9.3246 23.7293C9.30521 23.6628 9.24946 23.611 9.18239 23.5978C8.78078 23.511 8.38563 23.5039 7.99533 23.578C7.66241 23.5176 7.34322 23.5196 7.04181 23.5867C6.95454 23.607 6.89232 23.6826 6.89232 23.772V24.5752C6.89232 24.6671 6.81878 24.7427 6.72747 24.7427H5.84344C5.68506 24.7427 5.55738 24.8701 5.55738 25.0286V26.0171C5.55738 26.0815 5.50648 26.1328 5.44183 26.1328H4.58447C4.43094 26.1328 4.30811 26.2603 4.31296 26.4141C4.32831 26.9116 4.32831 27.5839 4.317 28.4251C4.31457 28.5658 4.42851 28.6302 4.65639 28.6237ZM23.4876 4.32909L23.5143 5.61013L22.5543 5.57707C22.4 5.57255 22.2707 5.69077 22.2626 5.84463L22.1996 6.93164L21.1887 6.95144C21.0861 6.95402 21.0028 7.0362 21.0028 7.14133V7.97147C21.0028 8.08977 20.9075 8.18568 20.7871 8.18568H19.899C19.8117 8.18568 19.7382 8.25477 19.7317 8.34204L19.6598 9.42656C19.6598 9.43973 19.6687 9.45095 19.6824 9.45346C19.7026 9.4575 19.7204 9.46211 19.7406 9.46462C19.7471 9.47989 19.7269 9.49354 19.68 9.50478L18.7669 9.70122C18.7136 9.71237 18.6667 9.73879 18.6287 9.77685C18.4744 9.92667 18.4146 10.0983 18.4485 10.2902C18.4728 10.4486 18.4614 10.5583 18.4121 10.6227C18.3523 10.7029 18.2473 10.7522 18.1002 10.768L17.5887 10.8324C17.3584 10.8614 17.2114 11.0913 17.2784 11.3122C17.352 11.5599 17.3584 11.7808 17.2946 11.9753C17.1669 11.9864 17.1112 12.1134 17.1314 12.3565C17.1516 12.6089 17.154 12.8698 17.1338 13.14C17.1289 13.2115 17.0691 13.2674 16.9956 13.2674H15.9976C15.9306 13.2674 15.8748 13.3232 15.8748 13.3923V14.4722C15.8748 14.5372 15.8215 14.5885 15.7568 14.5885H14.6966C14.632 14.5885 14.5803 14.6397 14.5803 14.7047V15.7065C14.5803 15.7801 14.5229 15.8384 14.451 15.8384H13.4627C13.3868 15.8384 13.3237 15.9009 13.3237 15.9765V16.963C13.3237 17.0499 13.2526 17.1215 13.1637 17.1215H12.1415C12.0858 17.1215 12.0381 17.1682 12.0381 17.2265V18.246C12.0381 18.3196 11.9807 18.378 11.9072 18.378H10.8648C10.7953 18.378 10.7395 18.4339 10.7395 18.503V20.7836C10.7395 20.8683 10.809 20.9374 10.8915 20.9354L11.7133 20.9268L12.0203 21.0557L12.0276 22.127C11.7246 22.3102 11.3424 22.357 10.8801 22.2702C10.7977 22.2544 10.7395 22.1828 10.7395 22.1006V21.2034C10.7395 21.0892 10.6482 20.9978 10.5343 20.9978H9.64621C9.54844 20.9978 9.47006 20.9176 9.47006 20.8196V19.7661C9.47006 19.6925 9.41188 19.6341 9.33834 19.6341H8.31856C8.23856 19.6341 8.17311 19.5696 8.17311 19.4894V18.5207C8.17311 18.4247 8.09472 18.3491 7.99937 18.3491H7.17838C7.04181 18.3491 6.9303 18.2374 6.9303 18.1013V17.3022C6.9303 17.1818 6.83414 17.0859 6.71374 17.0859H5.7497C5.66082 17.0859 5.58728 17.1595 5.58728 17.2489V19.5092C5.58728 19.5986 5.65839 19.6702 5.74728 19.6702H6.69596C6.7808 19.6702 6.85029 19.7392 6.85029 19.824V20.7815C6.85029 20.8821 6.93272 20.9643 7.03292 20.9643H7.98805C8.08017 20.9643 8.15371 21.0379 8.15371 21.1273V22.0401C8.15371 22.163 8.25149 22.261 8.37432 22.261H9.30278C9.38036 22.261 9.44581 22.326 9.44581 22.4062V23.3323C9.44581 23.4486 9.53875 23.542 9.65511 23.542H10.5723C10.6749 23.542 10.7597 23.6268 10.7597 23.7319V24.6066C10.7597 24.696 10.8333 24.7696 10.9254 24.7696H11.8619C11.9694 24.7696 12.0559 24.8564 12.0559 24.9635V25.9434C12.0559 26.0191 12.1189 26.0815 12.1949 26.0815H13.1209C13.2235 26.0815 13.3084 26.1664 13.3084 26.2714V27.2087C13.3084 27.2868 13.3714 27.3493 13.449 27.3493H15.7811C15.8368 27.3493 15.8821 27.3046 15.8821 27.2488V26.2669C15.8821 26.1866 15.8166 26.1196 15.7366 26.1196H14.7855C14.6385 26.1196 14.5205 26.0013 14.5205 25.8541V24.9926C14.5205 24.8966 14.4421 24.8183 14.3459 24.8183H13.5298C13.3714 24.8183 13.2502 24.6782 13.2753 24.5219C13.3173 24.2274 13.3043 23.9481 13.2349 23.6826C13.2122 23.5958 13.1347 23.5354 13.0474 23.5354H12.249C12.1658 23.5354 12.0922 23.4795 12.0672 23.3993C11.9314 22.9327 11.9759 22.5535 12.1997 22.2631L15.7253 22.2275C15.8053 22.2255 15.8683 22.163 15.8683 22.0823V21.1476C15.8683 21.0516 15.9443 20.9755 16.0405 20.9755H17.0134C17.0893 20.9755 17.1491 20.9156 17.1491 20.8394V19.8195C17.1491 19.7372 17.2162 19.6702 17.2962 19.6702H18.2182C18.3055 19.6702 18.3766 19.5986 18.3766 19.5117V18.5654C18.3766 18.4872 18.4412 18.4247 18.5172 18.4267L19.3875 18.4537C19.5152 18.4714 19.6178 18.505 19.7002 18.5542L19.6598 19.5696C19.6574 19.6478 19.5952 19.7083 19.5168 19.7083H18.5576C18.4841 19.7083 18.4235 19.7681 18.4235 19.8418V20.7927C18.4235 20.8796 18.3523 20.9511 18.2627 20.9511H17.3051C17.2186 20.9511 17.1467 21.0222 17.1467 21.1095V22.0914C17.1467 22.1696 17.0821 22.2341 17.0045 22.2341H16.0267C15.937 22.2341 15.8659 22.3057 15.8659 22.395V24.6579C15.8659 24.7295 15.9241 24.7874 15.9952 24.7874H17.053C17.1047 24.7874 17.1467 24.8296 17.1467 24.8813V28.5257C17.1467 28.6033 17.0821 28.6683 17.0045 28.6683H12.1836C12.0858 28.6683 12.005 28.5902 12.005 28.4921V27.49C12.005 27.4143 11.9452 27.3539 11.8692 27.3539H10.8826C10.8066 27.3539 10.7444 27.2935 10.7444 27.2178V26.24C10.7444 26.1597 10.6797 26.0952 10.5989 26.0952H9.57915C9.5145 26.0952 9.46117 26.1486 9.46117 26.2135V27.2554C9.46117 27.3224 9.40784 27.3762 9.34077 27.3762H8.29432C8.23533 27.3762 8.18927 27.4229 8.18927 27.4808V28.5165C8.18927 28.5947 8.12623 28.6571 8.04866 28.6571H7.00141C6.93029 28.6571 6.87211 28.715 6.87211 28.7866V29.7843C6.87211 29.86 6.81231 29.9203 6.73555 29.9203H5.76748C5.68263 29.9203 5.61314 29.9894 5.61314 30.0742V32.3883C5.61314 32.4508 5.56466 32.5 5.50244 32.5H0.612813C0.549784 32.5 0.500488 32.4508 0.500488 32.3909V27.4407C0.500488 27.396 0.536045 27.3605 0.578873 27.3605H2.87702C2.95378 27.3605 3.01601 27.2981 3.01601 27.2224V26.2359C3.01601 26.1597 3.07823 26.0973 3.15661 26.0973H4.12306C4.21841 26.0973 4.29518 26.0216 4.29518 25.9257V24.9235C4.29518 24.8498 4.35498 24.7894 4.42851 24.7894H5.49112C5.54688 24.7894 5.59375 24.7427 5.59375 24.6869V23.5511C5.59375 23.4887 5.64466 23.4373 5.70769 23.4373H6.72747C6.79454 23.4373 6.84787 23.3815 6.84787 23.3145V22.3996C6.84787 22.3438 6.801 22.2991 6.74525 22.2991H5.72789C5.65112 22.2991 5.59132 22.2366 5.59132 22.1605V21.0872C5.59132 21.009 5.52668 20.9445 5.44668 20.9445H4.44871C4.36629 20.9445 4.29922 20.8775 4.29922 20.7947V15.9522C4.29922 15.8897 4.34852 15.8405 4.41074 15.8405H8.00341C8.08664 15.8405 8.15371 15.9075 8.15371 15.9878V16.9854C8.15371 17.0702 8.22239 17.1392 8.30724 17.1392H10.6038C10.6749 17.1392 10.7331 17.0813 10.7331 17.0097V16.0167C10.7331 15.9273 10.8066 15.8562 10.8963 15.8562H11.8829C11.9541 15.8562 12.0122 15.7979 12.0122 15.7242V14.7245C12.0122 14.6555 12.0696 14.5976 12.1391 14.5976H13.1411C13.2211 14.5976 13.2866 14.5326 13.2866 14.4544V13.4126C13.2866 13.3299 13.3528 13.2629 13.4336 13.2629H14.4397C14.5068 13.2629 14.5625 13.207 14.5625 13.14V12.0845C14.5625 12.0129 14.6207 11.955 14.6894 11.955H15.7593C15.8126 11.955 15.8546 11.9128 15.8546 11.859V10.8527C15.8546 10.7811 15.9128 10.7233 15.9847 10.7233H17.0287C17.0845 10.7233 17.1314 10.6766 17.1314 10.6181V9.55803C17.1314 9.487 17.1895 9.42858 17.2606 9.42858H18.3257C18.3701 9.42858 18.4057 9.39302 18.4057 9.34841V8.29283C18.4057 8.21259 18.4703 8.14762 18.5511 8.14762H19.5063C19.5685 8.14762 19.6194 8.09889 19.6194 8.03595V6.98037C19.6194 6.92049 19.6671 6.8712 19.7269 6.8712H20.8493C20.9115 6.8712 20.9608 6.82198 20.9608 6.75952V5.72843C20.9608 5.64819 21.0279 5.58111 21.1079 5.58111H22.101C22.1777 5.58111 22.2375 5.52124 22.2375 5.44762V4.48343C22.2375 4.38751 22.3159 4.30929 22.4113 4.31139L23.4876 4.32909Z" fill="#010101"/>
<path d="M27.2181 5.56771C27.4528 5.75504 27.5061 6.13435 27.3812 6.70349C27.3654 6.77051 27.3121 6.82181 27.2455 6.83296C26.8551 6.8979 26.4712 6.87759 26.0933 6.77302L26.1182 5.75046C26.1207 5.68144 26.1649 5.62358 26.2315 5.60576C26.4837 5.54082 26.8118 5.52758 27.2181 5.56771Z" fill="#46565F"/>
<path d="M23.5136 5.61013L23.516 5.94726L23.4667 6.75502C23.4619 6.82201 23.4085 6.87583 23.3447 6.88044L22.1924 6.96924C22.1948 6.95607 22.1972 6.9429 22.1997 6.93167L22.2619 5.84472C22.2708 5.69086 22.4001 5.57256 22.5536 5.57716L23.5136 5.61013Z" fill="#8AA5A2"/>
<path d="M26.0444 6.92197C26.1317 7.29715 26.1433 7.6607 26.0782 8.01098C26.065 8.08714 25.9999 8.14047 25.9241 8.14047H25.0207C24.9152 8.14047 24.8287 8.22775 24.8287 8.33242V9.35031C24.8287 9.42597 24.7685 9.48638 24.6919 9.48638H23.7885C23.6748 9.48638 23.5808 9.57985 23.5808 9.69606V10.584C23.5808 10.6801 23.505 10.7582 23.4094 10.7582H22.4657C22.3668 10.7582 22.2885 10.8364 22.2885 10.9344V11.8584C22.2885 11.9478 22.2151 12.0194 22.1261 12.0194H21.1437C21.0588 12.0194 20.9929 12.0885 20.9929 12.1732V13.1282C20.9929 13.213 20.9228 13.2826 20.8379 13.2826H19.8901C19.8027 13.2826 19.731 13.3516 19.731 13.4384V14.4117C19.731 14.5052 19.656 14.5813 19.5621 14.5813H18.6423C18.5466 14.5813 18.47 14.657 18.47 14.7529V15.6835C18.47 15.7886 18.3835 15.8755 18.278 15.8755H17.4084C17.2947 15.8755 17.2032 15.9669 17.2032 16.0811V16.9894C17.2032 17.0651 17.1422 17.1255 17.0672 17.1255H16.0666C15.9512 17.1255 15.8548 17.2214 15.8548 17.3372V18.2546C15.8548 18.3262 15.8012 18.3861 15.7303 18.3907C15.2573 18.4222 14.9243 18.413 14.7322 18.3663C14.663 18.3485 14.621 18.2967 14.6012 18.21L14.5938 17.228C14.5921 17.1499 14.6539 17.0874 14.7298 17.0874H15.7386C15.8054 17.0874 15.8614 17.0315 15.8614 16.9645V15.9313C15.8614 15.8643 15.9158 15.811 15.9817 15.811H16.9864C17.0623 15.811 17.1224 15.7505 17.1224 15.675V14.6747C17.1224 14.6056 17.1785 14.5498 17.2477 14.5498H18.2631C18.3431 14.5498 18.4106 14.4828 18.4106 14.4026V13.3806C18.4106 13.3049 18.4725 13.2419 18.5483 13.2419H19.5439C19.6239 13.2419 19.6915 13.1754 19.6915 13.0947V12.1174C19.6915 12.0417 19.7516 11.9813 19.825 11.9813H20.8074C20.8857 11.9813 20.95 11.9188 20.95 11.8407V10.8456C20.95 10.7648 21.0143 10.7003 21.0951 10.7003H22.1303C22.197 10.7003 22.2531 10.6445 22.2531 10.5775V9.55545C22.2531 9.47525 22.3182 9.41022 22.3981 9.41022H23.3715C23.4515 9.41022 23.5166 9.34578 23.5166 9.26509V8.26533C23.5166 8.20088 23.5693 8.14706 23.6344 8.14706H24.6812C24.7413 8.14706 24.7908 8.10033 24.7908 8.03991V7.0245C24.7908 6.94883 24.8534 6.88843 24.9268 6.89098L26.0444 6.92197Z" fill="#46565F"/>
<path d="M22.1994 6.93141C22.197 6.94261 22.1946 6.95581 22.1922 6.96893L22.2082 7.95998C22.2106 8.02911 22.1546 8.08496 22.085 8.08496H21.2417C21.0969 8.08496 20.9809 8.2012 20.9809 8.34386V9.2877C20.9809 9.35723 20.9249 9.41516 20.8553 9.41716L19.74 9.46436C19.72 9.4618 19.7024 9.45724 19.6816 9.45324C19.6688 9.45068 19.6592 9.43948 19.6592 9.42627L19.7312 8.34178C19.7376 8.25449 19.8112 8.18544 19.8984 8.18544H20.7865C20.9073 8.18544 21.0025 8.08951 21.0025 7.97118V7.14111C21.0025 7.03598 21.0857 6.95373 21.1881 6.95117L22.1994 6.93141Z" fill="#46565F"/>
<path d="M19.6805 9.50468L19.7024 10.643C19.7024 10.7054 19.653 10.7541 19.591 10.7541L18.4187 10.7521C18.3567 10.8126 18.2492 10.8166 18.1001 10.7679C18.2476 10.7521 18.3528 10.7029 18.4124 10.6227C18.4618 10.5582 18.4728 10.4485 18.4485 10.2901C18.4148 10.0982 18.4744 9.9266 18.629 9.7768C18.6666 9.73875 18.7137 9.71231 18.7671 9.70116L19.6805 9.50468Z" fill="#28283A"/>
<path d="M18.1003 10.7679C18.2494 10.8166 18.3566 10.8126 18.4188 10.7522L18.3962 11.8924C18.3947 11.9575 18.3411 12.0108 18.2743 12.0087L17.294 11.9752C17.3584 11.7807 17.3522 11.5599 17.2784 11.3122C17.2116 11.0913 17.3584 10.8613 17.5884 10.8323L18.1003 10.7679Z" fill="#3C3B43"/>
<path d="M12.0273 22.1268L12.1993 22.2629C11.9755 22.5533 11.9306 22.9325 12.0669 23.3991C12.092 23.4793 12.1659 23.5352 12.2481 23.5352H13.0466C13.1341 23.5352 13.2118 23.5956 13.2346 23.6824C13.3039 23.948 13.3168 24.2272 13.275 24.5216C13.2499 24.678 13.3709 24.8181 13.5292 24.8181H14.3453C14.442 24.8181 14.5196 24.8963 14.5196 24.9923V25.8539C14.5196 26.0011 14.6384 26.1194 14.7853 26.1194H15.7361C15.8168 26.1194 15.8815 26.1865 15.8815 26.2666V27.2486C15.8815 27.3044 15.8366 27.3491 15.781 27.3491H13.4485C13.3709 27.3491 13.3077 27.2866 13.3077 27.2084V26.2712C13.3077 26.1661 13.2232 26.0813 13.1204 26.0813H12.1948C12.1187 26.0813 12.0562 26.0189 12.0562 25.9433V24.9634C12.0562 24.8562 11.9687 24.7694 11.8621 24.7694H10.925C10.8337 24.7694 10.7598 24.6958 10.7598 24.6064V23.7317C10.7598 23.6266 10.6746 23.5418 10.5718 23.5418H9.65527C9.5388 23.5418 9.44517 23.4484 9.44517 23.3321V22.406C9.44517 22.3258 9.38047 22.2608 9.30206 22.2608H8.3741C8.25078 22.2608 8.15334 22.1628 8.15334 22.04V21.1271C8.15334 21.0377 8.0795 20.9641 7.98739 20.9641H7.03279C6.9323 20.9641 6.85009 20.8819 6.85009 20.7813V19.8238C6.85009 19.739 6.78006 19.67 6.69556 19.67H5.74705C5.65799 19.67 5.58643 19.5984 5.58643 19.509V17.2487C5.58643 17.1594 5.66027 17.0857 5.74933 17.0857H6.71307C6.8341 17.0857 6.93002 17.1817 6.93002 17.302V18.1012C6.93002 18.2372 7.04192 18.3489 7.17742 18.3489H7.99881C8.09472 18.3489 8.17314 18.4245 8.17314 18.5205V19.4892C8.17314 19.5694 8.23784 19.6339 8.31777 19.6339H9.33784C9.41168 19.6339 9.46953 19.6923 9.46953 19.7659V20.8194C9.46953 20.9174 9.54794 20.9976 9.64537 20.9976H10.5345C10.6479 20.9976 10.7393 21.089 10.7393 21.2032V22.1004C10.7393 22.1826 10.7971 22.2542 10.8801 22.27C11.3422 22.3568 11.7236 22.3101 12.0273 22.1268Z" fill="#5A7CAC"/>
<path d="M14.4959 18.3958C14.5848 18.7704 14.6006 19.168 14.5403 19.5899C14.529 19.6676 14.462 19.7259 14.3821 19.7259H13.4464C13.3884 19.7259 13.3417 19.7727 13.3417 19.8306V20.7815C13.3417 20.8774 13.2641 20.9556 13.1677 20.9577C12.8934 20.9622 12.5514 20.9511 12.1431 20.9267C12.07 20.9222 12.0271 20.9643 12.0203 21.0557L11.7129 20.9267C11.9736 20.7079 12.07 20.3418 12.0007 19.8306C11.9871 19.7346 12.0632 19.6499 12.1589 19.6499H13.1812C13.2438 19.6499 13.2927 19.6011 13.2927 19.5381V18.5385C13.2927 18.4673 13.3485 18.4115 13.4193 18.409L14.4959 18.3958Z" fill="#46565F"/>
<path d="M7.99497 23.5779C8.11333 23.8587 8.15952 24.1603 8.13498 24.4816C8.12199 24.6512 8.24685 24.7985 8.41645 24.8162L9.3893 24.9168C9.43621 25.2625 9.41672 25.5819 9.3294 25.8743C9.30919 25.9408 9.25073 25.988 9.18217 25.9926L8.2021 26.0703L7.1845 25.9992C7.04377 25.9901 6.92324 26.0972 6.91675 26.2378L6.88283 27.0167C6.88066 27.0791 6.83881 27.135 6.77602 27.1507L5.71151 27.4162C5.61769 27.4406 5.55056 27.5213 5.54695 27.6173L5.51737 28.3443C5.51304 28.4514 5.43004 28.5388 5.3254 28.5499L4.65638 28.6236C4.42832 28.6302 4.31429 28.5657 4.31718 28.4251C4.328 27.5838 4.328 26.9116 4.31212 26.414C4.30779 26.2602 4.43048 26.1327 4.58421 26.1327H5.44159C5.50582 26.1327 5.55706 26.0814 5.55706 26.017V25.0285C5.55706 24.8701 5.6848 24.7426 5.84285 24.7426H6.72694C6.81859 24.7426 6.89221 24.667 6.89221 24.5751V23.7719C6.89221 23.6825 6.95428 23.6069 7.0416 23.5866C7.34255 23.5195 7.66226 23.5175 7.99497 23.5779Z" fill="#96522B"/>
<path d="M9.38947 24.917L8.4157 24.8165C8.24606 24.7987 8.12119 24.6515 8.1349 24.4819C8.15944 24.1605 8.11252 23.859 7.99414 23.5782C8.38466 23.504 8.78023 23.5111 9.18158 23.598C9.24872 23.6112 9.30429 23.663 9.32378 23.7295C9.43783 24.1067 9.46022 24.5042 9.38947 24.917Z" fill="#28283A"/>
<path d="M8.2014 26.0702L7.97859 27.1349C7.9536 27.2486 7.85576 27.3288 7.73936 27.3314C7.41586 27.3334 7.11879 27.4096 6.8467 27.5543C6.77743 27.5923 6.73316 27.666 6.73316 27.7442V28.3935C6.73316 28.4783 6.66603 28.5473 6.58105 28.5519L4.65576 28.6235L5.3249 28.5499C5.42988 28.5387 5.51271 28.4514 5.517 28.3443L5.54628 27.6172C5.54985 27.5213 5.61698 27.4406 5.71124 27.4162L6.77601 27.1506C6.83814 27.1349 6.88027 27.079 6.88241 27.0166L6.91597 26.2378C6.92312 26.0972 7.04309 25.99 7.18377 25.9991L8.2014 26.0702Z" fill="#28283A"/>
<path d="M3.06307 29.7702C2.6951 29.9134 2.25067 29.9911 1.73047 30.0068L1.7373 28.8554C1.74003 28.7035 1.86018 28.5832 2.00969 28.5832H2.81116C2.95862 28.5832 3.07672 28.7035 3.07399 28.8508L3.06307 29.7702Z" fill="#8EA0AB"/>
<path d="M1.73047 30.0068C2.25022 29.9911 2.69404 29.9134 3.06263 29.7702C3.15374 29.8865 3.29731 29.9398 3.49541 29.9332C3.7653 29.9246 3.96616 29.922 4.10007 29.9246C4.21672 29.9286 4.30783 30.0226 4.30783 30.1388V31.0649C4.30783 31.1497 4.2388 31.2188 4.1539 31.2188H1.88163C1.80157 31.2188 1.73668 31.1542 1.73668 31.0735L1.73047 30.0068Z" fill="#395A82"/>
</svg>
