<svg width="194" height="214" viewBox="0 0 194 214" fill="none" xmlns="http://www.w3.org/2000/svg">
<path d="M35.4277 0.000140388H40.8919V5.46436H35.4277V0.000140388Z" fill="#263238"/>
<path d="M40.8916 0.000140388H46.3558V5.46436H40.8916V0.000140388Z" fill="#263238"/>
<path d="M46.356 0.000140388H51.8202V5.46436H46.356V0.000140388Z" fill="#263238"/>
<path d="M51.8203 0.000140388H57.2845V5.46436H51.8203V0.000140388Z" fill="#263238"/>
<path d="M57.2842 0.000140388H62.7484V5.46436H57.2842V0.000140388Z" fill="#263238"/>
<path d="M19.0352 5.46401H24.4994V10.9282H19.0352V5.46401Z" fill="#263238"/>
<path d="M24.4995 5.46401H29.9637V10.9282H24.4995V5.46401Z" fill="#263238"/>
<path d="M29.9634 5.46401H35.4276V10.9282H29.9634V5.46401Z" fill="#263238"/>
<path d="M35.4277 5.46401H40.8919V10.9282H35.4277V5.46401Z" fill="#13B26B"/>
<path d="M40.8916 5.46401H46.3558V10.9282H40.8916V5.46401Z" fill="#13B26B"/>
<path d="M46.356 5.46401H51.8202V10.9282H46.356V5.46401Z" fill="#13B26B"/>
<path d="M51.8203 5.46401H57.2845V10.9282H51.8203V5.46401Z" fill="#13B26B"/>
<path d="M57.2842 5.46401H62.7484V10.9282H57.2842V5.46401Z" fill="#13B26B"/>
<path d="M62.7485 5.46401H68.2128V10.9282H62.7485V5.46401Z" fill="#263238"/>
<path d="M13.5708 10.9284H19.035V16.3926H13.5708V10.9284Z" fill="#263238"/>
<path d="M19.0352 10.9284H24.4994V16.3926H19.0352V10.9284Z" fill="#13B26B"/>
<path d="M24.4995 10.9284H29.9637V16.3926H24.4995V10.9284Z" fill="#13B26B"/>
<path d="M29.9634 10.9284H35.4276V16.3926H29.9634V10.9284Z" fill="#13B26B"/>
<path d="M35.4277 10.9284H40.8919V16.3926H35.4277V10.9284Z" fill="#13B26B"/>
<path d="M40.8916 10.9284H46.3558V16.3926H40.8916V10.9284Z" fill="#13B26B"/>
<path d="M46.356 10.9284H51.8202V16.3926H46.356V10.9284Z" fill="#00874B"/>
<path d="M51.8203 10.9284H57.2845V16.3926H51.8203V10.9284Z" fill="#00874B"/>
<path d="M57.2842 10.9284H62.7484V16.3926H57.2842V10.9284Z" fill="#13B26B"/>
<path d="M62.7485 10.9284H68.2128V16.3926H62.7485V10.9284Z" fill="#13B26B"/>
<path d="M68.2129 10.9284H73.6771V16.3926H68.2129V10.9284Z" fill="#263238"/>
<path d="M79.1411 10.9284H84.6053V16.3926H79.1411V10.9284Z" fill="#263238"/>
<path d="M84.6055 10.9284H90.0697V16.3926H84.6055V10.9284Z" fill="#263238"/>
<path d="M90.0698 10.9284H95.534V16.3926H90.0698V10.9284Z" fill="#263238"/>
<path d="M8.10645 16.3927H13.5707V21.8569H8.10645V16.3927Z" fill="#263238"/>
<path d="M13.5708 16.3927H19.035V21.8569H13.5708V16.3927Z" fill="#13B26B"/>
<path d="M19.0352 16.3927H24.4994V21.8569H19.0352V16.3927Z" fill="#13B26B"/>
<path d="M24.4995 16.3927H29.9637V21.8569H24.4995V16.3927Z" fill="#13B26B"/>
<path d="M29.9634 16.3927H35.4276V21.8569H29.9634V16.3927Z" fill="#00874B"/>
<path d="M35.4277 16.3927H40.8919V21.8569H35.4277V16.3927Z" fill="#00874B"/>
<path d="M40.8916 16.3927H46.3558V21.8569H40.8916V16.3927Z" fill="#00874B"/>
<path d="M46.356 16.3927H51.8202V21.8569H46.356V16.3927Z" fill="#00874B"/>
<path d="M51.8203 16.3927H57.2845V21.8569H51.8203V16.3927Z" fill="#00874B"/>
<path d="M57.2842 16.3927H62.7484V21.8569H57.2842V16.3927Z" fill="#00874B"/>
<path d="M62.7485 16.3927H68.2128V21.8569H62.7485V16.3927Z" fill="#13B26B"/>
<path d="M68.2129 16.3927H73.6771V21.8569H68.2129V16.3927Z" fill="#263238"/>
<path d="M73.6772 16.3927H79.1415V21.8569H73.6772V16.3927Z" fill="#263238"/>
<path d="M79.1411 16.3927H84.6053V21.8569H79.1411V16.3927Z" fill="#13B26B"/>
<path d="M84.6055 16.3927H90.0697V21.8569H84.6055V16.3927Z" fill="#13B26B"/>
<path d="M90.0698 16.3927H95.534V21.8569H90.0698V16.3927Z" fill="#13B26B"/>
<path d="M95.5342 16.3927H100.998V21.8569H95.5342V16.3927Z" fill="#263238"/>
<path d="M100.998 16.3927H106.462V21.8569H100.998V16.3927Z" fill="#263238"/>
<path d="M106.462 16.3927H111.927V21.8569H106.462V16.3927Z" fill="#263238"/>
<path d="M2.64209 21.8566H8.1063V27.3208H2.64209V21.8566Z" fill="#263238"/>
<path d="M8.10645 21.8566H13.5707V27.3208H8.10645V21.8566Z" fill="#00874B"/>
<path d="M13.5708 21.8566H19.035V27.3208H13.5708V21.8566Z" fill="#13B26B"/>
<path d="M19.0352 21.8566H24.4994V27.3208H19.0352V21.8566Z" fill="#00874B"/>
<path d="M24.4995 21.8566H29.9637V27.3208H24.4995V21.8566Z" fill="#00874B"/>
<path d="M29.9634 21.8566H35.4276V27.3208H29.9634V21.8566Z" fill="#00874B"/>
<path d="M35.4277 21.8566H40.8919V27.3208H35.4277V21.8566Z" fill="#00874B"/>
<path d="M40.8916 21.8566H46.3558V27.3208H40.8916V21.8566Z" fill="#00874B"/>
<path d="M46.356 21.8566H51.8202V27.3208H46.356V21.8566Z" fill="#00874B"/>
<path d="M51.8203 21.8566H57.2845V27.3208H51.8203V21.8566Z" fill="#00874B"/>
<path d="M57.2842 21.8566H62.7484V27.3208H57.2842V21.8566Z" fill="#00874B"/>
<path d="M62.7485 21.8566H68.2128V27.3208H62.7485V21.8566Z" fill="#00874B"/>
<path d="M68.2129 21.8566H73.6771V27.3208H68.2129V21.8566Z" fill="#13B26B"/>
<path d="M73.6772 21.8566H79.1415V27.3208H73.6772V21.8566Z" fill="#13B26B"/>
<path d="M79.1411 21.8566H84.6053V27.3208H79.1411V21.8566Z" fill="#13B26B"/>
<path d="M84.6055 21.8566H90.0697V27.3208H84.6055V21.8566Z" fill="#13B26B"/>
<path d="M90.0698 21.8566H95.534V27.3208H90.0698V21.8566Z" fill="#13B26B"/>
<path d="M95.5342 21.8566H100.998V27.3208H95.5342V21.8566Z" fill="#13B26B"/>
<path d="M100.998 21.8566H106.462V27.3208H100.998V21.8566Z" fill="#13B26B"/>
<path d="M106.462 21.8566H111.927V27.3208H106.462V21.8566Z" fill="#00695C"/>
<path d="M111.926 21.8566H117.39V27.3208H111.926V21.8566Z" fill="#263238"/>
<path d="M-2.82178 27.3209H2.64244V32.7852H-2.82178V27.3209Z" fill="#263238"/>
<path d="M2.64209 27.3209H8.1063V32.7852H2.64209V27.3209Z" fill="#00874B"/>
<path d="M8.10645 27.3209H13.5707V32.7852H8.10645V27.3209Z" fill="#13B26B"/>
<path d="M13.5708 27.3209H19.035V32.7852H13.5708V27.3209Z" fill="#13B26B"/>
<path d="M19.0352 27.3209H24.4994V32.7852H19.0352V27.3209Z" fill="#13B26B"/>
<path d="M24.4995 27.3209H29.9637V32.7852H24.4995V27.3209Z" fill="#13B26B"/>
<path d="M29.9634 27.3209H35.4276V32.7852H29.9634V27.3209Z" fill="#13B26B"/>
<path d="M35.4277 27.3209H40.8919V32.7852H35.4277V27.3209Z" fill="#13B26B"/>
<path d="M40.8916 27.3209H46.3558V32.7852H40.8916V27.3209Z" fill="#00874B"/>
<path d="M46.356 27.3209H51.8202V32.7852H46.356V27.3209Z" fill="#00874B"/>
<path d="M51.8203 27.3209H57.2845V32.7852H51.8203V27.3209Z" fill="#00874B"/>
<path d="M57.2842 27.3209H62.7484V32.7852H57.2842V27.3209Z" fill="#00874B"/>
<path d="M62.7485 27.3209H68.2128V32.7852H62.7485V27.3209Z" fill="#13B26B"/>
<path d="M68.2129 27.3209H73.6771V32.7852H68.2129V27.3209Z" fill="#13B26B"/>
<path d="M73.6772 27.3209H79.1415V32.7852H73.6772V27.3209Z" fill="#13B26B"/>
<path d="M79.1411 27.3209H84.6053V32.7852H79.1411V27.3209Z" fill="#13B26B"/>
<path d="M84.6055 27.3209H90.0697V32.7852H84.6055V27.3209Z" fill="#00874B"/>
<path d="M90.0698 27.3209H95.534V32.7852H90.0698V27.3209Z" fill="#00874B"/>
<path d="M95.5342 27.3209H100.998V32.7852H95.5342V27.3209Z" fill="#00874B"/>
<path d="M100.998 27.3209H106.462V32.7852H100.998V27.3209Z" fill="#13B26B"/>
<path d="M106.462 27.3209H111.927V32.7852H106.462V27.3209Z" fill="#00695C"/>
<path d="M111.926 27.3209H117.39V32.7852H111.926V27.3209Z" fill="#00874B"/>
<path d="M117.391 27.3209H122.855V32.7852H117.391V27.3209Z" fill="#263238"/>
<path d="M-2.82178 32.7853H2.64244V38.2495H-2.82178V32.7853Z" fill="#00695C"/>
<path d="M2.64209 32.7853H8.1063V38.2495H2.64209V32.7853Z" fill="#13B26B"/>
<path d="M8.10645 32.7853H13.5707V38.2495H8.10645V32.7853Z" fill="#13B26B"/>
<path d="M13.5708 32.7853H19.035V38.2495H13.5708V32.7853Z" fill="#00874B"/>
<path d="M19.0352 32.7853H24.4994V38.2495H19.0352V32.7853Z" fill="#00874B"/>
<path d="M24.4995 32.7853H29.9637V38.2495H24.4995V32.7853Z" fill="#00874B"/>
<path d="M29.9634 32.7853H35.4276V38.2495H29.9634V32.7853Z" fill="#13B26B"/>
<path d="M35.4277 32.7853H40.8919V38.2495H35.4277V32.7853Z" fill="#13B26B"/>
<path d="M40.8916 32.7853H46.3558V38.2495H40.8916V32.7853Z" fill="#13B26B"/>
<path d="M46.356 32.7853H51.8202V38.2495H46.356V32.7853Z" fill="#13B26B"/>
<path d="M51.8203 32.7853H57.2845V38.2495H51.8203V32.7853Z" fill="#00874B"/>
<path d="M57.2842 32.7853H62.7484V38.2495H57.2842V32.7853Z" fill="#00874B"/>
<path d="M62.7485 32.7853H68.2128V38.2495H62.7485V32.7853Z" fill="#00695C"/>
<path d="M68.2129 32.7853H73.6771V38.2495H68.2129V32.7853Z" fill="#00874B"/>
<path d="M73.6772 32.7853H79.1415V38.2495H73.6772V32.7853Z" fill="#00874B"/>
<path d="M79.1411 32.7853H84.6053V38.2495H79.1411V32.7853Z" fill="#00874B"/>
<path d="M84.6055 32.7853H90.0697V38.2495H84.6055V32.7853Z" fill="#00874B"/>
<path d="M90.0698 32.7853H95.534V38.2495H90.0698V32.7853Z" fill="#00874B"/>
<path d="M95.5342 32.7853H100.998V38.2495H95.5342V32.7853Z" fill="#00874B"/>
<path d="M100.998 32.7853H106.462V38.2495H100.998V32.7853Z" fill="#00874B"/>
<path d="M106.462 32.7853H111.927V38.2495H106.462V32.7853Z" fill="#00695C"/>
<path d="M111.926 32.7853H117.39V38.2495H111.926V32.7853Z" fill="#00874B"/>
<path d="M117.391 32.7853H122.855V38.2495H117.391V32.7853Z" fill="#00874B"/>
<path d="M122.855 32.7853H128.319V38.2495H122.855V32.7853Z" fill="#263238"/>
<path d="M128.319 32.7853H133.784V38.2495H128.319V32.7853Z" fill="#263238"/>
<path d="M-2.82178 38.2494H2.64244V43.7136H-2.82178V38.2494Z" fill="#00695C"/>
<path d="M2.64209 38.2494H8.1063V43.7136H2.64209V38.2494Z" fill="#00874B"/>
<path d="M8.10645 38.2494H13.5707V43.7136H8.10645V38.2494Z" fill="#00874B"/>
<path d="M13.5708 38.2494H19.035V43.7136H13.5708V38.2494Z" fill="#00874B"/>
<path d="M19.0352 38.2494H24.4994V43.7136H19.0352V38.2494Z" fill="#00874B"/>
<path d="M24.4995 38.2494H29.9637V43.7136H24.4995V38.2494Z" fill="#00874B"/>
<path d="M29.9634 38.2494H35.4276V43.7136H29.9634V38.2494Z" fill="#00874B"/>
<path d="M35.4277 38.2494H40.8919V43.7136H35.4277V38.2494Z" fill="#00874B"/>
<path d="M40.8916 38.2494H46.3558V43.7136H40.8916V38.2494Z" fill="#13B26B"/>
<path d="M46.356 38.2494H51.8202V43.7136H46.356V38.2494Z" fill="#13B26B"/>
<path d="M51.8203 38.2494H57.2845V43.7136H51.8203V38.2494Z" fill="#00874B"/>
<path d="M57.2842 38.2494H62.7484V43.7136H57.2842V38.2494Z" fill="#00874B"/>
<path d="M62.7485 38.2494H68.2128V43.7136H62.7485V38.2494Z" fill="#00695C"/>
<path d="M68.2129 38.2494H73.6771V43.7136H68.2129V38.2494Z" fill="#00695C"/>
<path d="M73.6772 38.2494H79.1415V43.7136H73.6772V38.2494Z" fill="#00874B"/>
<path d="M79.1411 38.2494H84.6053V43.7136H79.1411V38.2494Z" fill="#00874B"/>
<path d="M84.6055 38.2494H90.0697V43.7136H84.6055V38.2494Z" fill="#00874B"/>
<path d="M90.0698 38.2494H95.534V43.7136H90.0698V38.2494Z" fill="#00874B"/>
<path d="M95.5342 38.2494H100.998V43.7136H95.5342V38.2494Z" fill="#00874B"/>
<path d="M100.998 38.2494H106.462V43.7136H100.998V38.2494Z" fill="#00695C"/>
<path d="M106.462 38.2494H111.927V43.7136H106.462V38.2494Z" fill="#13B26B"/>
<path d="M111.926 38.2494H117.39V43.7136H111.926V38.2494Z" fill="#13B26B"/>
<path d="M117.391 38.2494H122.855V43.7136H117.391V38.2494Z" fill="#13B26B"/>
<path d="M122.855 38.2494H128.319V43.7136H122.855V38.2494Z" fill="#13B26B"/>
<path d="M128.319 38.2494H133.784V43.7136H128.319V38.2494Z" fill="#13B26B"/>
<path d="M133.783 38.2494H139.247V43.7136H133.783V38.2494Z" fill="#263238"/>
<path d="M139.248 38.2494H144.712V43.7136H139.248V38.2494Z" fill="#263238"/>
<path d="M-2.82178 43.7138H2.64244V49.178H-2.82178V43.7138Z" fill="#00695C"/>
<path d="M2.64209 43.7138H8.1063V49.178H2.64209V43.7138Z" fill="#00874B"/>
<path d="M8.10645 43.7138H13.5707V49.178H8.10645V43.7138Z" fill="#00874B"/>
<path d="M13.5708 43.7138H19.035V49.178H13.5708V43.7138Z" fill="#00874B"/>
<path d="M19.0352 43.7138H24.4994V49.178H19.0352V43.7138Z" fill="#00874B"/>
<path d="M24.4995 43.7138H29.9637V49.178H24.4995V43.7138Z" fill="#00874B"/>
<path d="M29.9634 43.7138H35.4276V49.178H29.9634V43.7138Z" fill="#00874B"/>
<path d="M35.4277 43.7138H40.8919V49.178H35.4277V43.7138Z" fill="#00874B"/>
<path d="M40.8916 43.7138H46.3558V49.178H40.8916V43.7138Z" fill="#00695C"/>
<path d="M46.356 43.7138H51.8202V49.178H46.356V43.7138Z" fill="#13B26B"/>
<path d="M51.8203 43.7138H57.2845V49.178H51.8203V43.7138Z" fill="#13B26B"/>
<path d="M57.2842 43.7138H62.7484V49.178H57.2842V43.7138Z" fill="#13B26B"/>
<path d="M62.7485 43.7138H68.2128V49.178H62.7485V43.7138Z" fill="#13B26B"/>
<path d="M68.2129 43.7138H73.6771V49.178H68.2129V43.7138Z" fill="#13B26B"/>
<path d="M73.6772 43.7138H79.1415V49.178H73.6772V43.7138Z" fill="#00695C"/>
<path d="M79.1411 43.7138H84.6053V49.178H79.1411V43.7138Z" fill="#00695C"/>
<path d="M84.6055 43.7138H90.0697V49.178H84.6055V43.7138Z" fill="#00874B"/>
<path d="M90.0698 43.7138H95.534V49.178H90.0698V43.7138Z" fill="#00695C"/>
<path d="M95.5342 43.7138H100.998V49.178H95.5342V43.7138Z" fill="#00874B"/>
<path d="M100.998 43.7138H106.462V49.178H100.998V43.7138Z" fill="#00695C"/>
<path d="M106.462 43.7138H111.927V49.178H106.462V43.7138Z" fill="#13B26B"/>
<path d="M111.926 43.7138H117.39V49.178H111.926V43.7138Z" fill="#00874B"/>
<path d="M117.391 43.7138H122.855V49.178H117.391V43.7138Z" fill="#00874B"/>
<path d="M122.855 43.7138H128.319V49.178H122.855V43.7138Z" fill="#13B26B"/>
<path d="M128.319 43.7138H133.784V49.178H128.319V43.7138Z" fill="#13B26B"/>
<path d="M133.783 43.7138H139.247V49.178H133.783V43.7138Z" fill="#13B26B"/>
<path d="M139.248 43.7138H144.712V49.178H139.248V43.7138Z" fill="#13B26B"/>
<path d="M144.712 43.7138H150.176V49.178H144.712V43.7138Z" fill="#263238"/>
<path d="M-2.82178 49.1779H2.64244V54.6421H-2.82178V49.1779Z" fill="#00695C"/>
<path d="M2.64209 49.1779H8.1063V54.6421H2.64209V49.1779Z" fill="#00874B"/>
<path d="M8.10645 49.1779H13.5707V54.6421H8.10645V49.1779Z" fill="#00874B"/>
<path d="M13.5708 49.1779H19.035V54.6421H13.5708V49.1779Z" fill="#00874B"/>
<path d="M19.0352 49.1779H24.4994V54.6421H19.0352V49.1779Z" fill="#00874B"/>
<path d="M24.4995 49.1779H29.9637V54.6421H24.4995V49.1779Z" fill="#00874B"/>
<path d="M29.9634 49.1779H35.4276V54.6421H29.9634V49.1779Z" fill="#00874B"/>
<path d="M35.4277 49.1779H40.8919V54.6421H35.4277V49.1779Z" fill="#00695C"/>
<path d="M40.8916 49.1779H46.3558V54.6421H40.8916V49.1779Z" fill="#00874B"/>
<path d="M46.356 49.1779H51.8202V54.6421H46.356V49.1779Z" fill="#00695C"/>
<path d="M51.8203 49.1779H57.2845V54.6421H51.8203V49.1779Z" fill="#13B26B"/>
<path d="M57.2842 49.1779H62.7484V54.6421H57.2842V49.1779Z" fill="#00874B"/>
<path d="M62.7485 49.1779H68.2128V54.6421H62.7485V49.1779Z" fill="#00874B"/>
<path d="M68.2129 49.1779H73.6771V54.6421H68.2129V49.1779Z" fill="#00874B"/>
<path d="M73.6772 49.1779H79.1415V54.6421H73.6772V49.1779Z" fill="#13B26B"/>
<path d="M79.1411 49.1779H84.6053V54.6421H79.1411V49.1779Z" fill="#00695C"/>
<path d="M84.6055 49.1779H90.0697V54.6421H84.6055V49.1779Z" fill="#00695C"/>
<path d="M90.0698 49.1779H95.534V54.6421H90.0698V49.1779Z" fill="#00695C"/>
<path d="M95.5342 49.1779H100.998V54.6421H95.5342V49.1779Z" fill="#00695C"/>
<path d="M100.998 49.1779H106.462V54.6421H100.998V49.1779Z" fill="#13B26B"/>
<path d="M106.462 49.1779H111.927V54.6421H106.462V49.1779Z" fill="#13B26B"/>
<path d="M111.926 49.1779H117.39V54.6421H111.926V49.1779Z" fill="#00874B"/>
<path d="M117.391 49.1779H122.855V54.6421H117.391V49.1779Z" fill="#00874B"/>
<path d="M122.855 49.1779H128.319V54.6421H122.855V49.1779Z" fill="#00874B"/>
<path d="M128.319 49.1779H133.784V54.6421H128.319V49.1779Z" fill="#13B26B"/>
<path d="M133.783 49.1779H139.247V54.6421H133.783V49.1779Z" fill="#00874B"/>
<path d="M139.248 49.1779H144.712V54.6421H139.248V49.1779Z" fill="#13B26B"/>
<path d="M144.712 49.1779H150.176V54.6421H144.712V49.1779Z" fill="#263238"/>
<path d="M150.176 49.1779H155.64V54.6421H150.176V49.1779Z" fill="#263238"/>
<path d="M155.641 49.1779H161.105V54.6421H155.641V49.1779Z" fill="#263238"/>
<path d="M161.104 49.1779H166.569V54.6421H161.104V49.1779Z" fill="#263238"/>
<path d="M-2.82178 54.642H2.64244V60.1062H-2.82178V54.642Z" fill="#00695C"/>
<path d="M2.64209 54.642H8.1063V60.1062H2.64209V54.642Z" fill="#00695C"/>
<path d="M8.10645 54.642H13.5707V60.1062H8.10645V54.642Z" fill="#00695C"/>
<path d="M13.5708 54.642H19.035V60.1062H13.5708V54.642Z" fill="#00874B"/>
<path d="M19.0352 54.642H24.4994V60.1062H19.0352V54.642Z" fill="#00874B"/>
<path d="M24.4995 54.642H29.9637V60.1062H24.4995V54.642Z" fill="#00874B"/>
<path d="M29.9634 54.642H35.4276V60.1062H29.9634V54.642Z" fill="#00874B"/>
<path d="M35.4277 54.642H40.8919V60.1062H35.4277V54.642Z" fill="#00874B"/>
<path d="M40.8916 54.642H46.3558V60.1062H40.8916V54.642Z" fill="#00874B"/>
<path d="M46.356 54.642H51.8202V60.1062H46.356V54.642Z" fill="#00695C"/>
<path d="M51.8203 54.642H57.2845V60.1062H51.8203V54.642Z" fill="#00874B"/>
<path d="M57.2842 54.642H62.7484V60.1062H57.2842V54.642Z" fill="#00874B"/>
<path d="M62.7485 54.642H68.2128V60.1062H62.7485V54.642Z" fill="#00874B"/>
<path d="M68.2129 54.642H73.6771V60.1062H68.2129V54.642Z" fill="#00874B"/>
<path d="M73.6772 54.642H79.1415V60.1062H73.6772V54.642Z" fill="#13B26B"/>
<path d="M79.1411 54.642H84.6053V60.1062H79.1411V54.642Z" fill="#13B26B"/>
<path d="M84.6055 54.642H90.0697V60.1062H84.6055V54.642Z" fill="#13B26B"/>
<path d="M90.0698 54.642H95.534V60.1062H90.0698V54.642Z" fill="#13B26B"/>
<path d="M95.5342 54.642H100.998V60.1062H95.5342V54.642Z" fill="#13B26B"/>
<path d="M100.998 54.642H106.462V60.1062H100.998V54.642Z" fill="#00695C"/>
<path d="M106.462 54.642H111.927V60.1062H106.462V54.642Z" fill="#00874B"/>
<path d="M111.926 54.642H117.39V60.1062H111.926V54.642Z" fill="#00874B"/>
<path d="M117.391 54.642H122.855V60.1062H117.391V54.642Z" fill="#00874B"/>
<path d="M122.855 54.642H128.319V60.1062H122.855V54.642Z" fill="#00874B"/>
<path d="M128.319 54.642H133.784V60.1062H128.319V54.642Z" fill="#00874B"/>
<path d="M133.783 54.642H139.247V60.1062H133.783V54.642Z" fill="#00874B"/>
<path d="M139.248 54.642H144.712V60.1062H139.248V54.642Z" fill="#00695C"/>
<path d="M144.712 54.642H150.176V60.1062H144.712V54.642Z" fill="#13B26B"/>
<path d="M150.176 54.642H155.64V60.1062H150.176V54.642Z" fill="#13B26B"/>
<path d="M155.641 54.642H161.105V60.1062H155.641V54.642Z" fill="#13B26B"/>
<path d="M161.104 54.642H166.569V60.1062H161.104V54.642Z" fill="#13B26B"/>
<path d="M166.569 54.642H172.033V60.1062H166.569V54.642Z" fill="#263238"/>
<path d="M-2.82178 60.1063H2.64244V65.5706H-2.82178V60.1063Z" fill="#00695C"/>
<path d="M2.64209 60.1063H8.1063V65.5706H2.64209V60.1063Z" fill="#00695C"/>
<path d="M8.10645 60.1063H13.5707V65.5706H8.10645V60.1063Z" fill="#00695C"/>
<path d="M13.5708 60.1063H19.035V65.5706H13.5708V60.1063Z" fill="#00695C"/>
<path d="M19.0352 60.1063H24.4994V65.5706H19.0352V60.1063Z" fill="#00874B"/>
<path d="M24.4995 60.1063H29.9637V65.5706H24.4995V60.1063Z" fill="#00874B"/>
<path d="M29.9634 60.1063H35.4276V65.5706H29.9634V60.1063Z" fill="#00874B"/>
<path d="M35.4277 60.1063H40.8919V65.5706H35.4277V60.1063Z" fill="#00695C"/>
<path d="M40.8916 60.1063H46.3558V65.5706H40.8916V60.1063Z" fill="#00695C"/>
<path d="M46.356 60.1063H51.8202V65.5706H46.356V60.1063Z" fill="#00695C"/>
<path d="M51.8203 60.1063H57.2845V65.5706H51.8203V60.1063Z" fill="#00874B"/>
<path d="M57.2842 60.1063H62.7484V65.5706H57.2842V60.1063Z" fill="#00874B"/>
<path d="M62.7485 60.1063H68.2128V65.5706H62.7485V60.1063Z" fill="#00874B"/>
<path d="M68.2129 60.1063H73.6771V65.5706H68.2129V60.1063Z" fill="#13B26B"/>
<path d="M73.6772 60.1063H79.1415V65.5706H73.6772V60.1063Z" fill="#13B26B"/>
<path d="M79.1411 60.1063H84.6053V65.5706H79.1411V60.1063Z" fill="#13B26B"/>
<path d="M84.6055 60.1063H90.0697V65.5706H84.6055V60.1063Z" fill="#00874B"/>
<path d="M90.0698 60.1063H95.534V65.5706H90.0698V60.1063Z" fill="#00874B"/>
<path d="M95.5342 60.1063H100.998V65.5706H95.5342V60.1063Z" fill="#13B26B"/>
<path d="M100.998 60.1063H106.462V65.5706H100.998V60.1063Z" fill="#00695C"/>
<path d="M106.462 60.1063H111.927V65.5706H106.462V60.1063Z" fill="#00695C"/>
<path d="M111.926 60.1063H117.39V65.5706H111.926V60.1063Z" fill="#00874B"/>
<path d="M117.391 60.1063H122.855V65.5706H117.391V60.1063Z" fill="#00874B"/>
<path d="M122.855 60.1063H128.319V65.5706H122.855V60.1063Z" fill="#00874B"/>
<path d="M128.319 60.1063H133.784V65.5706H128.319V60.1063Z" fill="#00874B"/>
<path d="M133.783 60.1063H139.247V65.5706H133.783V60.1063Z" fill="#00695C"/>
<path d="M139.248 60.1063H144.712V65.5706H139.248V60.1063Z" fill="#00695C"/>
<path d="M144.712 60.1063H150.176V65.5706H144.712V60.1063Z" fill="#13B26B"/>
<path d="M150.176 60.1063H155.64V65.5706H150.176V60.1063Z" fill="#13B26B"/>
<path d="M155.641 60.1063H161.105V65.5706H155.641V60.1063Z" fill="#13B26B"/>
<path d="M161.104 60.1063H166.569V65.5706H161.104V60.1063Z" fill="#13B26B"/>
<path d="M166.569 60.1063H172.033V65.5706H166.569V60.1063Z" fill="#13B26B"/>
<path d="M172.033 60.1063H177.497V65.5706H172.033V60.1063Z" fill="#263238"/>
<path d="M-2.82178 65.5707H2.64244V71.0349H-2.82178V65.5707Z" fill="#00695C"/>
<path d="M2.64209 65.5707H8.1063V71.0349H2.64209V65.5707Z" fill="#00695C"/>
<path d="M8.10645 65.5707H13.5707V71.0349H8.10645V65.5707Z" fill="#00695C"/>
<path d="M13.5708 65.5707H19.035V71.0349H13.5708V65.5707Z" fill="#00695C"/>
<path d="M19.0352 65.5707H24.4994V71.0349H19.0352V65.5707Z" fill="#00695C"/>
<path d="M24.4995 65.5707H29.9637V71.0349H24.4995V65.5707Z" fill="#00695C"/>
<path d="M29.9634 65.5707H35.4276V71.0349H29.9634V65.5707Z" fill="#00695C"/>
<path d="M35.4277 65.5707H40.8919V71.0349H35.4277V65.5707Z" fill="#13B26B"/>
<path d="M40.8916 65.5707H46.3558V71.0349H40.8916V65.5707Z" fill="#13B26B"/>
<path d="M46.356 65.5707H51.8202V71.0349H46.356V65.5707Z" fill="#00874B"/>
<path d="M51.8203 65.5707H57.2845V71.0349H51.8203V65.5707Z" fill="#00874B"/>
<path d="M57.2842 65.5707H62.7484V71.0349H57.2842V65.5707Z" fill="#00874B"/>
<path d="M62.7485 65.5707H68.2128V71.0349H62.7485V65.5707Z" fill="#00874B"/>
<path d="M68.2129 65.5707H73.6771V71.0349H68.2129V65.5707Z" fill="#00874B"/>
<path d="M73.6772 65.5707H79.1415V71.0349H73.6772V65.5707Z" fill="#00874B"/>
<path d="M79.1411 65.5707H84.6053V71.0349H79.1411V65.5707Z" fill="#00874B"/>
<path d="M84.6055 65.5707H90.0697V71.0349H84.6055V65.5707Z" fill="#00874B"/>
<path d="M90.0698 65.5707H95.534V71.0349H90.0698V65.5707Z" fill="#00874B"/>
<path d="M95.5342 65.5707H100.998V71.0349H95.5342V65.5707Z" fill="#00874B"/>
<path d="M100.998 65.5707H106.462V71.0349H100.998V65.5707Z" fill="#00874B"/>
<path d="M106.462 65.5707H111.927V71.0349H106.462V65.5707Z" fill="#00695C"/>
<path d="M111.926 65.5707H117.39V71.0349H111.926V65.5707Z" fill="#00695C"/>
<path d="M117.391 65.5707H122.855V71.0349H117.391V65.5707Z" fill="#00695C"/>
<path d="M122.855 65.5707H128.319V71.0349H122.855V65.5707Z" fill="#00695C"/>
<path d="M128.319 65.5707H133.784V71.0349H128.319V65.5707Z" fill="#00695C"/>
<path d="M133.783 65.5707H139.247V71.0349H133.783V65.5707Z" fill="#00695C"/>
<path d="M139.248 65.5707H144.712V71.0349H139.248V65.5707Z" fill="#13B26B"/>
<path d="M144.712 65.5707H150.176V71.0349H144.712V65.5707Z" fill="#00874B"/>
<path d="M150.176 65.5707H155.64V71.0349H150.176V65.5707Z" fill="#00874B"/>
<path d="M155.641 65.5707H161.105V71.0349H155.641V65.5707Z" fill="#00874B"/>
<path d="M161.104 65.5707H166.569V71.0349H161.104V65.5707Z" fill="#13B26B"/>
<path d="M166.569 65.5707H172.033V71.0349H166.569V65.5707Z" fill="#13B26B"/>
<path d="M172.033 65.5707H177.497V71.0349H172.033V65.5707Z" fill="#13B26B"/>
<path d="M177.497 65.5707H182.961V71.0349H177.497V65.5707Z" fill="#263238"/>
<path d="M-2.82178 71.0348H2.64244V76.499H-2.82178V71.0348Z" fill="#00695C"/>
<path d="M2.64209 71.0348H8.1063V76.499H2.64209V71.0348Z" fill="#00874B"/>
<path d="M8.10645 71.0348H13.5707V76.499H8.10645V71.0348Z" fill="#00874B"/>
<path d="M13.5708 71.0348H19.035V76.499H13.5708V71.0348Z" fill="#00874B"/>
<path d="M19.0352 71.0348H24.4994V76.499H19.0352V71.0348Z" fill="#00874B"/>
<path d="M24.4995 71.0348H29.9637V76.499H24.4995V71.0348Z" fill="#00874B"/>
<path d="M29.9634 71.0348H35.4276V76.499H29.9634V71.0348Z" fill="#00874B"/>
<path d="M35.4277 71.0348H40.8919V76.499H35.4277V71.0348Z" fill="#00874B"/>
<path d="M40.8916 71.0348H46.3558V76.499H40.8916V71.0348Z" fill="#13B26B"/>
<path d="M46.356 71.0348H51.8202V76.499H46.356V71.0348Z" fill="#13B26B"/>
<path d="M51.8203 71.0348H57.2845V76.499H51.8203V71.0348Z" fill="#00874B"/>
<path d="M57.2842 71.0348H62.7484V76.499H57.2842V71.0348Z" fill="#00874B"/>
<path d="M62.7485 71.0348H68.2128V76.499H62.7485V71.0348Z" fill="#00695C"/>
<path d="M68.2129 71.0348H73.6771V76.499H68.2129V71.0348Z" fill="#00874B"/>
<path d="M73.6772 71.0348H79.1415V76.499H73.6772V71.0348Z" fill="#00874B"/>
<path d="M79.1411 71.0348H84.6053V76.499H79.1411V71.0348Z" fill="#00874B"/>
<path d="M84.6055 71.0348H90.0697V76.499H84.6055V71.0348Z" fill="#00874B"/>
<path d="M90.0698 71.0348H95.534V76.499H90.0698V71.0348Z" fill="#00874B"/>
<path d="M95.5342 71.0348H100.998V76.499H95.5342V71.0348Z" fill="#00874B"/>
<path d="M100.998 71.0348H106.462V76.499H100.998V71.0348Z" fill="#13B26B"/>
<path d="M106.462 71.0348H111.927V76.499H106.462V71.0348Z" fill="#00874B"/>
<path d="M111.926 71.0348H117.39V76.499H111.926V71.0348Z" fill="#00695C"/>
<path d="M117.391 71.0348H122.855V76.499H117.391V71.0348Z" fill="#00695C"/>
<path d="M122.855 71.0348H128.319V76.499H122.855V71.0348Z" fill="#00695C"/>
<path d="M128.319 71.0348H133.784V76.499H128.319V71.0348Z" fill="#00695C"/>
<path d="M133.783 71.0348H139.247V76.499H133.783V71.0348Z" fill="#13B26B"/>
<path d="M139.248 71.0348H144.712V76.499H139.248V71.0348Z" fill="#00874B"/>
<path d="M144.712 71.0348H150.176V76.499H144.712V71.0348Z" fill="#00874B"/>
<path d="M150.176 71.0348H155.64V76.499H150.176V71.0348Z" fill="#00874B"/>
<path d="M155.641 71.0348H161.105V76.499H155.641V71.0348Z" fill="#00874B"/>
<path d="M161.104 71.0348H166.569V76.499H161.104V71.0348Z" fill="#00695C"/>
<path d="M166.569 71.0348H172.033V76.499H166.569V71.0348Z" fill="#00874B"/>
<path d="M172.033 71.0348H177.497V76.499H172.033V71.0348Z" fill="#13B26B"/>
<path d="M177.497 71.0348H182.961V76.499H177.497V71.0348Z" fill="#13B26B"/>
<path d="M182.961 71.0348H188.426V76.499H182.961V71.0348Z" fill="#263238"/>
<path d="M-2.82178 76.4989H2.64244V81.9631H-2.82178V76.4989Z" fill="#00695C"/>
<path d="M2.64209 76.4989H8.1063V81.9631H2.64209V76.4989Z" fill="#00695C"/>
<path d="M8.10645 76.4989H13.5707V81.9631H8.10645V76.4989Z" fill="#00874B"/>
<path d="M13.5708 76.4989H19.035V81.9631H13.5708V76.4989Z" fill="#00874B"/>
<path d="M19.0352 76.4989H24.4994V81.9631H19.0352V76.4989Z" fill="#00874B"/>
<path d="M24.4995 76.4989H29.9637V81.9631H24.4995V76.4989Z" fill="#00874B"/>
<path d="M29.9634 76.4989H35.4276V81.9631H29.9634V76.4989Z" fill="#00874B"/>
<path d="M35.4277 76.4989H40.8919V81.9631H35.4277V76.4989Z" fill="#00874B"/>
<path d="M40.8916 76.4989H46.3558V81.9631H40.8916V76.4989Z" fill="#00874B"/>
<path d="M46.356 76.4989H51.8202V81.9631H46.356V76.4989Z" fill="#00695C"/>
<path d="M51.8203 76.4989H57.2845V81.9631H51.8203V76.4989Z" fill="#00874B"/>
<path d="M57.2842 76.4989H62.7484V81.9631H57.2842V76.4989Z" fill="#00695C"/>
<path d="M62.7485 76.4989H68.2128V81.9631H62.7485V76.4989Z" fill="#00695C"/>
<path d="M68.2129 76.4989H73.6771V81.9631H68.2129V76.4989Z" fill="#00874B"/>
<path d="M73.6772 76.4989H79.1415V81.9631H73.6772V76.4989Z" fill="#00874B"/>
<path d="M79.1411 76.4989H84.6053V81.9631H79.1411V76.4989Z" fill="#00874B"/>
<path d="M84.6055 76.4989H90.0697V81.9631H84.6055V76.4989Z" fill="#00874B"/>
<path d="M90.0698 76.4989H95.534V81.9631H90.0698V76.4989Z" fill="#00874B"/>
<path d="M95.5342 76.4989H100.998V81.9631H95.5342V76.4989Z" fill="#00874B"/>
<path d="M100.998 76.4989H106.462V81.9631H100.998V76.4989Z" fill="#00695C"/>
<path d="M106.462 76.4989H111.927V81.9631H106.462V76.4989Z" fill="#00874B"/>
<path d="M111.926 76.4989H117.39V81.9631H111.926V76.4989Z" fill="#00874B"/>
<path d="M117.391 76.4989H122.855V81.9631H117.391V76.4989Z" fill="#00874B"/>
<path d="M122.855 76.4989H128.319V81.9631H122.855V76.4989Z" fill="#00695C"/>
<path d="M128.319 76.4989H133.784V81.9631H128.319V76.4989Z" fill="#13B26B"/>
<path d="M133.783 76.4989H139.247V81.9631H133.783V76.4989Z" fill="#00874B"/>
<path d="M139.248 76.4989H144.712V81.9631H139.248V76.4989Z" fill="#00874B"/>
<path d="M144.712 76.4989H150.176V81.9631H144.712V76.4989Z" fill="#00874B"/>
<path d="M150.176 76.4989H155.64V81.9631H150.176V76.4989Z" fill="#00874B"/>
<path d="M155.641 76.4989H161.105V81.9631H155.641V76.4989Z" fill="#00874B"/>
<path d="M161.104 76.4989H166.569V81.9631H161.104V76.4989Z" fill="#00695C"/>
<path d="M166.569 76.4989H172.033V81.9631H166.569V76.4989Z" fill="#00874B"/>
<path d="M172.033 76.4989H177.497V81.9631H172.033V76.4989Z" fill="#00874B"/>
<path d="M177.497 76.4989H182.961V81.9631H177.497V76.4989Z" fill="#00874B"/>
<path d="M182.961 76.4989H188.426V81.9631H182.961V76.4989Z" fill="#00695C"/>
<path d="M188.425 76.4989H193.89V81.9631H188.425V76.4989Z" fill="#263238"/>
<path d="M-2.82178 81.9633H2.64244V87.4275H-2.82178V81.9633Z" fill="#00695C"/>
<path d="M2.64209 81.9633H8.1063V87.4275H2.64209V81.9633Z" fill="#00695C"/>
<path d="M8.10645 81.9633H13.5707V87.4275H8.10645V81.9633Z" fill="#00874B"/>
<path d="M13.5708 81.9633H19.035V87.4275H13.5708V81.9633Z" fill="#00874B"/>
<path d="M19.0352 81.9633H24.4994V87.4275H19.0352V81.9633Z" fill="#00874B"/>
<path d="M24.4995 81.9633H29.9637V87.4275H24.4995V81.9633Z" fill="#00874B"/>
<path d="M29.9634 81.9633H35.4276V87.4275H29.9634V81.9633Z" fill="#00874B"/>
<path d="M35.4277 81.9633H40.8919V87.4275H35.4277V81.9633Z" fill="#00874B"/>
<path d="M40.8916 81.9633H46.3558V87.4275H40.8916V81.9633Z" fill="#00695C"/>
<path d="M46.356 81.9633H51.8202V87.4275H46.356V81.9633Z" fill="#00695C"/>
<path d="M51.8203 81.9633H57.2845V87.4275H51.8203V81.9633Z" fill="#00695C"/>
<path d="M57.2842 81.9633H62.7484V87.4275H57.2842V81.9633Z" fill="#00695C"/>
<path d="M62.7485 81.9633H68.2128V87.4275H62.7485V81.9633Z" fill="#00695C"/>
<path d="M68.2129 81.9633H73.6771V87.4275H68.2129V81.9633Z" fill="#00695C"/>
<path d="M73.6772 81.9633H79.1415V87.4275H73.6772V81.9633Z" fill="#00695C"/>
<path d="M79.1411 81.9633H84.6053V87.4275H79.1411V81.9633Z" fill="#00695C"/>
<path d="M84.6055 81.9633H90.0697V87.4275H84.6055V81.9633Z" fill="#00874B"/>
<path d="M90.0698 81.9633H95.534V87.4275H90.0698V81.9633Z" fill="#00695C"/>
<path d="M95.5342 81.9633H100.998V87.4275H95.5342V81.9633Z" fill="#00695C"/>
<path d="M100.998 81.9633H106.462V87.4275H100.998V81.9633Z" fill="#00695C"/>
<path d="M106.462 81.9633H111.927V87.4275H106.462V81.9633Z" fill="#00695C"/>
<path d="M111.926 81.9633H117.39V87.4275H111.926V81.9633Z" fill="#00695C"/>
<path d="M117.391 81.9633H122.855V87.4275H117.391V81.9633Z" fill="#00874B"/>
<path d="M122.855 81.9633H128.319V87.4275H122.855V81.9633Z" fill="#00874B"/>
<path d="M128.319 81.9633H133.784V87.4275H128.319V81.9633Z" fill="#00695C"/>
<path d="M133.783 81.9633H139.247V87.4275H133.783V81.9633Z" fill="#00874B"/>
<path d="M139.248 81.9633H144.712V87.4275H139.248V81.9633Z" fill="#00874B"/>
<path d="M144.712 81.9633H150.176V87.4275H144.712V81.9633Z" fill="#00874B"/>
<path d="M150.176 81.9633H155.64V87.4275H150.176V81.9633Z" fill="#00874B"/>
<path d="M155.641 81.9633H161.105V87.4275H155.641V81.9633Z" fill="#00874B"/>
<path d="M161.104 81.9633H166.569V87.4275H161.104V81.9633Z" fill="#00695C"/>
<path d="M166.569 81.9633H172.033V87.4275H166.569V81.9633Z" fill="#00874B"/>
<path d="M172.033 81.9633H177.497V87.4275H172.033V81.9633Z" fill="#00874B"/>
<path d="M177.497 81.9633H182.961V87.4275H177.497V81.9633Z" fill="#00874B"/>
<path d="M182.961 81.9633H188.426V87.4275H182.961V81.9633Z" fill="#00695C"/>
<path d="M188.425 81.9633H193.89V87.4275H188.425V81.9633Z" fill="#263238"/>
<path d="M-2.82178 87.4274H2.64244V92.8916H-2.82178V87.4274Z" fill="#00695C"/>
<path d="M2.64209 87.4274H8.1063V92.8916H2.64209V87.4274Z" fill="#00695C"/>
<path d="M8.10645 87.4274H13.5707V92.8916H8.10645V87.4274Z" fill="#00695C"/>
<path d="M13.5708 87.4274H19.035V92.8916H13.5708V87.4274Z" fill="#00695C"/>
<path d="M19.0352 87.4274H24.4994V92.8916H19.0352V87.4274Z" fill="#00695C"/>
<path d="M24.4995 87.4274H29.9637V92.8916H24.4995V87.4274Z" fill="#00695C"/>
<path d="M29.9634 87.4274H35.4276V92.8916H29.9634V87.4274Z" fill="#00695C"/>
<path d="M35.4277 87.4274H40.8919V92.8916H35.4277V87.4274Z" fill="#00695C"/>
<path d="M40.8916 87.4274H46.3558V92.8916H40.8916V87.4274Z" fill="#00695C"/>
<path d="M46.356 87.4274H51.8202V92.8916H46.356V87.4274Z" fill="#00695C"/>
<path d="M51.8203 87.4274H57.2845V92.8916H51.8203V87.4274Z" fill="#00695C"/>
<path d="M57.2842 87.4274H62.7484V92.8916H57.2842V87.4274Z" fill="#00695C"/>
<path d="M62.7485 87.4274H68.2128V92.8916H62.7485V87.4274Z" fill="#00695C"/>
<path d="M68.2129 87.4274H73.6771V92.8916H68.2129V87.4274Z" fill="#00695C"/>
<path d="M73.6772 87.4274H79.1415V92.8916H73.6772V87.4274Z" fill="#00695C"/>
<path d="M79.1411 87.4274H84.6053V92.8916H79.1411V87.4274Z" fill="#00695C"/>
<path d="M84.6055 87.4274H90.0697V92.8916H84.6055V87.4274Z" fill="#00695C"/>
<path d="M90.0698 87.4274H95.534V92.8916H90.0698V87.4274Z" fill="#00695C"/>
<path d="M95.5342 87.4274H100.998V92.8916H95.5342V87.4274Z" fill="#00695C"/>
<path d="M100.998 87.4274H106.462V92.8916H100.998V87.4274Z" fill="#13B26B"/>
<path d="M106.462 87.4274H111.927V92.8916H106.462V87.4274Z" fill="#13B26B"/>
<path d="M111.926 87.4274H117.39V92.8916H111.926V87.4274Z" fill="#13B26B"/>
<path d="M117.391 87.4274H122.855V92.8916H117.391V87.4274Z" fill="#00695C"/>
<path d="M122.855 87.4274H128.319V92.8916H122.855V87.4274Z" fill="#00695C"/>
<path d="M128.319 87.4274H133.784V92.8916H128.319V87.4274Z" fill="#00695C"/>
<path d="M133.783 87.4274H139.247V92.8916H133.783V87.4274Z" fill="#00695C"/>
<path d="M139.248 87.4274H144.712V92.8916H139.248V87.4274Z" fill="#00695C"/>
<path d="M144.712 87.4274H150.176V92.8916H144.712V87.4274Z" fill="#00695C"/>
<path d="M150.176 87.4274H155.64V92.8916H150.176V87.4274Z" fill="#00695C"/>
<path d="M155.641 87.4274H161.105V92.8916H155.641V87.4274Z" fill="#00695C"/>
<path d="M161.104 87.4274H166.569V92.8916H161.104V87.4274Z" fill="#00695C"/>
<path d="M166.569 87.4274H172.033V92.8916H166.569V87.4274Z" fill="#00874B"/>
<path d="M172.033 87.4274H177.497V92.8916H172.033V87.4274Z" fill="#00874B"/>
<path d="M177.497 87.4274H182.961V92.8916H177.497V87.4274Z" fill="#00695C"/>
<path d="M182.961 87.4274H188.426V92.8916H182.961V87.4274Z" fill="#263238"/>
<path d="M-2.82178 92.8917H2.64244V98.356H-2.82178V92.8917Z" fill="#00874B"/>
<path d="M2.64209 92.8917H8.1063V98.356H2.64209V92.8917Z" fill="#00874B"/>
<path d="M8.10645 92.8917H13.5707V98.356H8.10645V92.8917Z" fill="#00695C"/>
<path d="M13.5708 92.8917H19.035V98.356H13.5708V92.8917Z" fill="#00695C"/>
<path d="M19.0352 92.8917H24.4994V98.356H19.0352V92.8917Z" fill="#00695C"/>
<path d="M24.4995 92.8917H29.9637V98.356H24.4995V92.8917Z" fill="#00695C"/>
<path d="M29.9634 92.8917H35.4276V98.356H29.9634V92.8917Z" fill="#13B26B"/>
<path d="M35.4277 92.8917H40.8919V98.356H35.4277V92.8917Z" fill="#13B26B"/>
<path d="M40.8916 92.8917H46.3558V98.356H40.8916V92.8917Z" fill="#00695C"/>
<path d="M46.356 92.8917H51.8202V98.356H46.356V92.8917Z" fill="#13B26B"/>
<path d="M51.8203 92.8917H57.2845V98.356H51.8203V92.8917Z" fill="#13B26B"/>
<path d="M57.2842 92.8917H62.7484V98.356H57.2842V92.8917Z" fill="#13B26B"/>
<path d="M62.7485 92.8917H68.2128V98.356H62.7485V92.8917Z" fill="#13B26B"/>
<path d="M68.2129 92.8917H73.6771V98.356H68.2129V92.8917Z" fill="#13B26B"/>
<path d="M73.6772 92.8917H79.1415V98.356H73.6772V92.8917Z" fill="#00695C"/>
<path d="M79.1411 92.8917H84.6053V98.356H79.1411V92.8917Z" fill="#00695C"/>
<path d="M84.6055 92.8917H90.0697V98.356H84.6055V92.8917Z" fill="#00695C"/>
<path d="M90.0698 92.8917H95.534V98.356H90.0698V92.8917Z" fill="#13B26B"/>
<path d="M95.5342 92.8917H100.998V98.356H95.5342V92.8917Z" fill="#13B26B"/>
<path d="M100.998 92.8917H106.462V98.356H100.998V92.8917Z" fill="#13B26B"/>
<path d="M106.462 92.8917H111.927V98.356H106.462V92.8917Z" fill="#13B26B"/>
<path d="M111.926 92.8917H117.39V98.356H111.926V92.8917Z" fill="#13B26B"/>
<path d="M117.391 92.8917H122.855V98.356H117.391V92.8917Z" fill="#13B26B"/>
<path d="M122.855 92.8917H128.319V98.356H122.855V92.8917Z" fill="#00695C"/>
<path d="M128.319 92.8917H133.784V98.356H128.319V92.8917Z" fill="#00695C"/>
<path d="M133.783 92.8917H139.247V98.356H133.783V92.8917Z" fill="#00695C"/>
<path d="M139.248 92.8917H144.712V98.356H139.248V92.8917Z" fill="#00695C"/>
<path d="M144.712 92.8917H150.176V98.356H144.712V92.8917Z" fill="#00695C"/>
<path d="M150.176 92.8917H155.64V98.356H150.176V92.8917Z" fill="#00695C"/>
<path d="M155.641 92.8917H161.105V98.356H155.641V92.8917Z" fill="#00874B"/>
<path d="M161.104 92.8917H166.569V98.356H161.104V92.8917Z" fill="#00874B"/>
<path d="M166.569 92.8917H172.033V98.356H166.569V92.8917Z" fill="#00874B"/>
<path d="M172.033 92.8917H177.497V98.356H172.033V92.8917Z" fill="#00695C"/>
<path d="M177.497 92.8917H182.961V98.356H177.497V92.8917Z" fill="#00695C"/>
<path d="M182.961 92.8917H188.426V98.356H182.961V92.8917Z" fill="#263238"/>
<path d="M-2.82178 98.3559H2.64244V103.82H-2.82178V98.3559Z" fill="#00874B"/>
<path d="M2.64209 98.3559H8.1063V103.82H2.64209V98.3559Z" fill="#00695C"/>
<path d="M8.10645 98.3559H13.5707V103.82H8.10645V98.3559Z" fill="#00874B"/>
<path d="M13.5708 98.3559H19.035V103.82H13.5708V98.3559Z" fill="#13B26B"/>
<path d="M19.0352 98.3559H24.4994V103.82H19.0352V98.3559Z" fill="#00874B"/>
<path d="M24.4995 98.3559H29.9637V103.82H24.4995V98.3559Z" fill="#13B26B"/>
<path d="M29.9634 98.3559H35.4276V103.82H29.9634V98.3559Z" fill="#13B26B"/>
<path d="M35.4277 98.3559H40.8919V103.82H35.4277V98.3559Z" fill="#13B26B"/>
<path d="M40.8916 98.3559H46.3558V103.82H40.8916V98.3559Z" fill="#13B26B"/>
<path d="M46.356 98.3559H51.8202V103.82H46.356V98.3559Z" fill="#13B26B"/>
<path d="M51.8203 98.3559H57.2845V103.82H51.8203V98.3559Z" fill="#00874B"/>
<path d="M57.2842 98.3559H62.7484V103.82H57.2842V98.3559Z" fill="#13B26B"/>
<path d="M62.7485 98.3559H68.2128V103.82H62.7485V98.3559Z" fill="#00874B"/>
<path d="M68.2129 98.3559H73.6771V103.82H68.2129V98.3559Z" fill="#13B26B"/>
<path d="M73.6772 98.3559H79.1415V103.82H73.6772V98.3559Z" fill="#13B26B"/>
<path d="M79.1411 98.3559H84.6053V103.82H79.1411V98.3559Z" fill="#13B26B"/>
<path d="M84.6055 98.3559H90.0697V103.82H84.6055V98.3559Z" fill="#13B26B"/>
<path d="M90.0698 98.3559H95.534V103.82H90.0698V98.3559Z" fill="#13B26B"/>
<path d="M95.5342 98.3559H100.998V103.82H95.5342V98.3559Z" fill="#13B26B"/>
<path d="M100.998 98.3559H106.462V103.82H100.998V98.3559Z" fill="#00874B"/>
<path d="M106.462 98.3559H111.927V103.82H106.462V98.3559Z" fill="#00874B"/>
<path d="M111.926 98.3559H117.39V103.82H111.926V98.3559Z" fill="#00874B"/>
<path d="M117.391 98.3559H122.855V103.82H117.391V98.3559Z" fill="#00874B"/>
<path d="M122.855 98.3559H128.319V103.82H122.855V98.3559Z" fill="#13B26B"/>
<path d="M128.319 98.3559H133.784V103.82H128.319V98.3559Z" fill="#13B26B"/>
<path d="M133.783 98.3559H139.247V103.82H133.783V98.3559Z" fill="#00874B"/>
<path d="M139.248 98.3559H144.712V103.82H139.248V98.3559Z" fill="#00874B"/>
<path d="M144.712 98.3559H150.176V103.82H144.712V98.3559Z" fill="#00874B"/>
<path d="M150.176 98.3559H155.64V103.82H150.176V98.3559Z" fill="#00874B"/>
<path d="M155.641 98.3559H161.105V103.82H155.641V98.3559Z" fill="#00874B"/>
<path d="M161.104 98.3559H166.569V103.82H161.104V98.3559Z" fill="#00874B"/>
<path d="M166.569 98.3559H172.033V103.82H166.569V98.3559Z" fill="#00874B"/>
<path d="M172.033 98.3559H177.497V103.82H172.033V98.3559Z" fill="#00874B"/>
<path d="M177.497 98.3559H182.961V103.82H177.497V98.3559Z" fill="#00695C"/>
<path d="M182.961 98.3559H188.426V103.82H182.961V98.3559Z" fill="#263238"/>
<path d="M-2.82178 103.82H2.64244V109.284H-2.82178V103.82Z" fill="#00695C"/>
<path d="M2.64209 103.82H8.1063V109.284H2.64209V103.82Z" fill="#00695C"/>
<path d="M8.10645 103.82H13.5707V109.284H8.10645V103.82Z" fill="#00874B"/>
<path d="M13.5708 103.82H19.035V109.284H13.5708V103.82Z" fill="#00874B"/>
<path d="M19.0352 103.82H24.4994V109.284H19.0352V103.82Z" fill="#00874B"/>
<path d="M24.4995 103.82H29.9637V109.284H24.4995V103.82Z" fill="#00874B"/>
<path d="M29.9634 103.82H35.4276V109.284H29.9634V103.82Z" fill="#00874B"/>
<path d="M35.4277 103.82H40.8919V109.284H35.4277V103.82Z" fill="#13B26B"/>
<path d="M40.8916 103.82H46.3558V109.284H40.8916V103.82Z" fill="#00874B"/>
<path d="M46.356 103.82H51.8202V109.284H46.356V103.82Z" fill="#13B26B"/>
<path d="M51.8203 103.82H57.2845V109.284H51.8203V103.82Z" fill="#00874B"/>
<path d="M57.2842 103.82H62.7484V109.284H57.2842V103.82Z" fill="#00874B"/>
<path d="M62.7485 103.82H68.2128V109.284H62.7485V103.82Z" fill="#00874B"/>
<path d="M68.2129 103.82H73.6771V109.284H68.2129V103.82Z" fill="#00874B"/>
<path d="M73.6772 103.82H79.1415V109.284H73.6772V103.82Z" fill="#00874B"/>
<path d="M79.1411 103.82H84.6053V109.284H79.1411V103.82Z" fill="#13B26B"/>
<path d="M84.6055 103.82H90.0697V109.284H84.6055V103.82Z" fill="#00874B"/>
<path d="M90.0698 103.82H95.534V109.284H90.0698V103.82Z" fill="#00874B"/>
<path d="M95.5342 103.82H100.998V109.284H95.5342V103.82Z" fill="#00874B"/>
<path d="M100.998 103.82H106.462V109.284H100.998V103.82Z" fill="#00874B"/>
<path d="M106.462 103.82H111.927V109.284H106.462V103.82Z" fill="#00874B"/>
<path d="M111.926 103.82H117.39V109.284H111.926V103.82Z" fill="#00874B"/>
<path d="M117.391 103.82H122.855V109.284H117.391V103.82Z" fill="#00874B"/>
<path d="M122.855 103.82H128.319V109.284H122.855V103.82Z" fill="#00874B"/>
<path d="M128.319 103.82H133.784V109.284H128.319V103.82Z" fill="#00695C"/>
<path d="M133.783 103.82H139.247V109.284H133.783V103.82Z" fill="#00695C"/>
<path d="M139.248 103.82H144.712V109.284H139.248V103.82Z" fill="#00874B"/>
<path d="M144.712 103.82H150.176V109.284H144.712V103.82Z" fill="#00874B"/>
<path d="M150.176 103.82H155.64V109.284H150.176V103.82Z" fill="#00874B"/>
<path d="M155.641 103.82H161.105V109.284H155.641V103.82Z" fill="#00874B"/>
<path d="M161.104 103.82H166.569V109.284H161.104V103.82Z" fill="#00874B"/>
<path d="M166.569 103.82H172.033V109.284H166.569V103.82Z" fill="#00695C"/>
<path d="M172.033 103.82H177.497V109.284H172.033V103.82Z" fill="#00695C"/>
<path d="M177.497 103.82H182.961V109.284H177.497V103.82Z" fill="#00695C"/>
<path d="M182.961 103.82H188.426V109.284H182.961V103.82Z" fill="#263238"/>
<path d="M-2.82178 109.284H2.64244V114.749H-2.82178V109.284Z" fill="#00695C"/>
<path d="M2.64209 109.284H8.1063V114.749H2.64209V109.284Z" fill="#00874B"/>
<path d="M8.10645 109.284H13.5707V114.749H8.10645V109.284Z" fill="#00874B"/>
<path d="M13.5708 109.284H19.035V114.749H13.5708V109.284Z" fill="#00874B"/>
<path d="M19.0352 109.284H24.4994V114.749H19.0352V109.284Z" fill="#00874B"/>
<path d="M24.4995 109.284H29.9637V114.749H24.4995V109.284Z" fill="#00874B"/>
<path d="M29.9634 109.284H35.4276V114.749H29.9634V109.284Z" fill="#00874B"/>
<path d="M35.4277 109.284H40.8919V114.749H35.4277V109.284Z" fill="#00874B"/>
<path d="M40.8916 109.284H46.3558V114.749H40.8916V109.284Z" fill="#00874B"/>
<path d="M46.356 109.284H51.8202V114.749H46.356V109.284Z" fill="#00695C"/>
<path d="M51.8203 109.284H57.2845V114.749H51.8203V109.284Z" fill="#00874B"/>
<path d="M57.2842 109.284H62.7484V114.749H57.2842V109.284Z" fill="#00874B"/>
<path d="M62.7485 109.284H68.2128V114.749H62.7485V109.284Z" fill="#00874B"/>
<path d="M68.2129 109.284H73.6771V114.749H68.2129V109.284Z" fill="#00874B"/>
<path d="M73.6772 109.284H79.1415V114.749H73.6772V109.284Z" fill="#00874B"/>
<path d="M79.1411 109.284H84.6053V114.749H79.1411V109.284Z" fill="#00695C"/>
<path d="M84.6055 109.284H90.0697V114.749H84.6055V109.284Z" fill="#00874B"/>
<path d="M90.0698 109.284H95.534V114.749H90.0698V109.284Z" fill="#00874B"/>
<path d="M95.5342 109.284H100.998V114.749H95.5342V109.284Z" fill="#00874B"/>
<path d="M100.998 109.284H106.462V114.749H100.998V109.284Z" fill="#00874B"/>
<path d="M106.462 109.284H111.927V114.749H106.462V109.284Z" fill="#00874B"/>
<path d="M111.926 109.284H117.39V114.749H111.926V109.284Z" fill="#00874B"/>
<path d="M117.391 109.284H122.855V114.749H117.391V109.284Z" fill="#00874B"/>
<path d="M122.855 109.284H128.319V114.749H122.855V109.284Z" fill="#00874B"/>
<path d="M128.319 109.284H133.784V114.749H128.319V109.284Z" fill="#00695C"/>
<path d="M133.783 109.284H139.247V114.749H133.783V109.284Z" fill="#00695C"/>
<path d="M139.248 109.284H144.712V114.749H139.248V109.284Z" fill="#00695C"/>
<path d="M144.712 109.284H150.176V114.749H144.712V109.284Z" fill="#00695C"/>
<path d="M150.176 109.284H155.64V114.749H150.176V109.284Z" fill="#00695C"/>
<path d="M155.641 109.284H161.105V114.749H155.641V109.284Z" fill="#00695C"/>
<path d="M161.104 109.284H166.569V114.749H161.104V109.284Z" fill="#00695C"/>
<path d="M166.569 109.284H172.033V114.749H166.569V109.284Z" fill="#00695C"/>
<path d="M172.033 109.284H177.497V114.749H172.033V109.284Z" fill="#00695C"/>
<path d="M177.497 109.284H182.961V114.749H177.497V109.284Z" fill="#00695C"/>
<path d="M182.961 109.284H188.426V114.749H182.961V109.284Z" fill="#263238"/>
<path d="M-2.82178 114.748H2.64244V120.213H-2.82178V114.748Z" fill="#00695C"/>
<path d="M2.64209 114.748H8.1063V120.213H2.64209V114.748Z" fill="#00874B"/>
<path d="M8.10645 114.748H13.5707V120.213H8.10645V114.748Z" fill="#00874B"/>
<path d="M13.5708 114.748H19.035V120.213H13.5708V114.748Z" fill="#00874B"/>
<path d="M19.0352 114.748H24.4994V120.213H19.0352V114.748Z" fill="#00874B"/>
<path d="M24.4995 114.748H29.9637V120.213H24.4995V114.748Z" fill="#00874B"/>
<path d="M29.9634 114.748H35.4276V120.213H29.9634V114.748Z" fill="#00874B"/>
<path d="M35.4277 114.748H40.8919V120.213H35.4277V114.748Z" fill="#00874B"/>
<path d="M40.8916 114.748H46.3558V120.213H40.8916V114.748Z" fill="#00874B"/>
<path d="M46.356 114.748H51.8202V120.213H46.356V114.748Z" fill="#00695C"/>
<path d="M51.8203 114.748H57.2845V120.213H51.8203V114.748Z" fill="#00874B"/>
<path d="M57.2842 114.748H62.7484V120.213H57.2842V114.748Z" fill="#00695C"/>
<path d="M62.7485 114.748H68.2128V120.213H62.7485V114.748Z" fill="#00874B"/>
<path d="M68.2129 114.748H73.6771V120.213H68.2129V114.748Z" fill="#00874B"/>
<path d="M73.6772 114.748H79.1415V120.213H73.6772V114.748Z" fill="#00695C"/>
<path d="M79.1411 114.748H84.6053V120.213H79.1411V114.748Z" fill="#00695C"/>
<path d="M84.6055 114.748H90.0697V120.213H84.6055V114.748Z" fill="#00695C"/>
<path d="M90.0698 114.748H95.534V120.213H90.0698V114.748Z" fill="#00874B"/>
<path d="M95.5342 114.748H100.998V120.213H95.5342V114.748Z" fill="#00874B"/>
<path d="M100.998 114.748H106.462V120.213H100.998V114.748Z" fill="#00874B"/>
<path d="M106.462 114.748H111.927V120.213H106.462V114.748Z" fill="#00874B"/>
<path d="M111.926 114.748H117.39V120.213H111.926V114.748Z" fill="#00874B"/>
<path d="M117.391 114.748H122.855V120.213H117.391V114.748Z" fill="#00695C"/>
<path d="M122.855 114.748H128.319V120.213H122.855V114.748Z" fill="#00695C"/>
<path d="M128.319 114.748H133.784V120.213H128.319V114.748Z" fill="#00695C"/>
<path d="M133.783 114.748H139.247V120.213H133.783V114.748Z" fill="#00695C"/>
<path d="M139.248 114.748H144.712V120.213H139.248V114.748Z" fill="#00695C"/>
<path d="M144.712 114.748H150.176V120.213H144.712V114.748Z" fill="#00695C"/>
<path d="M150.176 114.748H155.64V120.213H150.176V114.748Z" fill="#00695C"/>
<path d="M155.641 114.748H161.105V120.213H155.641V114.748Z" fill="#00695C"/>
<path d="M161.104 114.748H166.569V120.213H161.104V114.748Z" fill="#00695C"/>
<path d="M166.569 114.748H172.033V120.213H166.569V114.748Z" fill="#00695C"/>
<path d="M172.033 114.748H177.497V120.213H172.033V114.748Z" fill="#00695C"/>
<path d="M177.497 114.748H182.961V120.213H177.497V114.748Z" fill="#263238"/>
<path d="M-2.82178 120.213H2.64244V125.677H-2.82178V120.213Z" fill="#00695C"/>
<path d="M2.64209 120.213H8.1063V125.677H2.64209V120.213Z" fill="#00695C"/>
<path d="M8.10645 120.213H13.5707V125.677H8.10645V120.213Z" fill="#00874B"/>
<path d="M13.5708 120.213H19.035V125.677H13.5708V120.213Z" fill="#00874B"/>
<path d="M19.0352 120.213H24.4994V125.677H19.0352V120.213Z" fill="#00874B"/>
<path d="M24.4995 120.213H29.9637V125.677H24.4995V120.213Z" fill="#00874B"/>
<path d="M29.9634 120.213H35.4276V125.677H29.9634V120.213Z" fill="#00874B"/>
<path d="M35.4277 120.213H40.8919V125.677H35.4277V120.213Z" fill="#00874B"/>
<path d="M40.8916 120.213H46.3558V125.677H40.8916V120.213Z" fill="#00695C"/>
<path d="M46.356 120.213H51.8202V125.677H46.356V120.213Z" fill="#00695C"/>
<path d="M51.8203 120.213H57.2845V125.677H51.8203V120.213Z" fill="#00874B"/>
<path d="M57.2842 120.213H62.7484V125.677H57.2842V120.213Z" fill="#00874B"/>
<path d="M62.7485 120.213H68.2128V125.677H62.7485V120.213Z" fill="#00874B"/>
<path d="M68.2129 120.213H73.6771V125.677H68.2129V120.213Z" fill="#00874B"/>
<path d="M73.6772 120.213H79.1415V125.677H73.6772V120.213Z" fill="#00874B"/>
<path d="M79.1411 120.213H84.6053V125.677H79.1411V120.213Z" fill="#00695C"/>
<path d="M84.6055 120.213H90.0697V125.677H84.6055V120.213Z" fill="#00695C"/>
<path d="M90.0698 120.213H95.534V125.677H90.0698V120.213Z" fill="#00695C"/>
<path d="M95.5342 120.213H100.998V125.677H95.5342V120.213Z" fill="#00695C"/>
<path d="M100.998 120.213H106.462V125.677H100.998V120.213Z" fill="#00695C"/>
<path d="M106.462 120.213H111.927V125.677H106.462V120.213Z" fill="#00695C"/>
<path d="M111.926 120.213H117.39V125.677H111.926V120.213Z" fill="#00695C"/>
<path d="M117.391 120.213H122.855V125.677H117.391V120.213Z" fill="#00695C"/>
<path d="M122.855 120.213H128.319V125.677H122.855V120.213Z" fill="#00695C"/>
<path d="M128.319 120.213H133.784V125.677H128.319V120.213Z" fill="#263238"/>
<path d="M133.783 120.213H139.247V125.677H133.783V120.213Z" fill="#263238"/>
<path d="M139.248 120.213H144.712V125.677H139.248V120.213Z" fill="#263238"/>
<path d="M144.712 120.213H150.176V125.677H144.712V120.213Z" fill="#263238"/>
<path d="M150.176 120.213H155.64V125.677H150.176V120.213Z" fill="#00695C"/>
<path d="M155.641 120.213H161.105V125.677H155.641V120.213Z" fill="#00695C"/>
<path d="M161.104 120.213H166.569V125.677H161.104V120.213Z" fill="#00695C"/>
<path d="M166.569 120.213H172.033V125.677H166.569V120.213Z" fill="#263238"/>
<path d="M172.033 120.213H177.497V125.677H172.033V120.213Z" fill="#263238"/>
<path d="M-2.82178 125.677H2.64244V131.141H-2.82178V125.677Z" fill="#263238"/>
<path d="M2.64209 125.677H8.1063V131.141H2.64209V125.677Z" fill="#00695C"/>
<path d="M8.10645 125.677H13.5707V131.141H8.10645V125.677Z" fill="#00695C"/>
<path d="M13.5708 125.677H19.035V131.141H13.5708V125.677Z" fill="#00874B"/>
<path d="M19.0352 125.677H24.4994V131.141H19.0352V125.677Z" fill="#00874B"/>
<path d="M24.4995 125.677H29.9637V131.141H24.4995V125.677Z" fill="#00874B"/>
<path d="M29.9634 125.677H35.4276V131.141H29.9634V125.677Z" fill="#00874B"/>
<path d="M35.4277 125.677H40.8919V131.141H35.4277V125.677Z" fill="#00695C"/>
<path d="M40.8916 125.677H46.3558V131.141H40.8916V125.677Z" fill="#00695C"/>
<path d="M46.356 125.677H51.8202V131.141H46.356V125.677Z" fill="#00695C"/>
<path d="M51.8203 125.677H57.2845V131.141H51.8203V125.677Z" fill="#00695C"/>
<path d="M57.2842 125.677H62.7484V131.141H57.2842V125.677Z" fill="#00874B"/>
<path d="M62.7485 125.677H68.2128V131.141H62.7485V125.677Z" fill="#00874B"/>
<path d="M68.2129 125.677H73.6771V131.141H68.2129V125.677Z" fill="#00874B"/>
<path d="M73.6772 125.677H79.1415V131.141H73.6772V125.677Z" fill="#00695C"/>
<path d="M79.1411 125.677H84.6053V131.141H79.1411V125.677Z" fill="#00695C"/>
<path d="M84.6055 125.677H90.0697V131.141H84.6055V125.677Z" fill="#00695C"/>
<path d="M90.0698 125.677H95.534V131.141H90.0698V125.677Z" fill="#00695C"/>
<path d="M95.5342 125.677H100.998V131.141H95.5342V125.677Z" fill="#00695C"/>
<path d="M100.998 125.677H106.462V131.141H100.998V125.677Z" fill="#00695C"/>
<path d="M106.462 125.677H111.927V131.141H106.462V125.677Z" fill="#00695C"/>
<path d="M111.926 125.677H117.39V131.141H111.926V125.677Z" fill="#00695C"/>
<path d="M117.391 125.677H122.855V131.141H117.391V125.677Z" fill="#00695C"/>
<path d="M122.855 125.677H128.319V131.141H122.855V125.677Z" fill="#263238"/>
<path d="M150.176 125.677H155.64V131.141H150.176V125.677Z" fill="#263238"/>
<path d="M155.641 125.677H161.105V131.141H155.641V125.677Z" fill="#263238"/>
<path d="M161.104 125.677H166.569V131.141H161.104V125.677Z" fill="#263238"/>
<path d="M-2.82178 131.141H2.64244V136.605H-2.82178V131.141Z" fill="#263238"/>
<path d="M2.64209 131.141H8.1063V136.605H2.64209V131.141Z" fill="#263238"/>
<path d="M8.10645 131.141H13.5707V136.605H8.10645V131.141Z" fill="#00695C"/>
<path d="M13.5708 131.141H19.035V136.605H13.5708V131.141Z" fill="#00695C"/>
<path d="M19.0352 131.141H24.4994V136.605H19.0352V131.141Z" fill="#00695C"/>
<path d="M24.4995 131.141H29.9637V136.605H24.4995V131.141Z" fill="#00695C"/>
<path d="M29.9634 131.141H35.4276V136.605H29.9634V131.141Z" fill="#00695C"/>
<path d="M35.4277 131.141H40.8919V136.605H35.4277V131.141Z" fill="#00695C"/>
<path d="M40.8916 131.141H46.3558V136.605H40.8916V131.141Z" fill="#00695C"/>
<path d="M46.356 131.141H51.8202V136.605H46.356V131.141Z" fill="#00695C"/>
<path d="M51.8203 131.141H57.2845V136.605H51.8203V131.141Z" fill="#00695C"/>
<path d="M57.2842 131.141H62.7484V136.605H57.2842V131.141Z" fill="#00695C"/>
<path d="M62.7485 131.141H68.2128V136.605H62.7485V131.141Z" fill="#00695C"/>
<path d="M68.2129 131.141H73.6771V136.605H68.2129V131.141Z" fill="#00695C"/>
<path d="M73.6772 131.141H79.1415V136.605H73.6772V131.141Z" fill="#00695C"/>
<path d="M79.1411 131.141H84.6053V136.605H79.1411V131.141Z" fill="#4E342E"/>
<path d="M84.6055 131.141H90.0697V136.605H84.6055V131.141Z" fill="#00695C"/>
<path d="M90.0698 131.141H95.534V136.605H90.0698V131.141Z" fill="#00695C"/>
<path d="M95.5342 131.141H100.998V136.605H95.5342V131.141Z" fill="#00695C"/>
<path d="M100.998 131.141H106.462V136.605H100.998V131.141Z" fill="#00695C"/>
<path d="M106.462 131.141H111.927V136.605H106.462V131.141Z" fill="#00695C"/>
<path d="M111.926 131.141H117.39V136.605H111.926V131.141Z" fill="#00695C"/>
<path d="M117.391 131.141H122.855V136.605H117.391V131.141Z" fill="#263238"/>
<path d="M-2.82178 136.605H2.64244V142.07H-2.82178V136.605Z" fill="#13B26B"/>
<path d="M2.64209 136.605H8.1063V142.07H2.64209V136.605Z" fill="#263238"/>
<path d="M8.10645 136.605H13.5707V142.07H8.10645V136.605Z" fill="#263238"/>
<path d="M13.5708 136.605H19.035V142.07H13.5708V136.605Z" fill="#263238"/>
<path d="M19.0352 136.605H24.4994V142.07H19.0352V136.605Z" fill="#00695C"/>
<path d="M24.4995 136.605H29.9637V142.07H24.4995V136.605Z" fill="#00695C"/>
<path d="M29.9634 136.605H35.4276V142.07H29.9634V136.605Z" fill="#00695C"/>
<path d="M35.4277 136.605H40.8919V142.07H35.4277V136.605Z" fill="#00695C"/>
<path d="M40.8916 136.605H46.3558V142.07H40.8916V136.605Z" fill="#00695C"/>
<path d="M46.356 136.605H51.8202V142.07H46.356V136.605Z" fill="#00695C"/>
<path d="M51.8203 136.605H57.2845V142.07H51.8203V136.605Z" fill="#00695C"/>
<path d="M57.2842 136.605H62.7484V142.07H57.2842V136.605Z" fill="#00695C"/>
<path d="M62.7485 136.605H68.2128V142.07H62.7485V136.605Z" fill="#00695C"/>
<path d="M68.2129 136.605H73.6771V142.07H68.2129V136.605Z" fill="#263238"/>
<path d="M73.6772 136.605H79.1415V142.07H73.6772V136.605Z" fill="#4E342E"/>
<path d="M79.1411 136.605H84.6053V142.07H79.1411V136.605Z" fill="#4E342E"/>
<path d="M84.6055 136.605H90.0697V142.07H84.6055V136.605Z" fill="#263238"/>
<path d="M90.0698 136.605H95.534V142.07H90.0698V136.605Z" fill="#263238"/>
<path d="M95.5342 136.605H100.998V142.07H95.5342V136.605Z" fill="#263238"/>
<path d="M100.998 136.605H106.462V142.07H100.998V136.605Z" fill="#263238"/>
<path d="M106.462 136.605H111.927V142.07H106.462V136.605Z" fill="#263238"/>
<path d="M111.926 136.605H117.39V142.07H111.926V136.605Z" fill="#263238"/>
<path d="M-2.82178 142.069H2.64244V147.534H-2.82178V142.069Z" fill="#13B26B"/>
<path d="M2.64209 142.069H8.1063V147.534H2.64209V142.069Z" fill="#13B26B"/>
<path d="M8.10645 142.069H13.5707V147.534H8.10645V142.069Z" fill="#13B26B"/>
<path d="M13.5708 142.069H19.035V147.534H13.5708V142.069Z" fill="#263238"/>
<path d="M19.0352 142.069H24.4994V147.534H19.0352V142.069Z" fill="#00695C"/>
<path d="M24.4995 142.069H29.9637V147.534H24.4995V142.069Z" fill="#00695C"/>
<path d="M29.9634 142.069H35.4276V147.534H29.9634V142.069Z" fill="#00695C"/>
<path d="M35.4277 142.069H40.8919V147.534H35.4277V142.069Z" fill="#00695C"/>
<path d="M40.8916 142.069H46.3558V147.534H40.8916V142.069Z" fill="#4E342E"/>
<path d="M46.356 142.069H51.8202V147.534H46.356V142.069Z" fill="#263238"/>
<path d="M51.8203 142.069H57.2845V147.534H51.8203V142.069Z" fill="#263238"/>
<path d="M57.2842 142.069H62.7484V147.534H57.2842V142.069Z" fill="#263238"/>
<path d="M62.7485 142.069H68.2128V147.534H62.7485V142.069Z" fill="#263238"/>
<path d="M68.2129 142.069H73.6771V147.534H68.2129V142.069Z" fill="#263238"/>
<path d="M73.6772 142.069H79.1415V147.534H73.6772V142.069Z" fill="#6D4C41"/>
<path d="M79.1411 142.069H84.6053V147.534H79.1411V142.069Z" fill="#263238"/>
<path d="M-2.82178 147.534H2.64244V152.998H-2.82178V147.534Z" fill="#00874B"/>
<path d="M2.64209 147.534H8.1063V152.998H2.64209V147.534Z" fill="#00874B"/>
<path d="M8.10645 147.534H13.5707V152.998H8.10645V147.534Z" fill="#13B26B"/>
<path d="M13.5708 147.534H19.035V152.998H13.5708V147.534Z" fill="#13B26B"/>
<path d="M19.0352 147.534H24.4994V152.998H19.0352V147.534Z" fill="#263238"/>
<path d="M24.4995 147.534H29.9637V152.998H24.4995V147.534Z" fill="#263238"/>
<path d="M29.9634 147.534H35.4276V152.998H29.9634V147.534Z" fill="#4E342E"/>
<path d="M35.4277 147.534H40.8919V152.998H35.4277V147.534Z" fill="#4E342E"/>
<path d="M40.8916 147.534H46.3558V152.998H40.8916V147.534Z" fill="#4E342E"/>
<path d="M46.356 147.534H51.8202V152.998H46.356V147.534Z" fill="#263238"/>
<path d="M62.7485 147.534H68.2128V152.998H62.7485V147.534Z" fill="#263238"/>
<path d="M68.2129 147.534H73.6771V152.998H68.2129V147.534Z" fill="#8D6E63"/>
<path d="M73.6772 147.534H79.1415V152.998H73.6772V147.534Z" fill="#6D4C41"/>
<path d="M79.1411 147.534H84.6053V152.998H79.1411V147.534Z" fill="#263238"/>
<path d="M-2.82178 152.998H2.64244V158.462H-2.82178V152.998Z" fill="#00874B"/>
<path d="M2.64209 152.998H8.1063V158.462H2.64209V152.998Z" fill="#00874B"/>
<path d="M8.10645 152.998H13.5707V158.462H8.10645V152.998Z" fill="#00874B"/>
<path d="M13.5708 152.998H19.035V158.462H13.5708V152.998Z" fill="#13B26B"/>
<path d="M19.0352 152.998H24.4994V158.462H19.0352V152.998Z" fill="#263238"/>
<path d="M29.9634 152.998H35.4276V158.462H29.9634V152.998Z" fill="#263238"/>
<path d="M35.4277 152.998H40.8919V158.462H35.4277V152.998Z" fill="#6D4C41"/>
<path d="M40.8916 152.998H46.3558V158.462H40.8916V152.998Z" fill="#6D4C41"/>
<path d="M46.356 152.998H51.8202V158.462H46.356V152.998Z" fill="#6D4C41"/>
<path d="M51.8203 152.998H57.2845V158.462H51.8203V152.998Z" fill="#263238"/>
<path d="M57.2842 152.998H62.7484V158.462H57.2842V152.998Z" fill="#263238"/>
<path d="M62.7485 152.998H68.2128V158.462H62.7485V152.998Z" fill="#263238"/>
<path d="M68.2129 152.998H73.6771V158.462H68.2129V152.998Z" fill="#795548"/>
<path d="M73.6772 152.998H79.1415V158.462H73.6772V152.998Z" fill="#6D4C41"/>
<path d="M79.1411 152.998H84.6053V158.462H79.1411V152.998Z" fill="#263238"/>
<path d="M-2.82178 158.462H2.64244V163.927H-2.82178V158.462Z" fill="#00874B"/>
<path d="M2.64209 158.462H8.1063V163.927H2.64209V158.462Z" fill="#00874B"/>
<path d="M8.10645 158.462H13.5707V163.927H8.10645V158.462Z" fill="#00695C"/>
<path d="M13.5708 158.462H19.035V163.927H13.5708V158.462Z" fill="#4E342E"/>
<path d="M19.0352 158.462H24.4994V163.927H19.0352V158.462Z" fill="#4E342E"/>
<path d="M24.4995 158.462H29.9637V163.927H24.4995V158.462Z" fill="#263238"/>
<path d="M29.9634 158.462H35.4276V163.927H29.9634V158.462Z" fill="#263238"/>
<path d="M35.4277 158.462H40.8919V163.927H35.4277V158.462Z" fill="#263238"/>
<path d="M40.8916 158.462H46.3558V163.927H40.8916V158.462Z" fill="#6D4C41"/>
<path d="M46.356 158.462H51.8202V163.927H46.356V158.462Z" fill="#6D4C41"/>
<path d="M51.8203 158.462H57.2845V163.927H51.8203V158.462Z" fill="#6D4C41"/>
<path d="M57.2842 158.462H62.7484V163.927H57.2842V158.462Z" fill="#6D4C41"/>
<path d="M62.7485 158.462H68.2128V163.927H62.7485V158.462Z" fill="#263238"/>
<path d="M68.2129 158.462H73.6771V163.927H68.2129V158.462Z" fill="#795548"/>
<path d="M73.6772 158.462H79.1415V163.927H73.6772V158.462Z" fill="#6D4C41"/>
<path d="M79.1411 158.462H84.6053V163.927H79.1411V158.462Z" fill="#6D4C41"/>
<path d="M84.6055 158.462H90.0697V163.927H84.6055V158.462Z" fill="#263238"/>
<path d="M-2.82178 163.926H2.64244V169.391H-2.82178V163.926Z" fill="#00874B"/>
<path d="M2.64209 163.926H8.1063V169.391H2.64209V163.926Z" fill="#00695C"/>
<path d="M8.10645 163.926H13.5707V169.391H8.10645V163.926Z" fill="#00695C"/>
<path d="M13.5708 163.926H19.035V169.391H13.5708V163.926Z" fill="#263238"/>
<path d="M19.0352 163.926H24.4994V169.391H19.0352V163.926Z" fill="#6D4C41"/>
<path d="M24.4995 163.926H29.9637V169.391H24.4995V163.926Z" fill="#6D4C41"/>
<path d="M29.9634 163.926H35.4276V169.391H29.9634V163.926Z" fill="#6D4C41"/>
<path d="M35.4277 163.926H40.8919V169.391H35.4277V163.926Z" fill="#6D4C41"/>
<path d="M40.8916 163.926H46.3558V169.391H40.8916V163.926Z" fill="#4E342E"/>
<path d="M46.356 163.926H51.8202V169.391H46.356V163.926Z" fill="#4E342E"/>
<path d="M51.8203 163.926H57.2845V169.391H51.8203V163.926Z" fill="#6D4C41"/>
<path d="M57.2842 163.926H62.7484V169.391H57.2842V163.926Z" fill="#6D4C41"/>
<path d="M62.7485 163.926H68.2128V169.391H62.7485V163.926Z" fill="#6D4C41"/>
<path d="M68.2129 163.926H73.6771V169.391H68.2129V163.926Z" fill="#6D4C41"/>
<path d="M73.6772 163.926H79.1415V169.391H73.6772V163.926Z" fill="#6D4C41"/>
<path d="M79.1411 163.926H84.6053V169.391H79.1411V163.926Z" fill="#6D4C41"/>
<path d="M84.6055 163.926H90.0697V169.391H84.6055V163.926Z" fill="#263238"/>
<path d="M-2.82178 169.391H2.64244V174.855H-2.82178V169.391Z" fill="#00695C"/>
<path d="M2.64209 169.391H8.1063V174.855H2.64209V169.391Z" fill="#00695C"/>
<path d="M8.10645 169.391H13.5707V174.855H8.10645V169.391Z" fill="#263238"/>
<path d="M19.0352 169.391H24.4994V174.855H19.0352V169.391Z" fill="#263238"/>
<path d="M24.4995 169.391H29.9637V174.855H24.4995V169.391Z" fill="#263238"/>
<path d="M29.9634 169.391H35.4276V174.855H29.9634V169.391Z" fill="#263238"/>
<path d="M35.4277 169.391H40.8919V174.855H35.4277V169.391Z" fill="#263238"/>
<path d="M40.8916 169.391H46.3558V174.855H40.8916V169.391Z" fill="#263238"/>
<path d="M46.356 169.391H51.8202V174.855H46.356V169.391Z" fill="#263238"/>
<path d="M51.8203 169.391H57.2845V174.855H51.8203V169.391Z" fill="#263238"/>
<path d="M57.2842 169.391H62.7484V174.855H57.2842V169.391Z" fill="#263238"/>
<path d="M62.7485 169.391H68.2128V174.855H62.7485V169.391Z" fill="#6D4C41"/>
<path d="M68.2129 169.391H73.6771V174.855H68.2129V169.391Z" fill="#6D4C41"/>
<path d="M73.6772 169.391H79.1415V174.855H73.6772V169.391Z" fill="#6D4C41"/>
<path d="M79.1411 169.391H84.6053V174.855H79.1411V169.391Z" fill="#6D4C41"/>
<path d="M84.6055 169.391H90.0697V174.855H84.6055V169.391Z" fill="#6D4C41"/>
<path d="M90.0698 169.391H95.534V174.855H90.0698V169.391Z" fill="#263238"/>
<path d="M95.5342 169.391H100.998V174.855H95.5342V169.391Z" fill="#263238"/>
<path d="M100.998 169.391H106.462V174.855H100.998V169.391Z" fill="#263238"/>
<path d="M-2.82178 174.855H2.64244V180.319H-2.82178V174.855Z" fill="#263238"/>
<path d="M2.64209 174.855H8.1063V180.319H2.64209V174.855Z" fill="#263238"/>
<path d="M62.7485 174.855H68.2128V180.319H62.7485V174.855Z" fill="#263238"/>
<path d="M68.2129 174.855H73.6771V180.319H68.2129V174.855Z" fill="#263238"/>
<path d="M73.6772 174.855H79.1415V180.319H73.6772V174.855Z" fill="#6D4C41"/>
<path d="M79.1411 174.855H84.6053V180.319H79.1411V174.855Z" fill="#6D4C41"/>
<path d="M84.6055 174.855H90.0697V180.319H84.6055V174.855Z" fill="#6D4C41"/>
<path d="M90.0698 174.855H95.534V180.319H90.0698V174.855Z" fill="#6D4C41"/>
<path d="M95.5342 174.855H100.998V180.319H95.5342V174.855Z" fill="#795548"/>
<path d="M100.998 174.855H106.462V180.319H100.998V174.855Z" fill="#8D6E63"/>
<path d="M106.462 174.855H111.927V180.319H106.462V174.855Z" fill="#263238"/>
<path d="M40.8916 180.319H46.3558V185.783H40.8916V180.319Z" fill="#263238"/>
<path d="M73.6772 180.319H79.1415V185.783H73.6772V180.319Z" fill="#263238"/>
<path d="M79.1411 180.319H84.6053V185.783H79.1411V180.319Z" fill="#6D4C41"/>
<path d="M84.6055 180.319H90.0697V185.783H84.6055V180.319Z" fill="#6D4C41"/>
<path d="M90.0698 180.319H95.534V185.783H90.0698V180.319Z" fill="#6D4C41"/>
<path d="M95.5342 180.319H100.998V185.783H95.5342V180.319Z" fill="#795548"/>
<path d="M100.998 180.319H106.462V185.783H100.998V180.319Z" fill="#795548"/>
<path d="M106.462 180.319H111.927V185.783H106.462V180.319Z" fill="#795548"/>
<path d="M111.926 180.319H117.39V185.783H111.926V180.319Z" fill="#263238"/>
<path d="M35.4277 185.783H40.8919V191.248H35.4277V185.783Z" fill="#263238"/>
<path d="M40.8916 185.783H46.3558V191.248H40.8916V185.783Z" fill="#13B26B"/>
<path d="M46.356 185.783H51.8202V191.248H46.356V185.783Z" fill="#263238"/>
<path d="M79.1411 185.783H84.6053V191.248H79.1411V185.783Z" fill="#263238"/>
<path d="M84.6055 185.783H90.0697V191.248H84.6055V185.783Z" fill="#6D4C41"/>
<path d="M90.0698 185.783H95.534V191.248H90.0698V185.783Z" fill="#6D4C41"/>
<path d="M95.5342 185.783H100.998V191.248H95.5342V185.783Z" fill="#6D4C41"/>
<path d="M100.998 185.783H106.462V191.248H100.998V185.783Z" fill="#6D4C41"/>
<path d="M106.462 185.783H111.927V191.248H106.462V185.783Z" fill="#6D4C41"/>
<path d="M111.926 185.783H117.39V191.248H111.926V185.783Z" fill="#8D6E63"/>
<path d="M117.391 185.783H122.855V191.248H117.391V185.783Z" fill="#263238"/>
<path d="M144.712 185.783H150.176V191.248H144.712V185.783Z" fill="#263238"/>
<path d="M40.8916 191.247H46.3558V196.712H40.8916V191.247Z" fill="#263238"/>
<path d="M46.356 191.247H51.8202V196.712H46.356V191.247Z" fill="#00874B"/>
<path d="M51.8203 191.247H57.2845V196.712H51.8203V191.247Z" fill="#263238"/>
<path d="M73.6772 191.247H79.1415V196.712H73.6772V191.247Z" fill="#263238"/>
<path d="M79.1411 191.247H84.6053V196.712H79.1411V191.247Z" fill="#263238"/>
<path d="M84.6055 191.247H90.0697V196.712H84.6055V191.247Z" fill="#6D4C41"/>
<path d="M90.0698 191.247H95.534V196.712H90.0698V191.247Z" fill="#6D4C41"/>
<path d="M95.5342 191.247H100.998V196.712H95.5342V191.247Z" fill="#6D4C41"/>
<path d="M100.998 191.247H106.462V196.712H100.998V191.247Z" fill="#795548"/>
<path d="M106.462 191.247H111.927V196.712H106.462V191.247Z" fill="#795548"/>
<path d="M111.926 191.247H117.39V196.712H111.926V191.247Z" fill="#795548"/>
<path d="M117.391 191.247H122.855V196.712H117.391V191.247Z" fill="#795548"/>
<path d="M122.855 191.247H128.319V196.712H122.855V191.247Z" fill="#263238"/>
<path d="M139.248 191.247H144.712V196.712H139.248V191.247Z" fill="#263238"/>
<path d="M144.712 191.247H150.176V196.712H144.712V191.247Z" fill="#13B26B"/>
<path d="M150.176 191.247H155.64V196.712H150.176V191.247Z" fill="#263238"/>
<path d="M24.4995 196.712H29.9637V202.176H24.4995V196.712Z" fill="#263238"/>
<path d="M29.9634 196.712H35.4276V202.176H29.9634V196.712Z" fill="#263238"/>
<path d="M35.4277 196.712H40.8919V202.176H35.4277V196.712Z" fill="#263238"/>
<path d="M40.8916 196.712H46.3558V202.176H40.8916V196.712Z" fill="#263238"/>
<path d="M46.356 196.712H51.8202V202.176H46.356V196.712Z" fill="#00874B"/>
<path d="M51.8203 196.712H57.2845V202.176H51.8203V196.712Z" fill="#263238"/>
<path d="M57.2842 196.712H62.7484V202.176H57.2842V196.712Z" fill="#263238"/>
<path d="M62.7485 196.712H68.2128V202.176H62.7485V196.712Z" fill="#263238"/>
<path d="M68.2129 196.712H73.6771V202.176H68.2129V196.712Z" fill="#263238"/>
<path d="M73.6772 196.712H79.1415V202.176H73.6772V196.712Z" fill="#6D4C41"/>
<path d="M79.1411 196.712H84.6053V202.176H79.1411V196.712Z" fill="#6D4C41"/>
<path d="M84.6055 196.712H90.0697V202.176H84.6055V196.712Z" fill="#6D4C41"/>
<path d="M90.0698 196.712H95.534V202.176H90.0698V196.712Z" fill="#6D4C41"/>
<path d="M95.5342 196.712H100.998V202.176H95.5342V196.712Z" fill="#6D4C41"/>
<path d="M100.998 196.712H106.462V202.176H100.998V196.712Z" fill="#6D4C41"/>
<path d="M106.462 196.712H111.927V202.176H106.462V196.712Z" fill="#6D4C41"/>
<path d="M111.926 196.712H117.39V202.176H111.926V196.712Z" fill="#6D4C41"/>
<path d="M117.391 196.712H122.855V202.176H117.391V196.712Z" fill="#6D4C41"/>
<path d="M122.855 196.712H128.319V202.176H122.855V196.712Z" fill="#263238"/>
<path d="M128.319 196.712H133.784V202.176H128.319V196.712Z" fill="#263238"/>
<path d="M133.783 196.712H139.247V202.176H133.783V196.712Z" fill="#263238"/>
<path d="M139.248 196.712H144.712V202.176H139.248V196.712Z" fill="#00874B"/>
<path d="M144.712 196.712H150.176V202.176H144.712V196.712Z" fill="#263238"/>
<path d="M150.176 196.712H155.64V202.176H150.176V196.712Z" fill="#263238"/>
<path d="M155.641 196.712H161.105V202.176H155.641V196.712Z" fill="#263238"/>
<path d="M19.0352 202.176H24.4994V207.64H19.0352V202.176Z" fill="#263238"/>
<path d="M24.4995 202.176H29.9637V207.64H24.4995V202.176Z" fill="#00874B"/>
<path d="M29.9634 202.176H35.4276V207.64H29.9634V202.176Z" fill="#00874B"/>
<path d="M35.4277 202.176H40.8919V207.64H35.4277V202.176Z" fill="#00874B"/>
<path d="M40.8916 202.176H46.3558V207.64H40.8916V202.176Z" fill="#00874B"/>
<path d="M46.356 202.176H51.8202V207.64H46.356V202.176Z" fill="#00874B"/>
<path d="M51.8203 202.176H57.2845V207.64H51.8203V202.176Z" fill="#00695C"/>
<path d="M57.2842 202.176H62.7484V207.64H57.2842V202.176Z" fill="#00874B"/>
<path d="M62.7485 202.176H68.2128V207.64H62.7485V202.176Z" fill="#00695C"/>
<path d="M68.2129 202.176H73.6771V207.64H68.2129V202.176Z" fill="#00695C"/>
<path d="M73.6772 202.176H79.1415V207.64H73.6772V202.176Z" fill="#00695C"/>
<path d="M79.1411 202.176H84.6053V207.64H79.1411V202.176Z" fill="#00695C"/>
<path d="M84.6055 202.176H90.0697V207.64H84.6055V202.176Z" fill="#00695C"/>
<path d="M90.0698 202.176H95.534V207.64H90.0698V202.176Z" fill="#00695C"/>
<path d="M95.5342 202.176H100.998V207.64H95.5342V202.176Z" fill="#00695C"/>
<path d="M100.998 202.176H106.462V207.64H100.998V202.176Z" fill="#00695C"/>
<path d="M106.462 202.176H111.927V207.64H106.462V202.176Z" fill="#00695C"/>
<path d="M111.926 202.176H117.39V207.64H111.926V202.176Z" fill="#00695C"/>
<path d="M117.391 202.176H122.855V207.64H117.391V202.176Z" fill="#00695C"/>
<path d="M122.855 202.176H128.319V207.64H122.855V202.176Z" fill="#00695C"/>
<path d="M128.319 202.176H133.784V207.64H128.319V202.176Z" fill="#00695C"/>
<path d="M133.783 202.176H139.247V207.64H133.783V202.176Z" fill="#00874B"/>
<path d="M139.248 202.176H144.712V207.64H139.248V202.176Z" fill="#00874B"/>
<path d="M144.712 202.176H150.176V207.64H144.712V202.176Z" fill="#00874B"/>
<path d="M150.176 202.176H155.64V207.64H150.176V202.176Z" fill="#00874B"/>
<path d="M155.641 202.176H161.105V207.64H155.641V202.176Z" fill="#00874B"/>
<path d="M161.104 202.176H166.569V207.64H161.104V202.176Z" fill="#263238"/>
<path d="M24.4995 207.64H29.9637V213.104H24.4995V207.64Z" fill="#263238"/>
<path d="M29.9634 207.64H35.4276V213.104H29.9634V207.64Z" fill="#263238"/>
<path d="M35.4277 207.64H40.8919V213.104H35.4277V207.64Z" fill="#263238"/>
<path d="M40.8916 207.64H46.3558V213.104H40.8916V207.64Z" fill="#263238"/>
<path d="M46.356 207.64H51.8202V213.104H46.356V207.64Z" fill="#263238"/>
<path d="M51.8203 207.64H57.2845V213.104H51.8203V207.64Z" fill="#263238"/>
<path d="M57.2842 207.64H62.7484V213.104H57.2842V207.64Z" fill="#263238"/>
<path d="M62.7485 207.64H68.2128V213.104H62.7485V207.64Z" fill="#263238"/>
<path d="M68.2129 207.64H73.6771V213.104H68.2129V207.64Z" fill="#263238"/>
<path d="M73.6772 207.64H79.1415V213.104H73.6772V207.64Z" fill="#263238"/>
<path d="M79.1411 207.64H84.6053V213.104H79.1411V207.64Z" fill="#263238"/>
<path d="M84.6055 207.64H90.0697V213.104H84.6055V207.64Z" fill="#263238"/>
<path d="M90.0698 207.64H95.534V213.104H90.0698V207.64Z" fill="#263238"/>
<path d="M95.5342 207.64H100.998V213.104H95.5342V207.64Z" fill="#263238"/>
<path d="M100.998 207.64H106.462V213.104H100.998V207.64Z" fill="#263238"/>
<path d="M106.462 207.64H111.927V213.104H106.462V207.64Z" fill="#263238"/>
<path d="M111.926 207.64H117.39V213.104H111.926V207.64Z" fill="#263238"/>
<path d="M117.391 207.64H122.855V213.104H117.391V207.64Z" fill="#263238"/>
<path d="M122.855 207.64H128.319V213.104H122.855V207.64Z" fill="#263238"/>
<path d="M128.319 207.64H133.784V213.104H128.319V207.64Z" fill="#263238"/>
<path d="M133.783 207.64H139.247V213.104H133.783V207.64Z" fill="#263238"/>
<path d="M139.248 207.64H144.712V213.104H139.248V207.64Z" fill="#263238"/>
<path d="M144.712 207.64H150.176V213.104H144.712V207.64Z" fill="#263238"/>
<path d="M150.176 207.64H155.64V213.104H150.176V207.64Z" fill="#263238"/>
<path d="M155.641 207.64H161.105V213.104H155.641V207.64Z" fill="#263238"/>
</svg>
